{
 "cells": [
  {
   "cell_type": "code",
   "execution_count": 6,
   "metadata": {},
   "outputs": [],
   "source": [
    "import pandas as pd\n",
    "from mido import MidiFile, MidiTrack, Message, MetaMessage\n",
    "import os"
   ]
  },
  {
   "cell_type": "code",
   "execution_count": 2,
   "metadata": {},
   "outputs": [
    {
     "name": "stdout",
     "output_type": "stream",
     "text": [
      "[MidiTrack([\n",
      "  MetaMessage('set_tempo', tempo=439440, time=0),\n",
      "  Message('note_on', channel=0, note=38, velocity=53, time=37283),\n",
      "  Message('note_on', channel=0, note=50, velocity=53, time=0),\n",
      "  Message('control_change', channel=0, control=64, value=127, time=0),\n",
      "  Message('note_on', channel=0, note=57, velocity=49, time=53601),\n",
      "  Message('note_off', channel=0, note=57, velocity=49, time=17389),\n",
      "  Message('note_on', channel=0, note=69, velocity=55, time=0),\n",
      "  Message('note_on', channel=0, note=66, velocity=49, time=0),\n",
      "  Message('note_on', channel=0, note=62, velocity=49, time=0),\n",
      "  Message('note_off', channel=0, note=38, velocity=53, time=34779),\n",
      "  Message('note_off', channel=0, note=50, velocity=53, time=0),\n",
      "  Message('note_on', channel=0, note=33, velocity=51, time=0),\n",
      "  Message('note_on', channel=0, note=45, velocity=51, time=0),\n",
      "  Message('note_off', channel=0, note=69, velocity=55, time=39860),\n",
      "  Message('note_off', channel=0, note=66, velocity=49, time=0),\n",
      "  Message('note_off', channel=0, note=62, velocity=49, time=0),\n",
      "  Message('note_off', channel=0, note=33, velocity=51, time=0),\n",
      "  Message('note_off', channel=0, note=45, velocity=51, time=0),\n",
      "  Message('note_on', channel=0, note=38, velocity=54, time=0),\n",
      "  Message('note_on', channel=0, note=50, velocity=54, time=0),\n",
      "  Message('control_change', channel=0, control=64, value=0, time=0),\n",
      "  Message('control_change', channel=0, control=64, value=127, time=8338),\n",
      "  Message('note_on', channel=0, note=57, velocity=46, time=45263),\n",
      "  Message('note_off', channel=0, note=57, velocity=46, time=17389),\n",
      "  Message('note_on', channel=0, note=62, velocity=48, time=0),\n",
      "  Message('note_on', channel=0, note=66, velocity=48, time=0),\n",
      "  Message('note_on', channel=0, note=69, velocity=54, time=0),\n",
      "  Message('note_off', channel=0, note=38, velocity=54, time=34779),\n",
      "  Message('note_off', channel=0, note=50, velocity=54, time=0),\n",
      "  Message('note_on', channel=0, note=33, velocity=49, time=0),\n",
      "  Message('note_on', channel=0, note=45, velocity=49, time=0),\n",
      "  Message('control_change', channel=0, control=64, value=0, time=22222),\n",
      "  Message('note_off', channel=0, note=62, velocity=48, time=15603),\n",
      "  Message('note_off', channel=0, note=66, velocity=48, time=0),\n",
      "  Message('note_off', channel=0, note=69, velocity=54, time=0),\n",
      "  Message('note_off', channel=0, note=33, velocity=49, time=0),\n",
      "  Message('note_off', channel=0, note=45, velocity=49, time=0),\n",
      "  Message('note_on', channel=0, note=57, velocity=45, time=0),\n",
      "  Message('note_on', channel=0, note=62, velocity=45, time=0),\n",
      "  Message('note_on', channel=0, note=66, velocity=65, time=0),\n",
      "  Message('note_on', channel=0, note=50, velocity=44, time=0),\n",
      "  Message('control_change', channel=0, control=64, value=127, time=0),\n",
      "  Message('note_off', channel=0, note=66, velocity=65, time=20808),\n",
      "  Message('note_on', channel=0, note=66, velocity=60, time=0),\n",
      "  Message('note_off', channel=0, note=66, velocity=60, time=20808),\n",
      "  Message('note_on', channel=0, note=66, velocity=57, time=0),\n",
      "  Message('note_off', channel=0, note=57, velocity=45, time=6214),\n",
      "  Message('note_off', channel=0, note=62, velocity=45, time=0),\n",
      "  Message('note_off', channel=0, note=66, velocity=57, time=9321),\n",
      "  Message('note_on', channel=0, note=66, velocity=55, time=0),\n",
      "  Message('note_on', channel=0, note=56, velocity=41, time=0),\n",
      "  Message('control_change', channel=0, control=64, value=0, time=1252),\n",
      "  Message('note_off', channel=0, note=66, velocity=55, time=2921),\n",
      "  Message('note_on', channel=0, note=69, velocity=49, time=0),\n",
      "  Message('note_off', channel=0, note=50, velocity=44, time=4173),\n",
      "  Message('note_off', channel=0, note=56, velocity=41, time=0),\n",
      "  Message('note_off', channel=0, note=69, velocity=49, time=0),\n",
      "  Message('note_on', channel=0, note=67, velocity=58, time=0),\n",
      "  Message('note_on', channel=0, note=57, velocity=45, time=0),\n",
      "  Message('control_change', channel=0, control=64, value=127, time=7067),\n",
      "  Message('note_off', channel=0, note=67, velocity=58, time=30354),\n",
      "  Message('note_off', channel=0, note=57, velocity=45, time=0),\n",
      "  Message('note_on', channel=0, note=66, velocity=60, time=0),\n",
      "  Message('note_on', channel=0, note=45, velocity=45, time=0),\n",
      "  Message('control_change', channel=0, control=64, value=0, time=32465),\n",
      "  Message('note_off', channel=0, note=66, velocity=60, time=6493),\n",
      "  Message('note_off', channel=0, note=45, velocity=45, time=0),\n",
      "  Message('note_on', channel=0, note=57, velocity=38, time=0),\n",
      "  Message('note_on', channel=0, note=62, velocity=38, time=0),\n",
      "  Message('note_on', channel=0, note=66, velocity=38, time=0),\n",
      "  Message('note_on', channel=0, note=69, velocity=63, time=0),\n",
      "  Message('note_on', channel=0, note=50, velocity=39, time=0),\n",
      "  Message('control_change', channel=0, control=64, value=127, time=0),\n",
      "  Message('note_on', channel=0, note=56, velocity=46, time=59452),\n",
      "  Message('control_change', channel=0, control=64, value=0, time=1234),\n",
      "  Message('note_off', channel=0, note=57, velocity=38, time=6991),\n",
      "  Message('note_off', channel=0, note=50, velocity=39, time=0),\n",
      "  Message('note_off', channel=0, note=56, velocity=46, time=0),\n",
      "  Message('note_on', channel=0, note=57, velocity=50, time=0),\n",
      "  Message('control_change', channel=0, control=64, value=127, time=7197),\n",
      "  Message('note_off', channel=0, note=62, velocity=38, time=30354),\n",
      "  Message('note_off', channel=0, note=66, velocity=38, time=0),\n",
      "  Message('note_off', channel=0, note=69, velocity=63, time=0),\n",
      "  Message('note_off', channel=0, note=57, velocity=50, time=0),\n",
      "  Message('note_on', channel=0, note=66, velocity=56, time=0),\n",
      "  Message('note_on', channel=0, note=74, velocity=63, time=0),\n",
      "  Message('note_on', channel=0, note=45, velocity=46, time=0),\n",
      "  Message('note_off', channel=0, note=74, velocity=63, time=19051),\n",
      "  Message('note_on', channel=0, note=76, velocity=70, time=0),\n",
      "  Message('control_change', channel=0, control=64, value=0, time=14274),\n",
      "  Message('note_off', channel=0, note=66, velocity=56, time=7137),\n",
      "  Message('note_off', channel=0, note=45, velocity=46, time=0),\n",
      "  Message('note_off', channel=0, note=76, velocity=70, time=0),\n",
      "  Message('note_on', channel=0, note=66, velocity=52, time=0),\n",
      "  Message('note_on', channel=0, note=78, velocity=75, time=0),\n",
      "  Message('note_on', channel=0, note=50, velocity=49, time=0),\n",
      "  Message('control_change', channel=0, control=64, value=127, time=0),\n",
      "  Message('note_off', channel=0, note=78, velocity=75, time=51134),\n",
      "  Message('note_on', channel=0, note=73, velocity=67, time=0),\n",
      "  Message('note_on', channel=0, note=76, velocity=55, time=8222),\n",
      "  Message('note_on', channel=0, note=56, velocity=41, time=0),\n",
      "  Message('control_change', channel=0, control=64, value=0, time=1222),\n",
      "  Message('note_off', channel=0, note=50, velocity=49, time=6925),\n",
      "  Message('note_off', channel=0, note=73, velocity=67, time=0),\n",
      "  Message('note_off', channel=0, note=76, velocity=55, time=0),\n",
      "  Message('note_off', channel=0, note=56, velocity=41, time=0),\n",
      "  Message('note_on', channel=0, note=74, velocity=75, time=0),\n",
      "  Message('note_on', channel=0, note=57, velocity=46, time=0),\n",
      "  Message('control_change', channel=0, control=64, value=127, time=6836),\n",
      "  Message('note_off', channel=0, note=66, velocity=52, time=28476),\n",
      "  Message('note_off', channel=0, note=74, velocity=75, time=0),\n",
      "  Message('note_off', channel=0, note=57, velocity=46, time=0),\n",
      "  Message('note_on', channel=0, note=65, velocity=46, time=0),\n",
      "  Message('note_on', channel=0, note=71, velocity=68, time=0),\n",
      "  Message('note_on', channel=0, note=51, velocity=45, time=0),\n",
      "  Message('note_off', channel=0, note=65, velocity=46, time=20564),\n",
      "  Message('note_on', channel=0, note=66, velocity=45, time=0),\n",
      "  Message('control_change', channel=0, control=64, value=0, time=14395),\n",
      "  Message('note_off', channel=0, note=71, velocity=68, time=7197),\n",
      "  Message('note_off', channel=0, note=51, velocity=45, time=0),\n",
      "  Message('note_off', channel=0, note=66, velocity=45, time=0),\n",
      "  Message('note_on', channel=0, note=61, velocity=50, time=0),\n",
      "  Message('note_on', channel=0, note=67, velocity=60, time=0),\n",
      "  Message('note_on', channel=0, note=52, velocity=45, time=0),\n",
      "  Message('control_change', channel=0, control=64, value=127, time=7197),\n",
      "  Message('control_change', channel=0, control=64, value=0, time=53434),\n",
      "  Message('note_on', channel=0, note=56, velocity=43, time=408),\n",
      "  Message('note_off', channel=0, note=52, velocity=45, time=8164),\n",
      "  Message('note_off', channel=0, note=56, velocity=43, time=0),\n",
      "  Message('note_on', channel=0, note=57, velocity=47, time=0),\n",
      "  Message('control_change', channel=0, control=64, value=127, time=6946),\n",
      "  Message('note_off', channel=0, note=61, velocity=50, time=29292),\n",
      "  Message('note_off', channel=0, note=67, velocity=60, time=0),\n",
      "  Message('note_off', channel=0, note=57, velocity=47, time=0),\n",
      "  Message('note_on', channel=0, note=64, velocity=50, time=0),\n",
      "  Message('note_on', channel=0, note=67, velocity=60, time=0),\n",
      "  Message('note_on', channel=0, note=45, velocity=45, time=0),\n",
      "  Message('note_off', channel=0, note=64, velocity=50, time=20564),\n",
      "  Message('note_off', channel=0, note=67, velocity=60, time=0),\n",
      "  Message('note_on', channel=0, note=66, velocity=50, time=0),\n",
      "  Message('note_on', channel=0, note=69, velocity=60, time=0),\n",
      "  Message('control_change', channel=0, control=64, value=0, time=13709),\n",
      "  Message('note_off', channel=0, note=45, velocity=45, time=6855),\n",
      "  Message('note_off', channel=0, note=66, velocity=50, time=0),\n",
      "  Message('note_off', channel=0, note=69, velocity=60, time=0),\n",
      "  Message('note_on', channel=0, note=67, velocity=56, time=0),\n",
      "  Message('note_on', channel=0, note=71, velocity=67, time=0),\n",
      "  Message('note_on', channel=0, note=49, velocity=45, time=0),\n",
      "  Message('control_change', channel=0, control=64, value=127, time=7197),\n",
      "  Message('note_off', channel=0, note=67, velocity=56, time=45678),\n",
      "  Message('note_off', channel=0, note=71, velocity=67, time=0),\n",
      "  Message('note_on', channel=0, note=73, velocity=63, time=0),\n",
      "  Message('note_on', channel=0, note=69, velocity=53, time=0),\n",
      "  Message('control_change', channel=0, control=64, value=0, time=8606),\n",
      "  Message('note_on', channel=0, note=56, velocity=46, time=453),\n",
      "  Message('note_off', channel=0, note=49, velocity=45, time=9059),\n",
      "  Message('note_off', channel=0, note=73, velocity=63, time=0),\n",
      "  Message('note_off', channel=0, note=69, velocity=53, time=0),\n",
      "  Message('note_off', channel=0, note=56, velocity=46, time=0),\n",
      "  Message('note_on', channel=0, note=73, velocity=57, time=0),\n",
      "  Message('note_on', channel=0, note=76, velocity=68, time=0),\n",
      "  Message('note_on', channel=0, note=57, velocity=52, time=0),\n",
      "  Message('control_change', channel=0, control=64, value=127, time=6946),\n",
      "  Message('note_off', channel=0, note=73, velocity=57, time=29292),\n",
      "  Message('note_off', channel=0, note=76, velocity=68, time=0),\n",
      "  Message('note_off', channel=0, note=57, velocity=52, time=0),\n",
      "  Message('note_on', channel=0, note=71, velocity=53, time=0),\n",
      "  Message('note_on', channel=0, note=74, velocity=63, time=0),\n",
      "  Message('note_on', channel=0, note=45, velocity=45, time=0),\n",
      "  Message('control_change', channel=0, control=64, value=0, time=29778),\n",
      "  Message('note_off', channel=0, note=71, velocity=53, time=5956),\n",
      "  Message('note_off', channel=0, note=74, velocity=63, time=0),\n",
      "  Message('note_off', channel=0, note=45, velocity=45, time=0),\n",
      "  Message('note_on', channel=0, note=71, velocity=56, time=0),\n",
      "  Message('note_on', channel=0, note=74, velocity=67, time=0),\n",
      "  Message('note_on', channel=0, note=52, velocity=45, time=0),\n",
      "  Message('control_change', channel=0, control=64, value=127, time=6973),\n",
      "  Message('note_off', channel=0, note=71, velocity=56, time=1565),\n",
      "  Message('note_off', channel=0, note=74, velocity=67, time=0),\n",
      "  Message('note_on', channel=0, note=73, velocity=49, time=0),\n",
      "  Message('note_on', channel=0, note=76, velocity=58, time=0),\n",
      "  Message('note_off', channel=0, note=73, velocity=49, time=8538),\n",
      "  Message('note_off', channel=0, note=76, velocity=58, time=0),\n",
      "  Message('note_on', channel=0, note=71, velocity=51, time=0),\n",
      "  Message('note_on', channel=0, note=74, velocity=61, time=0),\n",
      "  Message('note_off', channel=0, note=71, velocity=51, time=21240),\n",
      "  Message('note_off', channel=0, note=74, velocity=61, time=0),\n",
      "  Message('note_on', channel=0, note=73, velocity=56, time=0),\n",
      "  Message('note_on', channel=0, note=69, velocity=47, time=0),\n",
      "  Message('control_change', channel=0, control=64, value=0, time=29110),\n",
      "  Message('note_on', channel=0, note=56, velocity=46, time=414),\n",
      "  Message('note_off', channel=0, note=52, velocity=45, time=8285),\n",
      "  Message('note_off', channel=0, note=56, velocity=46, time=0),\n",
      "  Message('note_on', channel=0, note=57, velocity=52, time=0),\n",
      "  Message('control_change', channel=0, control=64, value=127, time=7197),\n",
      "  Message('note_off', channel=0, note=73, velocity=56, time=30354),\n",
      "  Message('note_off', channel=0, note=69, velocity=47, time=0),\n",
      "  Message('note_off', channel=0, note=57, velocity=52, time=0),\n",
      "  Message('note_on', channel=0, note=73, velocity=56, time=0),\n",
      "  Message('note_on', channel=0, note=76, velocity=67, time=0),\n",
      "  Message('note_on', channel=0, note=45, velocity=45, time=0),\n",
      "  Message('note_off', channel=0, note=73, velocity=56, time=19973),\n",
      "  Message('note_off', channel=0, note=76, velocity=67, time=0),\n",
      "  Message('note_on', channel=0, note=67, velocity=49, time=0),\n",
      "  Message('note_on', channel=0, note=71, velocity=58, time=0),\n",
      "  Message('control_change', channel=0, control=64, value=0, time=13557),\n",
      "  Message('note_off', channel=0, note=45, velocity=45, time=6779),\n",
      "  Message('note_off', channel=0, note=67, velocity=49, time=0),\n",
      "  Message('note_off', channel=0, note=71, velocity=58, time=0),\n",
      "  Message('note_on', channel=0, note=71, velocity=54, time=0),\n",
      "  Message('note_on', channel=0, note=74, velocity=64, time=0),\n",
      "  Message('note_on', channel=0, note=49, velocity=45, time=0),\n",
      "  Message('control_change', channel=0, control=64, value=127, time=7779),\n",
      "  Message('note_off', channel=0, note=71, velocity=54, time=49374),\n",
      "  Message('note_off', channel=0, note=74, velocity=64, time=0),\n",
      "  Message('note_on', channel=0, note=66, velocity=48, time=0),\n",
      "  Message('note_on', channel=0, note=69, velocity=57, time=0),\n",
      "  Message('control_change', channel=0, control=64, value=0, time=7989),\n",
      "  Message('note_on', channel=0, note=56, velocity=46, time=420),\n",
      "  Message('note_off', channel=0, note=66, velocity=48, time=4205),\n",
      "  Message('note_off', channel=0, note=69, velocity=57, time=0),\n",
      "  Message('note_off', channel=0, note=49, velocity=45, time=4205),\n",
      "  Message('note_off', channel=0, note=56, velocity=46, time=0),\n",
      "  Message('note_on', channel=0, note=69, velocity=51, time=0),\n",
      "  Message('note_on', channel=0, note=73, velocity=61, time=0),\n",
      "  Message('note_on', channel=0, note=57, velocity=52, time=0),\n",
      "  Message('control_change', channel=0, control=64, value=127, time=7146),\n",
      "  Message('note_off', channel=0, note=69, velocity=51, time=11495),\n",
      "  Message('note_off', channel=0, note=73, velocity=61, time=0),\n",
      "  Message('note_off', channel=0, note=57, velocity=52, time=18641),\n",
      "  Message('note_on', channel=0, note=64, velocity=45, time=0),\n",
      "  Message('note_on', channel=0, note=67, velocity=54, time=0),\n",
      "  Message('note_on', channel=0, note=45, velocity=45, time=0),\n",
      "  Message('note_off', channel=0, note=64, velocity=45, time=19622),\n",
      "  Message('note_off', channel=0, note=67, velocity=54, time=0),\n",
      "  Message('control_change', channel=0, control=64, value=0, time=13082),\n",
      "  Message('note_off', channel=0, note=45, velocity=45, time=6541),\n",
      "  Message('note_on', channel=0, note=65, velocity=49, time=0),\n",
      "  Message('note_on', channel=0, note=71, velocity=58, time=0),\n",
      "  Message('note_on', channel=0, note=50, velocity=49, time=0),\n",
      "  Message('control_change', channel=0, control=64, value=127, time=0),\n",
      "  Message('note_off', channel=0, note=65, velocity=49, time=38904),\n",
      "  Message('note_off', channel=0, note=71, velocity=58, time=0),\n",
      "  Message('note_on', channel=0, note=69, velocity=54, time=0),\n",
      "  Message('note_on', channel=0, note=66, velocity=45, time=0),\n",
      "  Message('control_change', channel=0, control=64, value=0, time=10180),\n",
      "  Message('control_change', channel=0, control=64, value=127, time=4781),\n",
      "  Message('note_on', channel=0, note=56, velocity=45, time=12242),\n",
      "  Message('note_off', channel=0, note=50, velocity=49, time=8695),\n",
      "  Message('note_off', channel=0, note=56, velocity=45, time=0),\n",
      "  Message('note_on', channel=0, note=57, velocity=48, time=0),\n",
      "  Message('control_change', channel=0, control=64, value=0, time=36144),\n",
      "  Message('note_off', channel=0, note=69, velocity=54, time=2239),\n",
      "  Message('note_off', channel=0, note=66, velocity=45, time=0),\n",
      "  Message('note_on', channel=0, note=62, velocity=61, time=0),\n",
      "  Message('note_on', channel=0, note=74, velocity=70, time=0),\n",
      "  Message('control_change', channel=0, control=64, value=127, time=3973),\n",
      "  Message('note_off', channel=0, note=57, velocity=48, time=32699),\n",
      "  Message('note_off', channel=0, note=62, velocity=61, time=0),\n",
      "  Message('note_off', channel=0, note=74, velocity=70, time=0),\n",
      "  Message('note_on', channel=0, note=62, velocity=54, time=0),\n",
      "  Message('note_on', channel=0, note=74, velocity=76, time=0),\n",
      "  Message('note_on', channel=0, note=47, velocity=52, time=0),\n",
      "  Message('note_on', channel=0, note=54, velocity=52, time=0),\n",
      "  Message('note_off', channel=0, note=74, velocity=76, time=22596),\n",
      "  Message('note_on', channel=0, note=73, velocity=72, time=0),\n",
      "  Message('note_off', channel=0, note=73, velocity=72, time=23672),\n",
      "  Message('note_on', channel=0, note=71, velocity=66, time=0),\n",
      "  Message('control_change', channel=0, control=64, value=0, time=14799),\n",
      "  Message('note_off', channel=0, note=62, velocity=54, time=7969),\n",
      "  Message('note_off', channel=0, note=47, velocity=52, time=0),\n",
      "  Message('note_off', channel=0, note=54, velocity=52, time=0),\n",
      "  Message('note_off', channel=0, note=71, velocity=66, time=0),\n",
      "  Message('note_on', channel=0, note=67, velocity=36, time=0),\n",
      "  Message('note_on', channel=0, note=62, velocity=36, time=0),\n",
      "  Message('note_on', channel=0, note=73, velocity=77, time=0),\n",
      "  Message('note_on', channel=0, note=47, velocity=31, time=0),\n",
      "  Message('note_on', channel=0, note=53, velocity=31, time=0),\n",
      "  Message('control_change', channel=0, control=64, value=127, time=6314),\n",
      "  Message('note_off', channel=0, note=73, velocity=77, time=29766),\n",
      "  Message('note_on', channel=0, note=71, velocity=66, time=0),\n",
      "  Message('control_change', channel=0, control=64, value=0, time=30694),\n",
      "  Message('note_off', channel=0, note=67, velocity=36, time=7874),\n",
      "  Message('note_off', channel=0, note=62, velocity=36, time=0),\n",
      "  Message('note_off', channel=0, note=47, velocity=31, time=0),\n",
      "  Message('note_off', channel=0, note=53, velocity=31, time=0),\n",
      "  Message('note_off', channel=0, note=71, velocity=66, time=0),\n",
      "  Message('note_on', channel=0, note=74, velocity=75, time=0),\n",
      "  Message('note_on', channel=0, note=62, velocity=54, time=0),\n",
      "  Message('note_on', channel=0, note=47, velocity=48, time=0),\n",
      "  Message('control_change', channel=0, control=64, value=127, time=3378),\n",
      "  Message('note_off', channel=0, note=74, velocity=75, time=31872),\n",
      "  Message('note_on', channel=0, note=66, velocity=66, time=0),\n",
      "  Message('note_off', channel=0, note=47, velocity=48, time=19051),\n",
      "  Message('note_on', channel=0, note=54, velocity=44, time=0),\n",
      "  Message('note_on', channel=0, note=67, velocity=57, time=9525),\n",
      "  Message('note_off', channel=0, note=62, velocity=54, time=9525),\n",
      "  Message('note_off', channel=0, note=66, velocity=66, time=0),\n",
      "  Message('note_off', channel=0, note=54, velocity=44, time=0),\n",
      "  Message('note_off', channel=0, note=67, velocity=57, time=0),\n",
      "  Message('note_on', channel=0, note=66, velocity=65, time=0),\n",
      "  Message('note_on', channel=0, note=62, velocity=49, time=0),\n",
      "  Message('control_change', channel=0, control=64, value=0, time=881),\n",
      "  Message('control_change', channel=0, control=64, value=127, time=4112),\n",
      "  Message('note_off', channel=0, note=66, velocity=65, time=18506),\n",
      "  Message('note_on', channel=0, note=65, velocity=61, time=0),\n",
      "  Message('note_off', channel=0, note=62, velocity=49, time=11750),\n",
      "  Message('note_on', channel=0, note=54, velocity=41, time=0),\n",
      "  Message('note_off', channel=0, note=65, velocity=61, time=11750),\n",
      "  Message('note_on', channel=0, note=66, velocity=67, time=0),\n",
      "  Message('control_change', channel=0, control=64, value=0, time=15066),\n",
      "  Message('note_off', channel=0, note=54, velocity=41, time=9785),\n",
      "  Message('note_off', channel=0, note=66, velocity=67, time=0),\n",
      "  Message('note_on', channel=0, note=62, velocity=50, time=0),\n",
      "  Message('note_on', channel=0, note=67, velocity=71, time=0),\n",
      "  Message('note_on', channel=0, note=47, velocity=51, time=0),\n",
      "  Message('control_change', channel=0, control=64, value=127, time=0),\n",
      "  Message('note_off', channel=0, note=67, velocity=71, time=23186),\n",
      "  Message('note_on', channel=0, note=71, velocity=66, time=0),\n",
      "  Message('note_off', channel=0, note=71, velocity=66, time=22578),\n",
      "  Message('note_on', channel=0, note=74, velocity=68, time=0),\n",
      "  Message('note_off', channel=0, note=47, velocity=51, time=5835),\n",
      "  Message('note_on', channel=0, note=55, velocity=42, time=0),\n",
      "  Message('control_change', channel=0, control=64, value=0, time=16485),\n",
      "  Message('note_off', channel=0, note=62, velocity=50, time=1021),\n",
      "  Message('note_off', channel=0, note=74, velocity=68, time=0),\n",
      "  Message('note_off', channel=0, note=55, velocity=42, time=0),\n",
      "  Message('note_on', channel=0, note=73, velocity=71, time=0),\n",
      "  Message('note_on', channel=0, note=62, velocity=46, time=0),\n",
      "  Message('control_change', channel=0, control=64, value=127, time=7148),\n",
      "  Message('note_off', channel=0, note=73, velocity=71, time=27864),\n",
      "  Message('note_off', channel=0, note=62, velocity=46, time=0),\n",
      "  Message('note_on', channel=0, note=71, velocity=66, time=0),\n",
      "  Message('note_on', channel=0, note=55, velocity=45, time=0),\n",
      "  Message('control_change', channel=0, control=64, value=0, time=24291),\n",
      "  Message('note_off', channel=0, note=71, velocity=66, time=11696),\n",
      "  Message('note_off', channel=0, note=55, velocity=45, time=0),\n",
      "  Message('note_on', channel=0, note=74, velocity=72, time=0),\n",
      "  Message('note_on', channel=0, note=62, velocity=51, time=0),\n",
      "  Message('note_on', channel=0, note=66, velocity=51, time=0),\n",
      "  Message('note_on', channel=0, note=47, velocity=49, time=0),\n",
      "  Message('control_change', channel=0, control=64, value=127, time=869),\n",
      "  Message('note_off', channel=0, note=47, velocity=49, time=22316),\n",
      "  Message('note_on', channel=0, note=53, velocity=45, time=0),\n",
      "  Message('note_off', channel=0, note=53, velocity=45, time=23186),\n",
      "  Message('note_on', channel=0, note=54, velocity=45, time=0),\n",
      "  Message('note_off', channel=0, note=54, velocity=45, time=24159),\n",
      "  Message('note_on', channel=0, note=59, velocity=51, time=0),\n",
      "  Message('control_change', channel=0, control=64, value=0, time=31859),\n",
      "  Message('note_off', channel=0, note=74, velocity=72, time=4379),\n",
      "  Message('note_off', channel=0, note=62, velocity=51, time=0),\n",
      "  Message('note_off', channel=0, note=66, velocity=51, time=0),\n",
      "  Message('note_off', channel=0, note=59, velocity=51, time=0),\n",
      "  Message('note_on', channel=0, note=68, velocity=54, time=0),\n",
      "  Message('note_on', channel=0, note=78, velocity=68, time=0),\n",
      "  Message('note_on', channel=0, note=62, velocity=52, time=0),\n",
      "  Message('control_change', channel=0, control=64, value=127, time=4158),\n",
      "  Message('note_off', channel=0, note=68, velocity=54, time=34225),\n",
      "  Message('note_off', channel=0, note=78, velocity=68, time=0),\n",
      "  Message('note_off', channel=0, note=62, velocity=52, time=0),\n",
      "  Message('note_on', channel=0, note=69, velocity=51, time=0),\n",
      "  Message('note_on', channel=0, note=78, velocity=72, time=0),\n",
      "  Message('note_on', channel=0, note=61, velocity=56, time=0),\n",
      "  Message('note_off', channel=0, note=69, velocity=51, time=22876),\n",
      "  Message('note_off', channel=0, note=78, velocity=72, time=0),\n",
      "  Message('note_on', channel=0, note=76, velocity=67, time=0),\n",
      "  Message('note_off', channel=0, note=61, velocity=56, time=23823),\n",
      "  Message('note_off', channel=0, note=76, velocity=67, time=0),\n",
      "  Message('note_on', channel=0, note=67, velocity=55, time=0),\n",
      "  Message('note_on', channel=0, note=73, velocity=67, time=0),\n",
      "  Message('note_on', channel=0, note=58, velocity=51, time=0),\n",
      "  Message('control_change', channel=0, control=64, value=0, time=14913),\n",
      "  Message('note_off', channel=0, note=67, velocity=55, time=8030),\n",
      "  Message('note_off', channel=0, note=73, velocity=67, time=0),\n",
      "  Message('note_off', channel=0, note=58, velocity=51, time=0),\n",
      "  Message('note_on', channel=0, note=68, velocity=50, time=0),\n",
      "  Message('note_on', channel=0, note=74, velocity=73, time=0),\n",
      "  Message('note_on', channel=0, note=59, velocity=52, time=0),\n",
      "  Message('control_change', channel=0, control=64, value=127, time=6523),\n",
      "  Message('note_off', channel=0, note=74, velocity=73, time=30753),\n",
      "  Message('note_off', channel=0, note=59, velocity=52, time=0),\n",
      "  Message('note_on', channel=0, note=71, velocity=65, time=0),\n",
      "  Message('note_on', channel=0, note=62, velocity=47, time=0),\n",
      "  Message('control_change', channel=0, control=64, value=0, time=31722),\n",
      "  Message('note_off', channel=0, note=68, velocity=50, time=8138),\n",
      "  Message('note_off', channel=0, note=71, velocity=65, time=0),\n",
      "  Message('note_off', channel=0, note=62, velocity=47, time=0),\n",
      "  Message('note_on', channel=0, note=69, velocity=49, time=0),\n",
      "  Message('note_on', channel=0, note=76, velocity=72, time=0),\n",
      "  Message('note_on', channel=0, note=64, velocity=47, time=0),\n",
      "  Message('note_on', channel=0, note=61, velocity=50, time=0),\n",
      "  Message('control_change', channel=0, control=64, value=127, time=3378),\n",
      "  Message('note_off', channel=0, note=76, velocity=72, time=31872),\n",
      "  Message('note_on', channel=0, note=73, velocity=66, time=0),\n",
      "  Message('control_change', channel=0, control=64, value=0, time=30005),\n",
      "  Message('note_off', channel=0, note=69, velocity=49, time=8097),\n",
      "  Message('note_off', channel=0, note=64, velocity=47, time=0),\n",
      "  Message('note_off', channel=0, note=61, velocity=50, time=0),\n",
      "  Message('note_off', channel=0, note=73, velocity=66, time=0),\n",
      "  Message('note_on', channel=0, note=61, velocity=46, time=0),\n",
      "  Message('note_on', channel=0, note=66, velocity=46, time=0),\n",
      "  Message('note_on', channel=0, note=69, velocity=64, time=0),\n",
      "  Message('note_on', channel=0, note=54, velocity=48, time=0),\n",
      "  Message('control_change', channel=0, control=64, value=127, time=4994),\n",
      "  Message('note_off', channel=0, note=69, velocity=64, time=18506),\n",
      "  Message('note_on', channel=0, note=71, velocity=64, time=0),\n",
      "  Message('note_off', channel=0, note=71, velocity=64, time=23500),\n",
      "  Message('note_on', channel=0, note=73, velocity=71, time=0),\n",
      "  Message('control_change', channel=0, control=64, value=0, time=14749),\n",
      "  Message('note_off', channel=0, note=61, velocity=46, time=9579),\n",
      "  Message('note_off', channel=0, note=66, velocity=46, time=0),\n",
      "  Message('note_off', channel=0, note=54, velocity=48, time=0),\n",
      "  Message('note_off', channel=0, note=73, velocity=71, time=0),\n",
      "  Message('note_on', channel=0, note=69, velocity=36, time=0),\n",
      "  Message('note_on', channel=0, note=62, velocity=38, time=0),\n",
      "  Message('note_on', channel=0, note=76, velocity=72, time=0),\n",
      "  Message('note_on', channel=0, note=47, velocity=36, time=0),\n",
      "  Message('note_on', channel=0, note=53, velocity=36, time=0),\n",
      "  Message('control_change', channel=0, control=64, value=127, time=0),\n",
      "  Message('note_off', channel=0, note=76, velocity=72, time=22288),\n",
      "  Message('note_on', channel=0, note=74, velocity=68, time=0),\n",
      "  Message('note_off', channel=0, note=74, velocity=68, time=23485),\n",
      "  Message('note_on', channel=0, note=73, velocity=65, time=0),\n",
      "  Message('control_change', channel=0, control=64, value=0, time=23188),\n",
      "  Message('note_off', channel=0, note=69, velocity=36, time=1061),\n",
      "  Message('note_off', channel=0, note=62, velocity=38, time=0),\n",
      "  Message('note_off', channel=0, note=47, velocity=36, time=0),\n",
      "  Message('note_off', channel=0, note=53, velocity=36, time=0),\n",
      "  Message('note_off', channel=0, note=73, velocity=65, time=0),\n",
      "  Message('note_on', channel=0, note=73, velocity=66, time=0),\n",
      "  Message('note_on', channel=0, note=68, velocity=47, time=0),\n",
      "  Message('note_on', channel=0, note=62, velocity=47, time=0),\n",
      "  Message('note_on', channel=0, note=40, velocity=49, time=0),\n",
      "  Message('control_change', channel=0, control=64, value=127, time=7611),\n",
      "  Message('note_off', channel=0, note=73, velocity=66, time=29666),\n",
      "  Message('note_off', channel=0, note=40, velocity=49, time=0),\n",
      "  Message('note_on', channel=0, note=71, velocity=59, time=0),\n",
      "  Message('note_on', channel=0, note=52, velocity=42, time=0),\n",
      "  Message('control_change', channel=0, control=64, value=0, time=25909),\n",
      "  Message('note_off', channel=0, note=68, velocity=47, time=12474),\n",
      "  Message('note_off', channel=0, note=62, velocity=47, time=0),\n",
      "  Message('note_off', channel=0, note=71, velocity=59, time=0),\n",
      "  Message('note_off', channel=0, note=52, velocity=42, time=0),\n",
      "  Message('note_on', channel=0, note=61, velocity=46, time=0),\n",
      "  Message('note_on', channel=0, note=69, velocity=62, time=0),\n",
      "  Message('note_on', channel=0, note=45, velocity=47, time=0),\n",
      "  Message('control_change', channel=0, control=64, value=127, time=960),\n",
      "  Message('note_off', channel=0, note=45, velocity=47, time=24629),\n",
      "  Message('note_on', channel=0, note=56, velocity=45, time=0),\n",
      "  Message('control_change', channel=0, control=64, value=0, time=4318),\n",
      "  Message('note_off', channel=0, note=56, velocity=45, time=21271),\n",
      "  Message('note_on', channel=0, note=57, velocity=43, time=0),\n",
      "  Message('note_off', channel=0, note=61, velocity=46, time=14513),\n",
      "  Message('note_on', channel=0, note=61, velocity=36, time=0),\n",
      "  Message('note_off', channel=0, note=69, velocity=62, time=8473),\n",
      "  Message('note_off', channel=0, note=57, velocity=43, time=0),\n",
      "  Message('note_off', channel=0, note=61, velocity=36, time=0),\n",
      "  Message('note_on', channel=0, note=59, velocity=39, time=0),\n",
      "  Message('note_off', channel=0, note=59, velocity=39, time=38568),\n",
      "  Message('note_on', channel=0, note=57, velocity=42, time=0),\n",
      "  Message('note_off', channel=0, note=57, velocity=42, time=41812),\n",
      "  Message('note_on', channel=0, note=57, velocity=41, time=0),\n",
      "  Message('note_on', channel=0, note=62, velocity=41, time=0),\n",
      "  Message('note_on', channel=0, note=66, velocity=69, time=0),\n",
      "  Message('note_on', channel=0, note=50, velocity=39, time=0),\n",
      "  Message('control_change', channel=0, control=64, value=127, time=0),\n",
      "  Message('note_off', channel=0, note=66, velocity=69, time=20808),\n",
      "  Message('note_on', channel=0, note=66, velocity=60, time=0),\n",
      "  Message('note_off', channel=0, note=66, velocity=60, time=20808),\n",
      "  Message('note_on', channel=0, note=66, velocity=56, time=0),\n",
      "  Message('note_off', channel=0, note=57, velocity=41, time=6214),\n",
      "  Message('note_off', channel=0, note=62, velocity=41, time=0),\n",
      "  Message('note_off', channel=0, note=66, velocity=56, time=9321),\n",
      "  Message('note_on', channel=0, note=66, velocity=50, time=0),\n",
      "  Message('note_on', channel=0, note=56, velocity=38, time=0),\n",
      "  Message('control_change', channel=0, control=64, value=0, time=1252),\n",
      "  Message('note_off', channel=0, note=66, velocity=50, time=2921),\n",
      "  Message('note_on', channel=0, note=69, velocity=45, time=0),\n",
      "  Message('note_off', channel=0, note=50, velocity=39, time=4173),\n",
      "  Message('note_off', channel=0, note=56, velocity=38, time=0),\n",
      "  Message('note_off', channel=0, note=69, velocity=45, time=0),\n",
      "  Message('note_on', channel=0, note=67, velocity=58, time=0),\n",
      "  Message('note_on', channel=0, note=57, velocity=44, time=0),\n",
      "  Message('control_change', channel=0, control=64, value=127, time=7067),\n",
      "  Message('note_off', channel=0, note=67, velocity=58, time=30354),\n",
      "  Message('note_off', channel=0, note=57, velocity=44, time=0),\n",
      "  Message('note_on', channel=0, note=66, velocity=59, time=0),\n",
      "  Message('note_on', channel=0, note=45, velocity=42, time=0),\n",
      "  Message('control_change', channel=0, control=64, value=0, time=32465),\n",
      "  Message('note_off', channel=0, note=66, velocity=59, time=6493),\n",
      "  Message('note_off', channel=0, note=45, velocity=42, time=0),\n",
      "  Message('note_on', channel=0, note=62, velocity=34, time=0),\n",
      "  Message('note_on', channel=0, note=57, velocity=34, time=0),\n",
      "  Message('note_on', channel=0, note=66, velocity=34, time=0),\n",
      "  Message('note_on', channel=0, note=69, velocity=60, time=0),\n",
      "  Message('note_on', channel=0, note=50, velocity=35, time=0),\n",
      "  Message('control_change', channel=0, control=64, value=127, time=0),\n",
      "  Message('note_on', channel=0, note=56, velocity=41, time=59452),\n",
      "  Message('control_change', channel=0, control=64, value=0, time=1234),\n",
      "  Message('note_off', channel=0, note=57, velocity=34, time=6991),\n",
      "  Message('note_off', channel=0, note=50, velocity=35, time=0),\n",
      "  Message('note_off', channel=0, note=56, velocity=41, time=0),\n",
      "  Message('note_on', channel=0, note=57, velocity=45, time=0),\n",
      "  Message('control_change', channel=0, control=64, value=127, time=7197),\n",
      "  Message('note_off', channel=0, note=62, velocity=34, time=30354),\n",
      "  Message('note_off', channel=0, note=66, velocity=34, time=0),\n",
      "  Message('note_off', channel=0, note=69, velocity=60, time=0),\n",
      "  Message('note_off', channel=0, note=57, velocity=45, time=0),\n",
      "  Message('note_on', channel=0, note=66, velocity=54, time=0),\n",
      "  Message('note_on', channel=0, note=74, velocity=64, time=0),\n",
      "  Message('note_on', channel=0, note=45, velocity=45, time=0),\n",
      "  Message('note_off', channel=0, note=74, velocity=64, time=19051),\n",
      "  Message('note_on', channel=0, note=76, velocity=70, time=0),\n",
      "  Message('control_change', channel=0, control=64, value=0, time=14274),\n",
      "  Message('note_off', channel=0, note=66, velocity=54, time=7137),\n",
      "  Message('note_off', channel=0, note=45, velocity=45, time=0),\n",
      "  Message('note_off', channel=0, note=76, velocity=70, time=0),\n",
      "  Message('note_on', channel=0, note=78, velocity=75, time=0),\n",
      "  Message('note_on', channel=0, note=50, velocity=47, time=0),\n",
      "  Message('control_change', channel=0, control=64, value=127, time=0),\n",
      "  Message('note_off', channel=0, note=78, velocity=75, time=51134),\n",
      "  Message('note_on', channel=0, note=73, velocity=64, time=0),\n",
      "  Message('note_on', channel=0, note=76, velocity=54, time=8222),\n",
      "  Message('note_on', channel=0, note=56, velocity=45, time=0),\n",
      "  Message('control_change', channel=0, control=64, value=0, time=1222),\n",
      "  Message('note_off', channel=0, note=50, velocity=47, time=6925),\n",
      "  Message('note_off', channel=0, note=73, velocity=64, time=0),\n",
      "  Message('note_off', channel=0, note=76, velocity=54, time=0),\n",
      "  Message('note_off', channel=0, note=56, velocity=45, time=0),\n",
      "  Message('note_on', channel=0, note=74, velocity=72, time=0),\n",
      "  Message('note_on', channel=0, note=57, velocity=50, time=0),\n",
      "  Message('control_change', channel=0, control=64, value=127, time=6806),\n",
      "  Message('note_off', channel=0, note=74, velocity=72, time=28702),\n",
      "  Message('note_off', channel=0, note=57, velocity=50, time=0),\n",
      "  Message('note_on', channel=0, note=65, velocity=45, time=0),\n",
      "  Message('note_on', channel=0, note=71, velocity=66, time=0),\n",
      "  Message('note_on', channel=0, note=51, velocity=44, time=0),\n",
      "  Message('note_off', channel=0, note=65, velocity=45, time=20564),\n",
      "  Message('note_on', channel=0, note=66, velocity=47, time=0),\n",
      "  Message('control_change', channel=0, control=64, value=0, time=14395),\n",
      "  Message('note_off', channel=0, note=71, velocity=66, time=7197),\n",
      "  Message('note_off', channel=0, note=51, velocity=44, time=0),\n",
      "  Message('note_off', channel=0, note=66, velocity=47, time=0),\n",
      "  Message('note_on', channel=0, note=61, velocity=48, time=0),\n",
      "  Message('note_on', channel=0, note=67, velocity=57, time=0),\n",
      "  Message('note_on', channel=0, note=52, velocity=44, time=0),\n",
      "  Message('control_change', channel=0, control=64, value=127, time=7197),\n",
      "  Message('control_change', channel=0, control=64, value=0, time=53434),\n",
      "  Message('note_on', channel=0, note=58, velocity=40, time=408),\n",
      "  Message('note_off', channel=0, note=52, velocity=44, time=8164),\n",
      "  Message('note_off', channel=0, note=58, velocity=40, time=0),\n",
      "  Message('note_on', channel=0, note=59, velocity=45, time=0),\n",
      "  Message('control_change', channel=0, control=64, value=127, time=6946),\n",
      "  Message('note_off', channel=0, note=61, velocity=48, time=29292),\n",
      "  Message('note_off', channel=0, note=67, velocity=57, time=0),\n",
      "  Message('note_off', channel=0, note=59, velocity=45, time=0),\n",
      "  Message('note_on', channel=0, note=64, velocity=50, time=0),\n",
      "  Message('note_on', channel=0, note=67, velocity=60, time=0),\n",
      "  Message('note_on', channel=0, note=55, velocity=44, time=0),\n",
      "  Message('note_off', channel=0, note=64, velocity=50, time=19796),\n",
      "  Message('note_off', channel=0, note=67, velocity=60, time=0),\n",
      "  Message('note_off', channel=0, note=55, velocity=44, time=0),\n",
      "  Message('note_on', channel=0, note=66, velocity=53, time=0),\n",
      "  Message('note_on', channel=0, note=70, velocity=63, time=0),\n",
      "  Message('note_on', channel=0, note=52, velocity=39, time=0),\n",
      "  Message('control_change', channel=0, control=64, value=0, time=13682),\n",
      "  Message('note_off', channel=0, note=66, velocity=53, time=6841),\n",
      "  Message('note_off', channel=0, note=70, velocity=63, time=0),\n",
      "  Message('note_off', channel=0, note=52, velocity=39, time=0),\n",
      "  Message('note_on', channel=0, note=67, velocity=57, time=0),\n",
      "  Message('note_on', channel=0, note=71, velocity=68, time=0),\n",
      "  Message('note_on', channel=0, note=49, velocity=44, time=0),\n",
      "  Message('control_change', channel=0, control=64, value=127, time=7197),\n",
      "  Message('note_off', channel=0, note=67, velocity=57, time=45678),\n",
      "  Message('note_off', channel=0, note=71, velocity=68, time=0),\n",
      "  Message('note_off', channel=0, note=49, velocity=44, time=0),\n",
      "  Message('note_on', channel=0, note=70, velocity=56, time=0),\n",
      "  Message('note_on', channel=0, note=73, velocity=67, time=0),\n",
      "  Message('note_on', channel=0, note=59, velocity=45, time=0),\n",
      "  Message('control_change', channel=0, control=64, value=0, time=8606),\n",
      "  Message('note_off', channel=0, note=70, velocity=56, time=9512),\n",
      "  Message('note_off', channel=0, note=73, velocity=67, time=0),\n",
      "  Message('note_off', channel=0, note=59, velocity=45, time=0),\n",
      "  Message('note_on', channel=0, note=76, velocity=70, time=0),\n",
      "  Message('note_on', channel=0, note=73, velocity=54, time=0),\n",
      "  Message('note_on', channel=0, note=67, velocity=50, time=0),\n",
      "  Message('control_change', channel=0, control=64, value=127, time=6946),\n",
      "  Message('note_off', channel=0, note=76, velocity=70, time=29292),\n",
      "  Message('note_off', channel=0, note=73, velocity=54, time=0),\n",
      "  Message('note_off', channel=0, note=67, velocity=50, time=0),\n",
      "  Message('note_on', channel=0, note=74, velocity=67, time=0),\n",
      "  Message('note_on', channel=0, note=67, velocity=45, time=0),\n",
      "  Message('note_on', channel=0, note=64, velocity=45, time=0),\n",
      "  Message('note_on', channel=0, note=59, velocity=44, time=0),\n",
      "  Message('control_change', channel=0, control=64, value=0, time=32704),\n",
      "  Message('note_off', channel=0, note=74, velocity=67, time=6541),\n",
      "  Message('note_off', channel=0, note=67, velocity=45, time=0),\n",
      "  Message('note_off', channel=0, note=64, velocity=45, time=0),\n",
      "  Message('note_off', channel=0, note=59, velocity=44, time=0),\n",
      "  Message('note_on', channel=0, note=64, velocity=47, time=0),\n",
      "  Message('note_on', channel=0, note=66, velocity=47, time=0),\n",
      "  Message('note_on', channel=0, note=70, velocity=47, time=0),\n",
      "  Message('note_on', channel=0, note=74, velocity=70, time=0),\n",
      "  Message('note_on', channel=0, note=42, velocity=44, time=0),\n",
      "  Message('control_change', channel=0, control=64, value=127, time=7741),\n",
      "  Message('note_off', channel=0, note=74, velocity=70, time=30174),\n",
      "  Message('note_on', channel=0, note=73, velocity=64, time=0),\n",
      "  Message('control_change', channel=0, control=64, value=0, time=29110),\n",
      "  Message('note_on', channel=0, note=53, velocity=42, time=414),\n",
      "  Message('note_off', channel=0, note=64, velocity=47, time=8285),\n",
      "  Message('note_off', channel=0, note=66, velocity=47, time=0),\n",
      "  Message('note_off', channel=0, note=70, velocity=47, time=0),\n",
      "  Message('note_off', channel=0, note=42, velocity=44, time=0),\n",
      "  Message('note_off', channel=0, note=73, velocity=64, time=0),\n",
      "  Message('note_off', channel=0, note=53, velocity=42, time=0),\n",
      "  Message('note_on', channel=0, note=54, velocity=47, time=0),\n",
      "  Message('note_off', channel=0, note=54, velocity=47, time=35228),\n",
      "  Message('note_on', channel=0, note=66, velocity=56, time=0),\n",
      "  Message('note_on', channel=0, note=70, velocity=63, time=0),\n",
      "  Message('note_on', channel=0, note=64, velocity=49, time=0),\n",
      "  Message('note_off', channel=0, note=70, velocity=63, time=20564),\n",
      "  Message('note_off', channel=0, note=64, velocity=49, time=0),\n",
      "  Message('note_on', channel=0, note=72, velocity=68, time=0),\n",
      "  Message('note_on', channel=0, note=57, velocity=44, time=0),\n",
      "  Message('control_change', channel=0, control=64, value=0, time=13709),\n",
      "  Message('note_off', channel=0, note=66, velocity=56, time=6855),\n",
      "  Message('note_off', channel=0, note=72, velocity=68, time=0),\n",
      "  Message('note_off', channel=0, note=57, velocity=44, time=0),\n",
      "  Message('note_on', channel=0, note=73, velocity=75, time=0),\n",
      "  Message('note_on', channel=0, note=58, velocity=51, time=0),\n",
      "  Message('note_on', channel=0, note=66, velocity=51, time=0),\n",
      "  Message('control_change', channel=0, control=64, value=127, time=7197),\n",
      "  Message('note_off', channel=0, note=73, velocity=75, time=45678),\n",
      "  Message('note_on', channel=0, note=74, velocity=71, time=0),\n",
      "  Message('control_change', channel=0, control=64, value=0, time=8606),\n",
      "  Message('note_off', channel=0, note=58, velocity=51, time=9512),\n",
      "  Message('note_off', channel=0, note=66, velocity=51, time=0),\n",
      "  Message('note_off', channel=0, note=74, velocity=71, time=0),\n",
      "  Message('note_on', channel=0, note=78, velocity=76, time=0),\n",
      "  Message('note_on', channel=0, note=70, velocity=57, time=0),\n",
      "  Message('note_on', channel=0, note=54, velocity=48, time=0),\n",
      "  Message('control_change', channel=0, control=64, value=127, time=7146),\n",
      "  Message('note_off', channel=0, note=78, velocity=76, time=30137),\n",
      "  Message('note_on', channel=0, note=76, velocity=71, time=0),\n",
      "  Message('control_change', channel=0, control=64, value=0, time=31330),\n",
      "  Message('note_off', channel=0, note=70, velocity=57, time=6266),\n",
      "  Message('note_off', channel=0, note=54, velocity=48, time=0),\n",
      "  Message('note_off', channel=0, note=76, velocity=71, time=0),\n",
      "  Message('note_on', channel=0, note=65, velocity=55, time=0),\n",
      "  Message('note_on', channel=0, note=71, velocity=57, time=0),\n",
      "  Message('note_on', channel=0, note=73, velocity=65, time=0),\n",
      "  Message('note_on', channel=0, note=47, velocity=50, time=0),\n",
      "  Message('control_change', channel=0, control=64, value=127, time=7487),\n",
      "  Message('note_off', channel=0, note=65, velocity=55, time=29184),\n",
      "  Message('note_off', channel=0, note=73, velocity=65, time=0),\n",
      "  Message('note_on', channel=0, note=66, velocity=52, time=0),\n",
      "  Message('note_on', channel=0, note=74, velocity=70, time=0),\n",
      "  Message('note_on', channel=0, note=54, velocity=46, time=21240),\n",
      "  Message('control_change', channel=0, control=64, value=0, time=7871),\n",
      "  Message('note_off', channel=0, note=71, velocity=57, time=8699),\n",
      "  Message('note_off', channel=0, note=66, velocity=52, time=0),\n",
      "  Message('note_off', channel=0, note=74, velocity=70, time=0),\n",
      "  Message('note_off', channel=0, note=54, velocity=46, time=0),\n",
      "  Message('note_on', channel=0, note=62, velocity=50, time=0),\n",
      "  Message('note_off', channel=0, note=62, velocity=50, time=34682),\n",
      "  Message('note_on', channel=0, note=74, velocity=74, time=0),\n",
      "  Message('note_on', channel=0, note=54, velocity=46, time=0),\n",
      "  Message('note_off', channel=0, note=47, velocity=50, time=36373),\n",
      "  Message('note_off', channel=0, note=74, velocity=74, time=0),\n",
      "  Message('note_off', channel=0, note=54, velocity=46, time=0),\n",
      "  Message('note_on', channel=0, note=67, velocity=41, time=0),\n",
      "  Message('note_on', channel=0, note=71, velocity=41, time=0),\n",
      "  Message('note_on', channel=0, note=73, velocity=76, time=0),\n",
      "  Message('note_on', channel=0, note=47, velocity=51, time=0),\n",
      "  Message('control_change', channel=0, control=64, value=127, time=0),\n",
      "  Message('note_off', channel=0, note=73, velocity=76, time=22288),\n",
      "  Message('note_on', channel=0, note=76, velocity=68, time=0),\n",
      "  Message('note_off', channel=0, note=76, velocity=68, time=23485),\n",
      "  Message('note_on', channel=0, note=78, velocity=65, time=0),\n",
      "  Message('note_on', channel=0, note=55, velocity=45, time=6062),\n",
      "  Message('control_change', channel=0, control=64, value=0, time=17126),\n",
      "  Message('note_off', channel=0, note=78, velocity=65, time=1061),\n",
      "  Message('note_off', channel=0, note=55, velocity=45, time=0),\n",
      "  Message('note_on', channel=0, note=76, velocity=71, time=0),\n",
      "  Message('note_on', channel=0, note=61, velocity=50, time=0),\n",
      "  Message('control_change', channel=0, control=64, value=127, time=7611),\n",
      "  Message('note_off', channel=0, note=71, velocity=41, time=29666),\n",
      "  Message('note_off', channel=0, note=76, velocity=71, time=0),\n",
      "  Message('note_off', channel=0, note=61, velocity=50, time=0),\n",
      "  Message('note_on', channel=0, note=71, velocity=66, time=0),\n",
      "  Message('note_on', channel=0, note=55, velocity=47, time=0),\n",
      "  Message('control_change', channel=0, control=64, value=0, time=25909),\n",
      "  Message('note_off', channel=0, note=67, velocity=41, time=12474),\n",
      "  Message('note_off', channel=0, note=47, velocity=51, time=0),\n",
      "  Message('note_off', channel=0, note=71, velocity=66, time=0),\n",
      "  Message('note_off', channel=0, note=55, velocity=47, time=0),\n",
      "  Message('note_on', channel=0, note=66, velocity=50, time=0),\n",
      "  Message('note_on', channel=0, note=71, velocity=50, time=0),\n",
      "  Message('note_on', channel=0, note=74, velocity=71, time=0),\n",
      "  Message('note_on', channel=0, note=47, velocity=49, time=0),\n",
      "  Message('control_change', channel=0, control=64, value=127, time=917),\n",
      "  Message('note_on', channel=0, note=53, velocity=46, time=23531),\n",
      "  Message('control_change', channel=0, control=64, value=0, time=4126),\n",
      "  Message('note_off', channel=0, note=53, velocity=46, time=20322),\n",
      "  Message('note_on', channel=0, note=54, velocity=49, time=0),\n",
      "  Message('note_on', channel=0, note=57, velocity=47, time=14513),\n",
      "  Message('note_off', channel=0, note=54, velocity=49, time=8473),\n",
      "  Message('note_off', channel=0, note=57, velocity=47, time=0),\n",
      "  Message('note_on', channel=0, note=55, velocity=50, time=0),\n",
      "  Message('note_off', channel=0, note=74, velocity=71, time=37552),\n",
      "  Message('note_off', channel=0, note=55, velocity=50, time=0),\n",
      "  Message('note_on', channel=0, note=74, velocity=74, time=0),\n",
      "  Message('note_on', channel=0, note=54, velocity=46, time=0),\n",
      "  Message('note_off', channel=0, note=66, velocity=50, time=36373),\n",
      "  Message('note_off', channel=0, note=71, velocity=50, time=0),\n",
      "  Message('note_off', channel=0, note=47, velocity=49, time=0),\n",
      "  Message('note_off', channel=0, note=74, velocity=74, time=0),\n",
      "  Message('note_off', channel=0, note=54, velocity=46, time=0),\n",
      "  Message('note_on', channel=0, note=67, velocity=41, time=0),\n",
      "  Message('note_on', channel=0, note=71, velocity=41, time=0),\n",
      "  Message('note_on', channel=0, note=73, velocity=76, time=0),\n",
      "  Message('note_on', channel=0, note=47, velocity=51, time=0),\n",
      "  Message('control_change', channel=0, control=64, value=127, time=0),\n",
      "  Message('note_off', channel=0, note=73, velocity=76, time=22288),\n",
      "  Message('note_on', channel=0, note=76, velocity=71, time=0),\n",
      "  Message('note_off', channel=0, note=76, velocity=71, time=23485),\n",
      "  Message('note_on', channel=0, note=78, velocity=69, time=0),\n",
      "  Message('note_on', channel=0, note=55, velocity=50, time=6062),\n",
      "  Message('control_change', channel=0, control=64, value=0, time=17126),\n",
      "  Message('note_off', channel=0, note=78, velocity=69, time=1061),\n",
      "  Message('note_off', channel=0, note=55, velocity=50, time=0),\n",
      "  Message('note_on', channel=0, note=76, velocity=71, time=0),\n",
      "  Message('note_on', channel=0, note=61, velocity=54, time=0),\n",
      "  Message('control_change', channel=0, control=64, value=127, time=7611),\n",
      "  Message('note_off', channel=0, note=71, velocity=41, time=29666),\n",
      "  Message('note_off', channel=0, note=76, velocity=71, time=0),\n",
      "  Message('note_off', channel=0, note=61, velocity=54, time=0),\n",
      "  Message('note_on', channel=0, note=71, velocity=69, time=0),\n",
      "  Message('note_on', channel=0, note=55, velocity=47, time=0),\n",
      "  Message('control_change', channel=0, control=64, value=0, time=25909),\n",
      "  Message('note_off', channel=0, note=67, velocity=41, time=12474),\n",
      "  Message('note_off', channel=0, note=47, velocity=51, time=0),\n",
      "  Message('note_off', channel=0, note=71, velocity=69, time=0),\n",
      "  Message('note_off', channel=0, note=55, velocity=47, time=0),\n",
      "  Message('note_on', channel=0, note=66, velocity=50, time=0),\n",
      "  Message('note_on', channel=0, note=71, velocity=50, time=0),\n",
      "  Message('note_on', channel=0, note=74, velocity=71, time=0),\n",
      "  Message('note_on', channel=0, note=47, velocity=49, time=0),\n",
      "  Message('control_change', channel=0, control=64, value=127, time=917),\n",
      "  Message('note_on', channel=0, note=53, velocity=46, time=23531),\n",
      "  Message('control_change', channel=0, control=64, value=0, time=4126),\n",
      "  Message('note_off', channel=0, note=53, velocity=46, time=20322),\n",
      "  Message('note_on', channel=0, note=54, velocity=49, time=0),\n",
      "  Message('note_on', channel=0, note=57, velocity=45, time=14513),\n",
      "  Message('note_off', channel=0, note=54, velocity=49, time=8473),\n",
      "  Message('note_off', channel=0, note=57, velocity=45, time=0),\n",
      "  Message('note_on', channel=0, note=55, velocity=49, time=0),\n",
      "  Message('note_off', channel=0, note=74, velocity=71, time=37552),\n",
      "  Message('note_off', channel=0, note=55, velocity=49, time=0),\n",
      "  Message('note_on', channel=0, note=74, velocity=68, time=0),\n",
      "  Message('note_on', channel=0, note=54, velocity=43, time=0),\n",
      "  Message('note_off', channel=0, note=66, velocity=50, time=36373),\n",
      "  Message('note_off', channel=0, note=71, velocity=50, time=0),\n",
      "  Message('note_off', channel=0, note=47, velocity=49, time=0),\n",
      "  Message('note_off', channel=0, note=74, velocity=68, time=0),\n",
      "  Message('note_off', channel=0, note=54, velocity=43, time=0),\n",
      "  Message('note_on', channel=0, note=62, velocity=38, time=0),\n",
      "  Message('note_on', channel=0, note=66, velocity=38, time=0),\n",
      "  Message('note_on', channel=0, note=71, velocity=71, time=0),\n",
      "  Message('note_on', channel=0, note=44, velocity=48, time=0),\n",
      "  Message('control_change', channel=0, control=64, value=127, time=0),\n",
      "  Message('note_off', channel=0, note=71, velocity=71, time=22288),\n",
      "  Message('note_on', channel=0, note=73, velocity=68, time=0),\n",
      "  Message('note_off', channel=0, note=73, velocity=68, time=23485),\n",
      "  Message('note_on', channel=0, note=74, velocity=64, time=0),\n",
      "  Message('note_on', channel=0, note=49, velocity=36, time=6062),\n",
      "  Message('control_change', channel=0, control=64, value=0, time=17126),\n",
      "  Message('note_off', channel=0, note=74, velocity=64, time=1061),\n",
      "  Message('note_off', channel=0, note=49, velocity=36, time=0),\n",
      "  Message('note_on', channel=0, note=71, velocity=70, time=0),\n",
      "  Message('note_on', channel=0, note=50, velocity=42, time=0),\n",
      "  Message('control_change', channel=0, control=64, value=127, time=7611),\n",
      "  Message('note_off', channel=0, note=66, velocity=38, time=29666),\n",
      "  Message('note_off', channel=0, note=71, velocity=70, time=0),\n",
      "  Message('note_off', channel=0, note=50, velocity=42, time=0),\n",
      "  Message('note_on', channel=0, note=66, velocity=64, time=0),\n",
      "  Message('note_on', channel=0, note=56, velocity=40, time=0),\n",
      "  Message('control_change', channel=0, control=64, value=0, time=25909),\n",
      "  Message('note_off', channel=0, note=62, velocity=38, time=12474),\n",
      "  Message('note_off', channel=0, note=44, velocity=48, time=0),\n",
      "  Message('note_off', channel=0, note=66, velocity=64, time=0),\n",
      "  Message('note_off', channel=0, note=56, velocity=40, time=0),\n",
      "  Message('note_on', channel=0, note=66, velocity=47, time=0),\n",
      "  Message('note_on', channel=0, note=61, velocity=47, time=0),\n",
      "  Message('note_on', channel=0, note=70, velocity=68, time=0),\n",
      "  Message('note_on', channel=0, note=37, velocity=46, time=0),\n",
      "  Message('control_change', channel=0, control=64, value=127, time=917),\n",
      "  Message('note_off', channel=0, note=37, velocity=46, time=23531),\n",
      "  Message('note_on', channel=0, note=48, velocity=42, time=0),\n",
      "  Message('control_change', channel=0, control=64, value=0, time=4126),\n",
      "  Message('note_off', channel=0, note=48, velocity=42, time=20322),\n",
      "  Message('note_on', channel=0, note=49, velocity=41, time=0),\n",
      "  Message('note_on', channel=0, note=53, velocity=34, time=14513),\n",
      "  Message('note_off', channel=0, note=49, velocity=41, time=8473),\n",
      "  Message('note_off', channel=0, note=53, velocity=34, time=0),\n",
      "  Message('note_on', channel=0, note=51, velocity=39, time=0),\n",
      "  Message('note_off', channel=0, note=70, velocity=68, time=37552),\n",
      "  Message('note_off', channel=0, note=51, velocity=39, time=0),\n",
      "  Message('note_on', channel=0, note=70, velocity=57, time=0),\n",
      "  Message('note_on', channel=0, note=49, velocity=43, time=0),\n",
      "  Message('note_off', channel=0, note=66, velocity=47, time=36373),\n",
      "  Message('note_off', channel=0, note=61, velocity=47, time=0),\n",
      "  Message('note_off', channel=0, note=70, velocity=57, time=0),\n",
      "  Message('note_off', channel=0, note=49, velocity=43, time=0),\n",
      "  Message('note_on', channel=0, note=68, velocity=57, time=0),\n",
      "  Message('note_on', channel=0, note=65, velocity=36, time=0),\n",
      "  Message('note_on', channel=0, note=59, velocity=45, time=0),\n",
      "  Message('note_on', channel=0, note=49, velocity=45, time=0),\n",
      "  Message('control_change', channel=0, control=64, value=127, time=0),\n",
      "  Message('note_off', channel=0, note=68, velocity=57, time=22288),\n",
      "  Message('note_off', channel=0, note=59, velocity=45, time=0),\n",
      "  Message('note_on', channel=0, note=70, velocity=63, time=0),\n",
      "  Message('note_on', channel=0, note=61, velocity=46, time=0),\n",
      "  Message('note_off', channel=0, note=65, velocity=36, time=19278),\n",
      "  Message('note_on', channel=0, note=73, velocity=45, time=0),\n",
      "  Message('note_on', channel=0, note=65, velocity=28, time=0),\n",
      "  Message('note_off', channel=0, note=70, velocity=63, time=8670),\n",
      "  Message('note_off', channel=0, note=61, velocity=46, time=0),\n",
      "  Message('note_off', channel=0, note=73, velocity=45, time=0),\n",
      "  Message('note_on', channel=0, note=71, velocity=51, time=0),\n",
      "  Message('note_on', channel=0, note=63, velocity=32, time=0),\n",
      "  Message('control_change', channel=0, control=64, value=0, time=23188),\n",
      "  Message('note_off', channel=0, note=65, velocity=28, time=1061),\n",
      "  Message('note_off', channel=0, note=71, velocity=51, time=0),\n",
      "  Message('note_off', channel=0, note=63, velocity=32, time=0),\n",
      "  Message('note_on', channel=0, note=70, velocity=60, time=0),\n",
      "  Message('note_on', channel=0, note=61, velocity=40, time=0),\n",
      "  Message('control_change', channel=0, control=64, value=127, time=7676),\n",
      "  Message('note_off', channel=0, note=70, velocity=60, time=29920),\n",
      "  Message('note_off', channel=0, note=61, velocity=40, time=0),\n",
      "  Message('note_on', channel=0, note=68, velocity=52, time=0),\n",
      "  Message('note_on', channel=0, note=59, velocity=35, time=0),\n",
      "  Message('control_change', channel=0, control=64, value=0, time=25909),\n",
      "  Message('note_off', channel=0, note=49, velocity=45, time=12474),\n",
      "  Message('note_off', channel=0, note=68, velocity=52, time=0),\n",
      "  Message('note_off', channel=0, note=59, velocity=35, time=0),\n",
      "  Message('note_on', channel=0, note=73, velocity=58, time=0),\n",
      "  Message('note_on', channel=0, note=61, velocity=44, time=0),\n",
      "  Message('note_on', channel=0, note=66, velocity=44, time=0),\n",
      "  Message('note_on', channel=0, note=70, velocity=44, time=0),\n",
      "  Message('note_on', channel=0, note=42, velocity=41, time=0),\n",
      "  Message('control_change', channel=0, control=64, value=127, time=8709),\n",
      "  Message('control_change', channel=0, control=64, value=0, time=19864),\n",
      "  Message('note_on', channel=0, note=48, velocity=29, time=34835),\n",
      "  Message('note_off', channel=0, note=48, velocity=29, time=8473),\n",
      "  Message('note_on', channel=0, note=49, velocity=34, time=0),\n",
      "  Message('note_off', channel=0, note=73, velocity=58, time=37552),\n",
      "  Message('note_off', channel=0, note=61, velocity=44, time=0),\n",
      "  Message('note_off', channel=0, note=70, velocity=44, time=0),\n",
      "  Message('note_off', channel=0, note=49, velocity=34, time=0),\n",
      "  Message('note_on', channel=0, note=70, velocity=48, time=0),\n",
      "  Message('note_on', channel=0, note=61, velocity=36, time=0),\n",
      "  Message('note_off', channel=0, note=66, velocity=44, time=36373),\n",
      "  Message('note_off', channel=0, note=42, velocity=41, time=0),\n",
      "  Message('note_off', channel=0, note=70, velocity=48, time=0),\n",
      "  Message('note_off', channel=0, note=61, velocity=36, time=0),\n",
      "  Message('note_on', channel=0, note=71, velocity=48, time=0),\n",
      "  Message('note_on', channel=0, note=65, velocity=34, time=0),\n",
      "  Message('note_on', channel=0, note=42, velocity=45, time=0),\n",
      "  Message('control_change', channel=0, control=64, value=127, time=0),\n",
      "  Message('note_off', channel=0, note=71, velocity=48, time=22288),\n",
      "  Message('note_on', channel=0, note=73, velocity=53, time=0),\n",
      "  Message('note_off', channel=0, note=73, velocity=53, time=25629),\n",
      "  Message('note_on', channel=0, note=77, velocity=51, time=0),\n",
      "  Message('note_on', channel=0, note=49, velocity=36, time=6062),\n",
      "  Message('control_change', channel=0, control=64, value=0, time=17126),\n",
      "  Message('note_off', channel=0, note=77, velocity=51, time=1061),\n",
      "  Message('note_off', channel=0, note=49, velocity=36, time=0),\n",
      "  Message('note_on', channel=0, note=75, velocity=53, time=0),\n",
      "  Message('note_on', channel=0, note=59, velocity=38, time=0),\n",
      "  Message('control_change', channel=0, control=64, value=127, time=7611),\n",
      "  Message('note_off', channel=0, note=75, velocity=53, time=1709),\n",
      "  Message('note_on', channel=0, note=77, velocity=46, time=0),\n",
      "  Message('note_off', channel=0, note=77, velocity=46, time=9319),\n",
      "  Message('note_on', channel=0, note=75, velocity=46, time=0),\n",
      "  Message('note_off', channel=0, note=42, velocity=45, time=18638),\n",
      "  Message('note_off', channel=0, note=59, velocity=38, time=0),\n",
      "  Message('note_off', channel=0, note=75, velocity=46, time=0),\n",
      "  Message('note_on', channel=0, note=73, velocity=51, time=0),\n",
      "  Message('note_on', channel=0, note=54, velocity=33, time=0),\n",
      "  Message('control_change', channel=0, control=64, value=0, time=25909),\n",
      "  Message('note_off', channel=0, note=65, velocity=34, time=12474),\n",
      "  Message('note_off', channel=0, note=73, velocity=51, time=0),\n",
      "  Message('note_off', channel=0, note=54, velocity=33, time=0),\n",
      "  Message('note_on', channel=0, note=70, velocity=34, time=0),\n",
      "  Message('note_on', channel=0, note=61, velocity=48, time=0),\n",
      "  Message('note_on', channel=0, note=42, velocity=45, time=0),\n",
      "  Message('control_change', channel=0, control=64, value=127, time=0),\n",
      "  Message('note_off', channel=0, note=61, velocity=48, time=22288),\n",
      "  Message('note_on', channel=0, note=63, velocity=53, time=0),\n",
      "  Message('note_off', channel=0, note=63, velocity=53, time=25629),\n",
      "  Message('note_on', channel=0, note=65, velocity=51, time=0),\n",
      "  Message('note_on', channel=0, note=49, velocity=36, time=6062),\n",
      "  Message('control_change', channel=0, control=64, value=0, time=17126),\n",
      "  Message('note_off', channel=0, note=65, velocity=51, time=1061),\n",
      "  Message('note_off', channel=0, note=49, velocity=36, time=0),\n",
      "  Message('note_on', channel=0, note=63, velocity=47, time=0),\n",
      "  Message('note_on', channel=0, note=58, velocity=38, time=0),\n",
      "  Message('note_off', channel=0, note=63, velocity=47, time=7034),\n",
      "  Message('note_on', channel=0, note=65, velocity=37, time=0),\n",
      "  Message('control_change', channel=0, control=64, value=127, time=1583),\n",
      "  Message('note_off', channel=0, note=65, velocity=37, time=5452),\n",
      "  Message('note_on', channel=0, note=63, velocity=37, time=0),\n",
      "  Message('note_off', channel=0, note=63, velocity=37, time=14069),\n",
      "  Message('note_on', channel=0, note=61, velocity=40, time=0),\n",
      "  Message('note_off', channel=0, note=42, velocity=45, time=13435),\n",
      "  Message('note_off', channel=0, note=58, velocity=38, time=0),\n",
      "  Message('note_on', channel=0, note=49, velocity=33, time=0),\n",
      "  Message('note_off', channel=0, note=70, velocity=34, time=13435),\n",
      "  Message('note_off', channel=0, note=61, velocity=40, time=0),\n",
      "  Message('note_on', channel=0, note=70, velocity=47, time=0),\n",
      "  Message('note_on', channel=0, note=66, velocity=40, time=0),\n",
      "  Message('control_change', channel=0, control=64, value=0, time=13065),\n",
      "  Message('note_off', channel=0, note=49, velocity=33, time=12428),\n",
      "  Message('note_off', channel=0, note=70, velocity=47, time=0),\n",
      "  Message('note_off', channel=0, note=66, velocity=40, time=0),\n",
      "  Message('note_on', channel=0, note=71, velocity=34, time=0),\n",
      "  Message('note_on', channel=0, note=66, velocity=48, time=0),\n",
      "  Message('note_on', channel=0, note=42, velocity=45, time=0),\n",
      "  Message('control_change', channel=0, control=64, value=127, time=0),\n",
      "  Message('note_off', channel=0, note=66, velocity=48, time=22288),\n",
      "  Message('note_on', channel=0, note=65, velocity=52, time=0),\n",
      "  Message('note_off', channel=0, note=65, velocity=52, time=25629),\n",
      "  Message('note_on', channel=0, note=63, velocity=48, time=0),\n",
      "  Message('note_on', channel=0, note=49, velocity=36, time=6062),\n",
      "  Message('control_change', channel=0, control=64, value=0, time=17126),\n",
      "  Message('note_off', channel=0, note=71, velocity=34, time=1061),\n",
      "  Message('note_off', channel=0, note=63, velocity=48, time=0),\n",
      "  Message('note_off', channel=0, note=49, velocity=36, time=0),\n",
      "  Message('note_on', channel=0, note=65, velocity=46, time=0),\n",
      "  Message('note_on', channel=0, note=71, velocity=46, time=0),\n",
      "  Message('note_on', channel=0, note=56, velocity=38, time=0),\n",
      "  Message('control_change', channel=0, control=64, value=127, time=8617),\n",
      "  Message('note_off', channel=0, note=42, velocity=45, time=31948),\n",
      "  Message('note_off', channel=0, note=65, velocity=46, time=0),\n",
      "  Message('note_off', channel=0, note=56, velocity=38, time=0),\n",
      "  Message('note_on', channel=0, note=61, velocity=46, time=0),\n",
      "  Message('note_on', channel=0, note=49, velocity=33, time=0),\n",
      "  Message('control_change', channel=0, control=64, value=0, time=25909),\n",
      "  Message('note_off', channel=0, note=71, velocity=46, time=12474),\n",
      "  Message('note_off', channel=0, note=61, velocity=46, time=0),\n",
      "  Message('note_off', channel=0, note=49, velocity=33, time=0),\n",
      "  Message('note_on', channel=0, note=66, velocity=34, time=0),\n",
      "  Message('note_on', channel=0, note=70, velocity=48, time=0),\n",
      "  Message('note_on', channel=0, note=42, velocity=45, time=0),\n",
      "  Message('control_change', channel=0, control=64, value=127, time=0),\n",
      "  Message('note_off', channel=0, note=70, velocity=48, time=22288),\n",
      "  Message('note_on', channel=0, note=71, velocity=53, time=0),\n",
      "  Message('note_off', channel=0, note=71, velocity=53, time=22288),\n",
      "  Message('note_on', channel=0, note=72, velocity=54, time=0),\n",
      "  Message('note_on', channel=0, note=49, velocity=37, time=5965),\n",
      "  Message('control_change', channel=0, control=64, value=0, time=16852),\n",
      "  Message('note_off', channel=0, note=72, velocity=54, time=1044),\n",
      "  Message('note_off', channel=0, note=49, velocity=37, time=0),\n",
      "  Message('note_on', channel=0, note=73, velocity=57, time=0),\n",
      "  Message('note_on', channel=0, note=58, velocity=44, time=0),\n",
      "  Message('control_change', channel=0, control=64, value=127, time=8013),\n",
      "  Message('note_on', channel=0, note=77, velocity=46, time=8340),\n",
      "  Message('note_off', channel=0, note=73, velocity=57, time=9811),\n",
      "  Message('note_off', channel=0, note=77, velocity=46, time=0),\n",
      "  Message('note_on', channel=0, note=75, velocity=49, time=0),\n",
      "  Message('note_off', channel=0, note=42, velocity=45, time=14765),\n",
      "  Message('note_off', channel=0, note=58, velocity=44, time=0),\n",
      "  Message('note_on', channel=0, note=54, velocity=33, time=0),\n",
      "  Message('note_off', channel=0, note=75, velocity=49, time=12856),\n",
      "  Message('note_on', channel=0, note=73, velocity=48, time=0),\n",
      "  Message('control_change', channel=0, control=64, value=0, time=13178),\n",
      "  Message('note_off', channel=0, note=66, velocity=34, time=12535),\n",
      "  Message('note_off', channel=0, note=54, velocity=33, time=0),\n",
      "  Message('note_off', channel=0, note=73, velocity=48, time=0),\n",
      "  Message('note_on', channel=0, note=65, velocity=34, time=0),\n",
      "  Message('note_on', channel=0, note=71, velocity=48, time=0),\n",
      "  Message('note_on', channel=0, note=42, velocity=45, time=0),\n",
      "  Message('control_change', channel=0, control=64, value=127, time=0),\n",
      "  Message('note_off', channel=0, note=71, velocity=48, time=22288),\n",
      "  Message('note_on', channel=0, note=73, velocity=53, time=0),\n",
      "  Message('note_off', channel=0, note=73, velocity=53, time=25629),\n",
      "  Message('note_on', channel=0, note=77, velocity=51, time=0),\n",
      "  Message('note_on', channel=0, note=49, velocity=36, time=6062),\n",
      "  Message('control_change', channel=0, control=64, value=0, time=17126),\n",
      "  Message('note_off', channel=0, note=77, velocity=51, time=1061),\n",
      "  Message('note_off', channel=0, note=49, velocity=36, time=0),\n",
      "  Message('note_on', channel=0, note=75, velocity=55, time=0),\n",
      "  Message('note_on', channel=0, note=59, velocity=38, time=0),\n",
      "  Message('control_change', channel=0, control=64, value=127, time=7611),\n",
      "  Message('note_off', channel=0, note=75, velocity=55, time=1709),\n",
      "  Message('note_on', channel=0, note=77, velocity=48, time=0),\n",
      "  Message('note_off', channel=0, note=77, velocity=48, time=9319),\n",
      "  Message('note_on', channel=0, note=75, velocity=47, time=0),\n",
      "  Message('note_off', channel=0, note=42, velocity=45, time=18638),\n",
      "  Message('note_off', channel=0, note=59, velocity=38, time=0),\n",
      "  Message('note_off', channel=0, note=75, velocity=47, time=0),\n",
      "  Message('note_on', channel=0, note=73, velocity=51, time=0),\n",
      "  Message('note_on', channel=0, note=54, velocity=33, time=0),\n",
      "  Message('control_change', channel=0, control=64, value=0, time=25909),\n",
      "  Message('note_off', channel=0, note=65, velocity=34, time=12474),\n",
      "  Message('note_off', channel=0, note=73, velocity=51, time=0),\n",
      "  Message('note_off', channel=0, note=54, velocity=33, time=0),\n",
      "  Message('note_on', channel=0, note=66, velocity=44, time=0),\n",
      "  Message('note_on', channel=0, note=61, velocity=44, time=0),\n",
      "  Message('note_on', channel=0, note=70, velocity=52, time=0),\n",
      "  Message('note_on', channel=0, note=42, velocity=45, time=0),\n",
      "  Message('control_change', channel=0, control=64, value=127, time=8956),\n",
      "  Message('control_change', channel=0, control=64, value=0, time=64451),\n",
      "  Message('note_off', channel=0, note=66, velocity=44, time=3359),\n",
      "  Message('note_off', channel=0, note=61, velocity=44, time=0),\n",
      "  Message('note_off', channel=0, note=70, velocity=52, time=0),\n",
      "  Message('note_off', channel=0, note=42, velocity=45, time=0),\n",
      "  Message('note_on', channel=0, note=62, velocity=44, time=0),\n",
      "  Message('note_on', channel=0, note=66, velocity=44, time=0),\n",
      "  Message('note_on', channel=0, note=69, velocity=57, time=0),\n",
      "  Message('note_on', channel=0, note=50, velocity=35, time=0),\n",
      "  Message('note_on', channel=0, note=60, velocity=35, time=0),\n",
      "  Message('control_change', channel=0, control=64, value=127, time=8030),\n",
      "  Message('note_off', channel=0, note=69, velocity=57, time=14913),\n",
      "  Message('note_on', channel=0, note=74, velocity=50, time=0),\n",
      "  Message('note_off', channel=0, note=74, velocity=50, time=22943),\n",
      "  Message('note_on', channel=0, note=71, velocity=50, time=0),\n",
      "  Message('control_change', channel=0, control=64, value=0, time=10390),\n",
      "  Message('note_off', channel=0, note=62, velocity=44, time=14057),\n",
      "  Message('note_off', channel=0, note=66, velocity=44, time=0),\n",
      "  Message('note_off', channel=0, note=50, velocity=35, time=0),\n",
      "  Message('note_off', channel=0, note=60, velocity=35, time=0),\n",
      "  Message('note_off', channel=0, note=71, velocity=50, time=0),\n",
      "  Message('note_on', channel=0, note=62, velocity=40, time=0),\n",
      "  Message('note_on', channel=0, note=69, velocity=52, time=0),\n",
      "  Message('note_on', channel=0, note=55, velocity=38, time=0),\n",
      "  Message('note_on', channel=0, note=60, velocity=38, time=0),\n",
      "  Message('control_change', channel=0, control=64, value=127, time=7600),\n",
      "  Message('note_off', channel=0, note=69, velocity=52, time=15343),\n",
      "  Message('note_on', channel=0, note=67, velocity=44, time=0),\n",
      "  Message('note_off', channel=0, note=60, velocity=38, time=22943),\n",
      "  Message('note_off', channel=0, note=67, velocity=44, time=0),\n",
      "  Message('note_on', channel=0, note=74, velocity=44, time=0),\n",
      "  Message('note_on', channel=0, note=59, velocity=34, time=0),\n",
      "  Message('note_off', channel=0, note=62, velocity=40, time=24249),\n",
      "  Message('note_off', channel=0, note=55, velocity=38, time=0),\n",
      "  Message('note_off', channel=0, note=74, velocity=44, time=0),\n",
      "  Message('note_off', channel=0, note=59, velocity=34, time=0),\n",
      "  Message('note_on', channel=0, note=65, velocity=47, time=0),\n",
      "  Message('note_on', channel=0, note=61, velocity=35, time=0),\n",
      "  Message('note_on', channel=0, note=49, velocity=35, time=0),\n",
      "  Message('note_on', channel=0, note=59, velocity=35, time=0),\n",
      "  Message('control_change', channel=0, control=64, value=0, time=0),\n",
      "  Message('control_change', channel=0, control=64, value=127, time=21452),\n",
      "  Message('note_off', channel=0, note=65, velocity=47, time=14055),\n",
      "  Message('note_on', channel=0, note=73, velocity=49, time=0),\n",
      "  Message('control_change', channel=0, control=64, value=0, time=32113),\n",
      "  Message('note_off', channel=0, note=61, velocity=35, time=5483),\n",
      "  Message('note_off', channel=0, note=49, velocity=35, time=0),\n",
      "  Message('note_off', channel=0, note=59, velocity=35, time=0),\n",
      "  Message('note_off', channel=0, note=73, velocity=49, time=0),\n",
      "  Message('note_on', channel=0, note=61, velocity=44, time=0),\n",
      "  Message('note_on', channel=0, note=66, velocity=48, time=0),\n",
      "  Message('note_on', channel=0, note=54, velocity=37, time=0),\n",
      "  Message('note_on', channel=0, note=58, velocity=37, time=0),\n",
      "  Message('control_change', channel=0, control=64, value=127, time=9157),\n",
      "  Message('control_change', channel=0, control=64, value=0, time=65899),\n",
      "  Message('note_off', channel=0, note=61, velocity=44, time=3434),\n",
      "  Message('note_off', channel=0, note=66, velocity=48, time=0),\n",
      "  Message('note_off', channel=0, note=54, velocity=37, time=0),\n",
      "  Message('note_off', channel=0, note=58, velocity=37, time=0),\n",
      "  Message('note_on', channel=0, note=60, velocity=51, time=0),\n",
      "  Message('note_on', channel=0, note=63, velocity=51, time=0),\n",
      "  Message('note_on', channel=0, note=66, velocity=60, time=0),\n",
      "  Message('note_on', channel=0, note=47, velocity=35, time=0),\n",
      "  Message('note_on', channel=0, note=57, velocity=35, time=0),\n",
      "  Message('control_change', channel=0, control=64, value=127, time=8030),\n",
      "  Message('note_off', channel=0, note=66, velocity=60, time=14913),\n",
      "  Message('note_on', channel=0, note=69, velocity=53, time=0),\n",
      "  Message('note_off', channel=0, note=69, velocity=53, time=22943),\n",
      "  Message('note_on', channel=0, note=67, velocity=53, time=0),\n",
      "  Message('control_change', channel=0, control=64, value=0, time=10390),\n",
      "  Message('note_off', channel=0, note=60, velocity=51, time=14057),\n",
      "  Message('note_off', channel=0, note=63, velocity=51, time=0),\n",
      "  Message('note_off', channel=0, note=47, velocity=35, time=0),\n",
      "  Message('note_off', channel=0, note=57, velocity=35, time=0),\n",
      "  Message('note_off', channel=0, note=67, velocity=53, time=0),\n",
      "  Message('note_on', channel=0, note=59, velocity=47, time=0),\n",
      "  Message('note_on', channel=0, note=66, velocity=56, time=0),\n",
      "  Message('note_on', channel=0, note=52, velocity=45, time=0),\n",
      "  Message('note_on', channel=0, note=57, velocity=45, time=0),\n",
      "  Message('control_change', channel=0, control=64, value=127, time=7600),\n",
      "  Message('note_off', channel=0, note=66, velocity=56, time=15343),\n",
      "  Message('note_on', channel=0, note=64, velocity=51, time=0),\n",
      "  Message('note_off', channel=0, note=57, velocity=45, time=22943),\n",
      "  Message('note_off', channel=0, note=64, velocity=51, time=0),\n",
      "  Message('note_on', channel=0, note=71, velocity=50, time=0),\n",
      "  Message('note_on', channel=0, note=55, velocity=34, time=0),\n",
      "  Message('control_change', channel=0, control=64, value=0, time=24064),\n",
      "  Message('note_off', channel=0, note=59, velocity=47, time=3050),\n",
      "  Message('note_off', channel=0, note=52, velocity=45, time=0),\n",
      "  Message('note_off', channel=0, note=71, velocity=50, time=0),\n",
      "  Message('note_off', channel=0, note=55, velocity=34, time=0),\n",
      "  Message('note_on', channel=0, note=64, velocity=50, time=0),\n",
      "  Message('note_on', channel=0, note=61, velocity=42, time=0),\n",
      "  Message('note_on', channel=0, note=45, velocity=35, time=0),\n",
      "  Message('note_on', channel=0, note=55, velocity=35, time=0),\n",
      "  Message('control_change', channel=0, control=64, value=127, time=2509),\n",
      "  Message('note_off', channel=0, note=64, velocity=50, time=40509),\n",
      "  Message('note_on', channel=0, note=65, velocity=46, time=0),\n",
      "  Message('control_change', channel=0, control=64, value=0, time=41994),\n",
      "  Message('note_off', channel=0, note=61, velocity=42, time=7170),\n",
      "  Message('note_off', channel=0, note=45, velocity=35, time=0),\n",
      "  Message('note_off', channel=0, note=55, velocity=35, time=0),\n",
      "  Message('note_off', channel=0, note=65, velocity=46, time=0),\n",
      "  Message('note_on', channel=0, note=57, velocity=32, time=0),\n",
      "  Message('note_on', channel=0, note=62, velocity=32, time=0),\n",
      "  Message('note_on', channel=0, note=66, velocity=51, time=0),\n",
      "  Message('note_on', channel=0, note=38, velocity=28, time=0),\n",
      "  Message('control_change', channel=0, control=64, value=127, time=0),\n",
      "  Message('note_off', channel=0, note=66, velocity=51, time=22768),\n",
      "  Message('note_on', channel=0, note=66, velocity=49, time=0),\n",
      "  Message('note_off', channel=0, note=66, velocity=49, time=22768),\n",
      "  Message('note_on', channel=0, note=66, velocity=45, time=0),\n",
      "  Message('note_off', channel=0, note=57, velocity=32, time=6214),\n",
      "  Message('note_off', channel=0, note=62, velocity=32, time=0),\n",
      "  Message('note_off', channel=0, note=66, velocity=45, time=9321),\n",
      "  Message('note_on', channel=0, note=66, velocity=40, time=0),\n",
      "  Message('note_on', channel=0, note=56, velocity=33, time=0),\n",
      "  Message('control_change', channel=0, control=64, value=0, time=1252),\n",
      "  Message('note_off', channel=0, note=66, velocity=40, time=2921),\n",
      "  Message('note_on', channel=0, note=69, velocity=37, time=0),\n",
      "  Message('note_off', channel=0, note=38, velocity=28, time=4173),\n",
      "  Message('note_off', channel=0, note=56, velocity=33, time=0),\n",
      "  Message('note_off', channel=0, note=69, velocity=37, time=0),\n",
      "  Message('note_on', channel=0, note=67, velocity=53, time=0),\n",
      "  Message('note_on', channel=0, note=57, velocity=36, time=0),\n",
      "  Message('control_change', channel=0, control=64, value=127, time=7329),\n",
      "  Message('note_off', channel=0, note=67, velocity=53, time=30910),\n",
      "  Message('note_off', channel=0, note=57, velocity=36, time=0),\n",
      "  Message('note_on', channel=0, note=66, velocity=48, time=0),\n",
      "  Message('note_on', channel=0, note=45, velocity=35, time=0),\n",
      "  Message('control_change', channel=0, control=64, value=0, time=33588),\n",
      "  Message('note_off', channel=0, note=66, velocity=48, time=6718),\n",
      "  Message('note_off', channel=0, note=45, velocity=35, time=0),\n",
      "  Message('note_on', channel=0, note=66, velocity=30, time=0),\n",
      "  Message('note_on', channel=0, note=57, velocity=30, time=0),\n",
      "  Message('note_on', channel=0, note=62, velocity=30, time=0),\n",
      "  Message('note_on', channel=0, note=69, velocity=49, time=0),\n",
      "  Message('note_on', channel=0, note=38, velocity=28, time=0),\n",
      "  Message('control_change', channel=0, control=64, value=127, time=12238),\n",
      "  Message('note_on', channel=0, note=56, velocity=33, time=47214),\n",
      "  Message('control_change', channel=0, control=64, value=0, time=1234),\n",
      "  Message('note_off', channel=0, note=57, velocity=30, time=6991),\n",
      "  Message('note_off', channel=0, note=38, velocity=28, time=0),\n",
      "  Message('note_off', channel=0, note=56, velocity=33, time=0),\n",
      "  Message('note_on', channel=0, note=57, velocity=39, time=0),\n",
      "  Message('control_change', channel=0, control=64, value=127, time=7197),\n",
      "  Message('note_off', channel=0, note=66, velocity=30, time=30354),\n",
      "  Message('note_off', channel=0, note=62, velocity=30, time=0),\n",
      "  Message('note_off', channel=0, note=69, velocity=49, time=0),\n",
      "  Message('note_off', channel=0, note=57, velocity=39, time=0),\n",
      "  Message('note_on', channel=0, note=66, velocity=47, time=0),\n",
      "  Message('note_on', channel=0, note=74, velocity=51, time=0),\n",
      "  Message('note_on', channel=0, note=45, velocity=37, time=0),\n",
      "  Message('note_off', channel=0, note=74, velocity=51, time=19051),\n",
      "  Message('note_on', channel=0, note=76, velocity=57, time=0),\n",
      "  Message('control_change', channel=0, control=64, value=0, time=14274),\n",
      "  Message('note_off', channel=0, note=66, velocity=47, time=7137),\n",
      "  Message('note_off', channel=0, note=45, velocity=37, time=0),\n",
      "  Message('note_off', channel=0, note=76, velocity=57, time=0),\n",
      "  Message('note_on', channel=0, note=66, velocity=49, time=0),\n",
      "  Message('note_on', channel=0, note=78, velocity=60, time=0),\n",
      "  Message('note_on', channel=0, note=50, velocity=38, time=0),\n",
      "  Message('control_change', channel=0, control=64, value=127, time=0),\n",
      "  Message('note_off', channel=0, note=78, velocity=60, time=51134),\n",
      "  Message('note_on', channel=0, note=73, velocity=51, time=0),\n",
      "  Message('note_on', channel=0, note=76, velocity=42, time=8222),\n",
      "  Message('note_on', channel=0, note=56, velocity=33, time=0),\n",
      "  Message('control_change', channel=0, control=64, value=0, time=1222),\n",
      "  Message('note_off', channel=0, note=50, velocity=38, time=6925),\n",
      "  Message('note_off', channel=0, note=73, velocity=51, time=0),\n",
      "  Message('note_off', channel=0, note=76, velocity=42, time=0),\n",
      "  Message('note_off', channel=0, note=56, velocity=33, time=0),\n",
      "  Message('note_on', channel=0, note=74, velocity=58, time=0),\n",
      "  Message('note_on', channel=0, note=57, velocity=37, time=0),\n",
      "  Message('control_change', channel=0, control=64, value=127, time=6836),\n",
      "  Message('note_off', channel=0, note=66, velocity=49, time=28476),\n",
      "  Message('note_off', channel=0, note=74, velocity=58, time=0),\n",
      "  Message('note_off', channel=0, note=57, velocity=37, time=0),\n",
      "  Message('note_on', channel=0, note=71, velocity=52, time=0),\n",
      "  Message('note_on', channel=0, note=65, velocity=39, time=0),\n",
      "  Message('note_on', channel=0, note=51, velocity=36, time=0),\n",
      "  Message('note_off', channel=0, note=65, velocity=39, time=20564),\n",
      "  Message('note_on', channel=0, note=66, velocity=41, time=0),\n",
      "  Message('control_change', channel=0, control=64, value=0, time=14395),\n",
      "  Message('note_off', channel=0, note=71, velocity=52, time=7197),\n",
      "  Message('note_off', channel=0, note=51, velocity=36, time=0),\n",
      "  Message('note_off', channel=0, note=66, velocity=41, time=0),\n",
      "  Message('note_on', channel=0, note=61, velocity=42, time=0),\n",
      "  Message('note_on', channel=0, note=67, velocity=46, time=0),\n",
      "  Message('note_on', channel=0, note=52, velocity=36, time=0),\n",
      "  Message('control_change', channel=0, control=64, value=127, time=7197),\n",
      "  Message('control_change', channel=0, control=64, value=0, time=53434),\n",
      "  Message('note_on', channel=0, note=56, velocity=35, time=408),\n",
      "  Message('note_off', channel=0, note=52, velocity=36, time=8164),\n",
      "  Message('note_off', channel=0, note=56, velocity=35, time=0),\n",
      "  Message('note_on', channel=0, note=57, velocity=39, time=0),\n",
      "  Message('control_change', channel=0, control=64, value=127, time=6946),\n",
      "  Message('note_off', channel=0, note=61, velocity=42, time=29292),\n",
      "  Message('note_off', channel=0, note=67, velocity=46, time=0),\n",
      "  Message('note_off', channel=0, note=57, velocity=39, time=0),\n",
      "  Message('note_on', channel=0, note=64, velocity=42, time=0),\n",
      "  Message('note_on', channel=0, note=67, velocity=46, time=0),\n",
      "  Message('note_on', channel=0, note=45, velocity=36, time=0),\n",
      "  Message('note_off', channel=0, note=64, velocity=42, time=20564),\n",
      "  Message('note_off', channel=0, note=67, velocity=46, time=0),\n",
      "  Message('note_on', channel=0, note=66, velocity=42, time=0),\n",
      "  Message('note_on', channel=0, note=69, velocity=46, time=0),\n",
      "  Message('control_change', channel=0, control=64, value=0, time=13709),\n",
      "  Message('note_off', channel=0, note=45, velocity=36, time=6855),\n",
      "  Message('note_off', channel=0, note=66, velocity=42, time=0),\n",
      "  Message('note_off', channel=0, note=69, velocity=46, time=0),\n",
      "  Message('note_on', channel=0, note=67, velocity=47, time=0),\n",
      "  Message('note_on', channel=0, note=71, velocity=51, time=0),\n",
      "  Message('note_on', channel=0, note=49, velocity=36, time=0),\n",
      "  Message('control_change', channel=0, control=64, value=127, time=7197),\n",
      "  Message('note_off', channel=0, note=67, velocity=47, time=45678),\n",
      "  Message('note_off', channel=0, note=71, velocity=51, time=0),\n",
      "  Message('note_on', channel=0, note=69, velocity=45, time=0),\n",
      "  Message('note_on', channel=0, note=73, velocity=49, time=0),\n",
      "  Message('control_change', channel=0, control=64, value=0, time=8606),\n",
      "  Message('note_on', channel=0, note=56, velocity=37, time=453),\n",
      "  Message('note_off', channel=0, note=49, velocity=36, time=9059),\n",
      "  Message('note_off', channel=0, note=69, velocity=45, time=0),\n",
      "  Message('note_off', channel=0, note=73, velocity=49, time=0),\n",
      "  Message('note_off', channel=0, note=56, velocity=37, time=0),\n",
      "  Message('note_on', channel=0, note=73, velocity=48, time=0),\n",
      "  Message('note_on', channel=0, note=76, velocity=52, time=0),\n",
      "  Message('note_on', channel=0, note=57, velocity=41, time=0),\n",
      "  Message('control_change', channel=0, control=64, value=127, time=6946),\n",
      "  Message('note_off', channel=0, note=73, velocity=48, time=29292),\n",
      "  Message('note_off', channel=0, note=76, velocity=52, time=0),\n",
      "  Message('note_off', channel=0, note=57, velocity=41, time=0),\n",
      "  Message('note_on', channel=0, note=71, velocity=45, time=0),\n",
      "  Message('note_on', channel=0, note=74, velocity=49, time=0),\n",
      "  Message('note_on', channel=0, note=45, velocity=36, time=0),\n",
      "  Message('control_change', channel=0, control=64, value=0, time=29778),\n",
      "  Message('note_off', channel=0, note=71, velocity=45, time=5956),\n",
      "  Message('note_off', channel=0, note=74, velocity=49, time=0),\n",
      "  Message('note_off', channel=0, note=45, velocity=36, time=0),\n",
      "  Message('note_on', channel=0, note=74, velocity=51, time=0),\n",
      "  Message('note_on', channel=0, note=71, velocity=47, time=0),\n",
      "  Message('note_on', channel=0, note=52, velocity=36, time=0),\n",
      "  Message('control_change', channel=0, control=64, value=127, time=6973),\n",
      "  Message('note_off', channel=0, note=74, velocity=51, time=1565),\n",
      "  Message('note_off', channel=0, note=71, velocity=47, time=0),\n",
      "  Message('note_on', channel=0, note=73, velocity=41, time=0),\n",
      "  Message('note_on', channel=0, note=76, velocity=45, time=0),\n",
      "  Message('note_off', channel=0, note=73, velocity=41, time=8538),\n",
      "  Message('note_off', channel=0, note=76, velocity=45, time=0),\n",
      "  Message('note_on', channel=0, note=71, velocity=43, time=0),\n",
      "  Message('note_on', channel=0, note=74, velocity=47, time=0),\n",
      "  Message('note_off', channel=0, note=71, velocity=43, time=21240),\n",
      "  Message('note_off', channel=0, note=74, velocity=47, time=0),\n",
      "  Message('note_on', channel=0, note=69, velocity=40, time=0),\n",
      "  Message('note_on', channel=0, note=73, velocity=40, time=0),\n",
      "  Message('control_change', channel=0, control=64, value=0, time=29110),\n",
      "  Message('note_on', channel=0, note=56, velocity=37, time=414),\n",
      "  Message('note_off', channel=0, note=52, velocity=36, time=8285),\n",
      "  Message('note_off', channel=0, note=56, velocity=37, time=0),\n",
      "  Message('note_on', channel=0, note=57, velocity=41, time=0),\n",
      "  Message('control_change', channel=0, control=64, value=127, time=7197),\n",
      "  Message('note_off', channel=0, note=69, velocity=40, time=30354),\n",
      "  Message('note_off', channel=0, note=73, velocity=40, time=0),\n",
      "  Message('note_off', channel=0, note=57, velocity=41, time=0),\n",
      "  Message('note_on', channel=0, note=73, velocity=47, time=0),\n",
      "  Message('note_on', channel=0, note=76, velocity=51, time=0),\n",
      "  Message('note_on', channel=0, note=45, velocity=36, time=0),\n",
      "  Message('note_off', channel=0, note=73, velocity=47, time=19973),\n",
      "  Message('note_off', channel=0, note=76, velocity=51, time=0),\n",
      "  Message('note_on', channel=0, note=67, velocity=41, time=0),\n",
      "  Message('note_on', channel=0, note=71, velocity=45, time=0),\n",
      "  Message('control_change', channel=0, control=64, value=0, time=13557),\n",
      "  Message('note_off', channel=0, note=45, velocity=36, time=6779),\n",
      "  Message('note_off', channel=0, note=67, velocity=41, time=0),\n",
      "  Message('note_off', channel=0, note=71, velocity=45, time=0),\n",
      "  Message('note_on', channel=0, note=74, velocity=49, time=0),\n",
      "  Message('note_on', channel=0, note=71, velocity=45, time=0),\n",
      "  Message('note_on', channel=0, note=49, velocity=36, time=0),\n",
      "  Message('control_change', channel=0, control=64, value=127, time=7779),\n",
      "  Message('note_off', channel=0, note=74, velocity=49, time=49374),\n",
      "  Message('note_off', channel=0, note=71, velocity=45, time=0),\n",
      "  Message('note_on', channel=0, note=66, velocity=40, time=0),\n",
      "  Message('note_on', channel=0, note=69, velocity=44, time=0),\n",
      "  Message('control_change', channel=0, control=64, value=0, time=7989),\n",
      "  Message('note_on', channel=0, note=56, velocity=33, time=420),\n",
      "  Message('note_off', channel=0, note=66, velocity=40, time=4205),\n",
      "  Message('note_off', channel=0, note=69, velocity=44, time=0),\n",
      "  Message('note_off', channel=0, note=49, velocity=36, time=4205),\n",
      "  Message('note_off', channel=0, note=56, velocity=33, time=0),\n",
      "  Message('note_on', channel=0, note=69, velocity=43, time=0),\n",
      "  Message('note_on', channel=0, note=73, velocity=47, time=0),\n",
      "  Message('note_on', channel=0, note=57, velocity=38, time=0),\n",
      "  Message('control_change', channel=0, control=64, value=127, time=7146),\n",
      "  Message('note_off', channel=0, note=69, velocity=43, time=11495),\n",
      "  Message('note_off', channel=0, note=73, velocity=47, time=0),\n",
      "  Message('note_off', channel=0, note=57, velocity=38, time=18641),\n",
      "  Message('note_on', channel=0, note=64, velocity=37, time=0),\n",
      "  Message('note_on', channel=0, note=67, velocity=40, time=0),\n",
      "  Message('note_on', channel=0, note=45, velocity=36, time=0),\n",
      "  Message('note_off', channel=0, note=64, velocity=37, time=19622),\n",
      "  Message('note_off', channel=0, note=67, velocity=40, time=0),\n",
      "  Message('control_change', channel=0, control=64, value=0, time=13082),\n",
      "  Message('note_off', channel=0, note=45, velocity=36, time=6541),\n",
      "  Message('note_on', channel=0, note=65, velocity=41, time=0),\n",
      "  Message('note_on', channel=0, note=71, velocity=45, time=0),\n",
      "  Message('note_on', channel=0, note=50, velocity=38, time=0),\n",
      "  Message('control_change', channel=0, control=64, value=127, time=0),\n",
      "  Message('note_off', channel=0, note=65, velocity=41, time=38904),\n",
      "  Message('note_off', channel=0, note=71, velocity=45, time=0),\n",
      "  Message('note_on', channel=0, note=66, velocity=37, time=0),\n",
      "  Message('note_on', channel=0, note=69, velocity=40, time=0),\n",
      "  Message('control_change', channel=0, control=64, value=0, time=10180),\n",
      "  Message('control_change', channel=0, control=64, value=127, time=4781),\n",
      "  Message('note_on', channel=0, note=56, velocity=37, time=12242),\n",
      "  Message('note_off', channel=0, note=50, velocity=38, time=8695),\n",
      "  Message('note_off', channel=0, note=56, velocity=37, time=0),\n",
      "  Message('note_on', channel=0, note=57, velocity=39, time=0),\n",
      "  Message('control_change', channel=0, control=64, value=0, time=36144),\n",
      "  Message('note_off', channel=0, note=66, velocity=37, time=2239),\n",
      "  Message('note_off', channel=0, note=69, velocity=40, time=0),\n",
      "  Message('note_off', channel=0, note=57, velocity=39, time=0),\n",
      "  Message('note_on', channel=0, note=62, velocity=58, time=0),\n",
      "  Message('note_on', channel=0, note=74, velocity=58, time=0),\n",
      "  Message('note_on', channel=0, note=54, velocity=52, time=0),\n",
      "  Message('control_change', channel=0, control=64, value=127, time=2619),\n",
      "  Message('note_off', channel=0, note=54, velocity=52, time=15868),\n",
      "  Message('note_on', channel=0, note=50, velocity=48, time=0),\n",
      "  Message('note_off', channel=0, note=62, velocity=58, time=19796),\n",
      "  Message('note_off', channel=0, note=74, velocity=58, time=0),\n",
      "  Message('note_off', channel=0, note=50, velocity=48, time=0),\n",
      "  Message('note_on', channel=0, note=74, velocity=62, time=0),\n",
      "  Message('note_on', channel=0, note=64, velocity=62, time=0),\n",
      "  Message('note_on', channel=0, note=46, velocity=56, time=0),\n",
      "  Message('control_change', channel=0, control=64, value=0, time=0),\n",
      "  Message('control_change', channel=0, control=64, value=127, time=9834),\n",
      "  Message('note_off', channel=0, note=64, velocity=62, time=13605),\n",
      "  Message('note_on', channel=0, note=65, velocity=56, time=0),\n",
      "  Message('note_off', channel=0, note=65, velocity=56, time=23211),\n",
      "  Message('note_on', channel=0, note=69, velocity=56, time=0),\n",
      "  Message('note_off', channel=0, note=46, velocity=56, time=5780),\n",
      "  Message('note_on', channel=0, note=53, velocity=48, time=0),\n",
      "  Message('note_off', channel=0, note=69, velocity=56, time=17207),\n",
      "  Message('note_off', channel=0, note=53, velocity=48, time=0),\n",
      "  Message('note_on', channel=0, note=70, velocity=58, time=0),\n",
      "  Message('note_on', channel=0, note=62, velocity=60, time=0),\n",
      "  Message('control_change', channel=0, control=64, value=0, time=847),\n",
      "  Message('control_change', channel=0, control=64, value=127, time=3954),\n",
      "  Message('note_off', channel=0, note=74, velocity=62, time=17859),\n",
      "  Message('note_on', channel=0, note=74, velocity=62, time=0),\n",
      "  Message('note_off', channel=0, note=70, velocity=58, time=11450),\n",
      "  Message('note_off', channel=0, note=62, velocity=60, time=0),\n",
      "  Message('note_on', channel=0, note=53, velocity=52, time=0),\n",
      "  Message('note_off', channel=0, note=74, velocity=62, time=11538),\n",
      "  Message('note_on', channel=0, note=76, velocity=64, time=0),\n",
      "  Message('control_change', channel=0, control=64, value=0, time=15066),\n",
      "  Message('note_off', channel=0, note=53, velocity=52, time=9785),\n",
      "  Message('note_off', channel=0, note=76, velocity=64, time=0),\n",
      "  Message('note_on', channel=0, note=79, velocity=66, time=0),\n",
      "  Message('note_on', channel=0, note=69, velocity=66, time=0),\n",
      "  Message('note_on', channel=0, note=41, velocity=62, time=0),\n",
      "  Message('control_change', channel=0, control=64, value=0, time=0),\n",
      "  Message('control_change', channel=0, control=64, value=127, time=9841),\n",
      "  Message('note_off', channel=0, note=79, velocity=66, time=13659),\n",
      "  Message('note_on', channel=0, note=77, velocity=64, time=0),\n",
      "  Message('note_off', channel=0, note=77, velocity=64, time=23500),\n",
      "  Message('note_on', channel=0, note=72, velocity=61, time=0),\n",
      "  Message('note_off', channel=0, note=41, velocity=62, time=5875),\n",
      "  Message('note_on', channel=0, note=47, velocity=48, time=0),\n",
      "  Message('note_off', channel=0, note=69, velocity=66, time=17625),\n",
      "  Message('note_off', channel=0, note=72, velocity=61, time=0),\n",
      "  Message('note_off', channel=0, note=47, velocity=48, time=0),\n",
      "  Message('note_on', channel=0, note=69, velocity=47, time=0),\n",
      "  Message('note_on', channel=0, note=48, velocity=60, time=0),\n",
      "  Message('control_change', channel=0, control=64, value=0, time=881),\n",
      "  Message('control_change', channel=0, control=64, value=127, time=4112),\n",
      "  Message('note_off', channel=0, note=69, velocity=47, time=881),\n",
      "  Message('note_on', channel=0, note=70, velocity=39, time=0),\n",
      "  Message('note_off', channel=0, note=70, velocity=39, time=5875),\n",
      "  Message('note_on', channel=0, note=69, velocity=59, time=0),\n",
      "  Message('note_off', channel=0, note=69, velocity=59, time=11750),\n",
      "  Message('note_on', channel=0, note=67, velocity=61, time=0),\n",
      "  Message('note_off', channel=0, note=48, velocity=60, time=11750),\n",
      "  Message('note_on', channel=0, note=57, velocity=50, time=0),\n",
      "  Message('note_off', channel=0, note=67, velocity=61, time=11750),\n",
      "  Message('note_on', channel=0, note=65, velocity=58, time=0),\n",
      "  Message('control_change', channel=0, control=64, value=0, time=15066),\n",
      "  Message('note_off', channel=0, note=57, velocity=50, time=9785),\n",
      "  Message('note_off', channel=0, note=65, velocity=58, time=0),\n",
      "  Message('note_on', channel=0, note=61, velocity=61, time=0),\n",
      "  Message('note_on', channel=0, note=70, velocity=58, time=0),\n",
      "  Message('note_on', channel=0, note=43, velocity=56, time=0),\n",
      "  Message('control_change', channel=0, control=64, value=0, time=0),\n",
      "  Message('control_change', channel=0, control=64, value=127, time=9834),\n",
      "  Message('note_off', channel=0, note=61, velocity=61, time=13605),\n",
      "  Message('note_on', channel=0, note=62, velocity=53, time=0),\n",
      "  Message('note_off', channel=0, note=62, velocity=53, time=23211),\n",
      "  Message('note_on', channel=0, note=66, velocity=52, time=0),\n",
      "  Message('note_off', channel=0, note=43, velocity=56, time=5780),\n",
      "  Message('note_on', channel=0, note=50, velocity=48, time=0),\n",
      "  Message('note_off', channel=0, note=66, velocity=52, time=17207),\n",
      "  Message('note_off', channel=0, note=50, velocity=48, time=0),\n",
      "  Message('note_on', channel=0, note=67, velocity=58, time=0),\n",
      "  Message('note_on', channel=0, note=58, velocity=60, time=0),\n",
      "  Message('control_change', channel=0, control=64, value=0, time=847),\n",
      "  Message('control_change', channel=0, control=64, value=127, time=3954),\n",
      "  Message('note_off', channel=0, note=70, velocity=58, time=17859),\n",
      "  Message('note_on', channel=0, note=70, velocity=62, time=0),\n",
      "  Message('note_off', channel=0, note=67, velocity=58, time=11450),\n",
      "  Message('note_off', channel=0, note=58, velocity=60, time=0),\n",
      "  Message('note_on', channel=0, note=50, velocity=53, time=0),\n",
      "  Message('note_off', channel=0, note=70, velocity=62, time=11538),\n",
      "  Message('note_on', channel=0, note=73, velocity=64, time=0),\n",
      "  Message('control_change', channel=0, control=64, value=0, time=15066),\n",
      "  Message('note_off', channel=0, note=50, velocity=53, time=9785),\n",
      "  Message('note_off', channel=0, note=73, velocity=64, time=0),\n",
      "  Message('note_on', channel=0, note=76, velocity=66, time=0),\n",
      "  Message('note_on', channel=0, note=66, velocity=66, time=0),\n",
      "  Message('note_on', channel=0, note=38, velocity=62, time=0),\n",
      "  Message('control_change', channel=0, control=64, value=0, time=0),\n",
      "  Message('control_change', channel=0, control=64, value=127, time=9841),\n",
      "  Message('note_off', channel=0, note=76, velocity=66, time=13659),\n",
      "  Message('note_on', channel=0, note=74, velocity=64, time=0),\n",
      "  Message('note_off', channel=0, note=74, velocity=64, time=23500),\n",
      "  Message('note_on', channel=0, note=65, velocity=61, time=0),\n",
      "  Message('note_off', channel=0, note=38, velocity=62, time=14687),\n",
      "  Message('note_on', channel=0, note=44, velocity=48, time=0),\n",
      "  Message('note_off', channel=0, note=66, velocity=66, time=8812),\n",
      "  Message('note_off', channel=0, note=65, velocity=61, time=0),\n",
      "  Message('note_off', channel=0, note=44, velocity=48, time=0),\n",
      "  Message('note_on', channel=0, note=66, velocity=56, time=0),\n",
      "  Message('note_on', channel=0, note=45, velocity=56, time=0),\n",
      "  Message('control_change', channel=0, control=64, value=0, time=10253),\n",
      "  Message('note_on', channel=0, note=69, velocity=48, time=5282),\n",
      "  Message('note_off', channel=0, note=66, velocity=56, time=9321),\n",
      "  Message('note_off', channel=0, note=45, velocity=56, time=0),\n",
      "  Message('note_off', channel=0, note=69, velocity=48, time=0),\n",
      "  Message('note_on', channel=0, note=62, velocity=53, time=0),\n",
      "  Message('note_on', channel=0, note=67, velocity=53, time=0),\n",
      "  Message('note_on', channel=0, note=58, velocity=37, time=0),\n",
      "  Message('control_change', channel=0, control=64, value=127, time=2936),\n",
      "  Message('note_off', channel=0, note=67, velocity=53, time=20550),\n",
      "  Message('note_off', channel=0, note=58, velocity=37, time=0),\n",
      "  Message('note_on', channel=0, note=66, velocity=50, time=0),\n",
      "  Message('note_on', channel=0, note=57, velocity=34, time=0),\n",
      "  Message('control_change', channel=0, control=64, value=0, time=15066),\n",
      "  Message('note_off', channel=0, note=62, velocity=53, time=9785),\n",
      "  Message('note_off', channel=0, note=66, velocity=50, time=0),\n",
      "  Message('note_off', channel=0, note=57, velocity=34, time=0),\n",
      "  Message('note_on', channel=0, note=60, velocity=46, time=0),\n",
      "  Message('note_on', channel=0, note=63, velocity=46, time=0),\n",
      "  Message('note_on', channel=0, note=66, velocity=54, time=0),\n",
      "  Message('note_on', channel=0, note=47, velocity=37, time=0),\n",
      "  Message('note_on', channel=0, note=57, velocity=42, time=0),\n",
      "  Message('control_change', channel=0, control=64, value=127, time=4110),\n",
      "  Message('note_off', channel=0, note=66, velocity=54, time=19375),\n",
      "  Message('note_on', channel=0, note=67, velocity=49, time=0),\n",
      "  Message('note_off', channel=0, note=67, velocity=49, time=23861),\n",
      "  Message('note_on', channel=0, note=69, velocity=49, time=0),\n",
      "  Message('note_off', channel=0, note=69, velocity=49, time=24650),\n",
      "  Message('note_on', channel=0, note=67, velocity=52, time=0),\n",
      "  Message('note_off', channel=0, note=67, velocity=52, time=37915),\n",
      "  Message('note_on', channel=0, note=66, velocity=50, time=0),\n",
      "  Message('note_off', channel=0, note=60, velocity=46, time=39245),\n",
      "  Message('note_off', channel=0, note=63, velocity=46, time=0),\n",
      "  Message('note_off', channel=0, note=47, velocity=37, time=0),\n",
      "  Message('note_off', channel=0, note=57, velocity=42, time=0),\n",
      "  Message('note_off', channel=0, note=66, velocity=50, time=0),\n",
      "  Message('note_on', channel=0, note=66, velocity=54, time=0),\n",
      "  Message('note_on', channel=0, note=59, velocity=46, time=0),\n",
      "  Message('note_on', channel=0, note=52, velocity=37, time=0),\n",
      "  Message('note_on', channel=0, note=57, velocity=46, time=0),\n",
      "  Message('control_change', channel=0, control=64, value=0, time=4314),\n",
      "  Message('control_change', channel=0, control=64, value=127, time=10938),\n",
      "  Message('note_off', channel=0, note=66, velocity=54, time=9398),\n",
      "  Message('note_on', channel=0, note=71, velocity=52, time=0),\n",
      "  Message('note_off', channel=0, note=71, velocity=52, time=24650),\n",
      "  Message('note_on', channel=0, note=66, velocity=51, time=0),\n",
      "  Message('note_off', channel=0, note=57, velocity=46, time=26163),\n",
      "  Message('note_off', channel=0, note=66, velocity=51, time=0),\n",
      "  Message('note_on', channel=0, note=64, velocity=50, time=0),\n",
      "  Message('note_on', channel=0, note=55, velocity=42, time=0),\n",
      "  Message('control_change', channel=0, control=64, value=0, time=2486),\n",
      "  Message('note_off', channel=0, note=59, velocity=46, time=40123),\n",
      "  Message('note_off', channel=0, note=52, velocity=37, time=0),\n",
      "  Message('note_off', channel=0, note=64, velocity=50, time=0),\n",
      "  Message('note_off', channel=0, note=55, velocity=42, time=0),\n",
      "  Message('note_on', channel=0, note=45, velocity=43, time=51424),\n",
      "  Message('control_change', channel=0, control=64, value=127, time=2212),\n",
      "  Message('note_on', channel=0, note=61, velocity=50, time=23065),\n",
      "  Message('note_on', channel=0, note=67, velocity=50, time=0),\n",
      "  Message('note_on', channel=0, note=58, velocity=41, time=0),\n",
      "  Message('note_off', channel=0, note=67, velocity=50, time=26395),\n",
      "  Message('note_off', channel=0, note=58, velocity=41, time=0),\n",
      "  Message('note_on', channel=0, note=66, velocity=46, time=0),\n",
      "  Message('note_on', channel=0, note=57, velocity=38, time=0),\n",
      "  Message('note_off', channel=0, note=66, velocity=46, time=30127),\n",
      "  Message('note_off', channel=0, note=57, velocity=38, time=0),\n",
      "  Message('note_on', channel=0, note=66, velocity=50, time=0),\n",
      "  Message('note_on', channel=0, note=57, velocity=42, time=0),\n",
      "  Message('control_change', channel=0, control=64, value=0, time=3532),\n",
      "  Message('control_change', channel=0, control=64, value=127, time=6083),\n",
      "  Message('note_off', channel=0, note=66, velocity=50, time=37479),\n",
      "  Message('note_off', channel=0, note=57, velocity=42, time=0),\n",
      "  Message('note_on', channel=0, note=64, velocity=45, time=0),\n",
      "  Message('note_on', channel=0, note=55, velocity=39, time=0),\n",
      "  Message('control_change', channel=0, control=64, value=0, time=47639),\n",
      "  Message('note_off', channel=0, note=45, velocity=43, time=14499),\n",
      "  Message('note_off', channel=0, note=61, velocity=50, time=0),\n",
      "  Message('note_off', channel=0, note=64, velocity=45, time=0),\n",
      "  Message('note_off', channel=0, note=55, velocity=39, time=0),\n",
      "  Message('note_on', channel=0, note=38, velocity=38, time=0),\n",
      "  Message('control_change', channel=0, control=64, value=127, time=6274),\n",
      "  Message('note_on', channel=0, note=57, velocity=33, time=58254),\n",
      "  Message('note_off', channel=0, note=57, velocity=33, time=20713),\n",
      "  Message('note_on', channel=0, note=62, velocity=39, time=0),\n",
      "  Message('note_on', channel=0, note=66, velocity=39, time=0),\n",
      "  Message('note_on', channel=0, note=69, velocity=39, time=0),\n",
      "  Message('note_off', channel=0, note=38, velocity=38, time=41425),\n",
      "  Message('note_on', channel=0, note=33, velocity=35, time=0),\n",
      "  Message('note_off', channel=0, note=62, velocity=39, time=49164),\n",
      "  Message('note_off', channel=0, note=66, velocity=39, time=0),\n",
      "  Message('note_off', channel=0, note=69, velocity=39, time=0),\n",
      "  Message('note_off', channel=0, note=33, velocity=35, time=0),\n",
      "  Message('note_on', channel=0, note=38, velocity=38, time=0),\n",
      "  Message('note_on', channel=0, note=57, velocity=33, time=69184),\n",
      "  Message('note_off', channel=0, note=57, velocity=33, time=21304),\n",
      "  Message('note_on', channel=0, note=62, velocity=39, time=0),\n",
      "  Message('note_on', channel=0, note=66, velocity=39, time=0),\n",
      "  Message('note_on', channel=0, note=69, velocity=39, time=0),\n",
      "  Message('note_off', channel=0, note=38, velocity=38, time=49710),\n",
      "  Message('note_on', channel=0, note=33, velocity=35, time=0),\n",
      "  Message('note_off', channel=0, note=62, velocity=39, time=57358),\n",
      "  Message('note_off', channel=0, note=66, velocity=39, time=0),\n",
      "  Message('note_off', channel=0, note=69, velocity=39, time=0),\n",
      "  Message('note_off', channel=0, note=33, velocity=35, time=0),\n",
      "  Message('note_on', channel=0, note=54, velocity=27, time=0),\n",
      "  Message('note_on', channel=0, note=57, velocity=27, time=0),\n",
      "  Message('note_on', channel=0, note=66, velocity=33, time=0),\n",
      "  Message('note_on', channel=0, note=62, velocity=33, time=0),\n",
      "  Message('note_on', channel=0, note=38, velocity=25, time=0),\n",
      "  Message('note_on', channel=0, note=45, velocity=25, time=0),\n",
      "  Message('note_on', channel=0, note=50, velocity=30, time=0),\n",
      "  Message('note_off', channel=0, note=54, velocity=27, time=180764),\n",
      "  Message('note_off', channel=0, note=57, velocity=27, time=0),\n",
      "  Message('note_off', channel=0, note=66, velocity=33, time=0),\n",
      "  Message('note_off', channel=0, note=62, velocity=33, time=0),\n",
      "  Message('note_off', channel=0, note=38, velocity=25, time=0),\n",
      "  Message('note_off', channel=0, note=45, velocity=25, time=0),\n",
      "  Message('note_off', channel=0, note=50, velocity=30, time=0),\n",
      "  Message('note_on', channel=0, note=86, velocity=37, time=0),\n",
      "  Message('note_on', channel=0, note=81, velocity=37, time=0),\n",
      "  Message('note_on', channel=0, note=74, velocity=33, time=0),\n",
      "  Message('note_on', channel=0, note=62, velocity=31, time=0),\n",
      "  Message('note_on', channel=0, note=69, velocity=31, time=0),\n",
      "  Message('note_on', channel=0, note=78, velocity=35, time=0),\n",
      "  Message('control_change', channel=0, control=64, value=0, time=135573),\n",
      "  Message('note_off', channel=0, note=86, velocity=37, time=45191),\n",
      "  Message('note_off', channel=0, note=81, velocity=37, time=0),\n",
      "  Message('note_off', channel=0, note=74, velocity=33, time=0),\n",
      "  Message('note_off', channel=0, note=62, velocity=31, time=0),\n",
      "  Message('note_off', channel=0, note=69, velocity=31, time=0),\n",
      "  Message('note_off', channel=0, note=78, velocity=35, time=0),\n",
      "  MetaMessage('end_of_track', time=0)])]\n"
     ]
    }
   ],
   "source": [
    "midi = MidiFile('/Users/carlopizzuto/CS/AIML/AIM/piano_transcription/datasets/test/maps/2008/MAPS_MUS-alb_esp2_AkPnCGdD.mid')\n",
    "print(midi.tracks)\n"
   ]
  },
  {
   "cell_type": "code",
   "execution_count": 5,
   "metadata": {},
   "outputs": [
    {
     "name": "stdout",
     "output_type": "stream",
     "text": [
      "MidiTrack([\n",
      "  MetaMessage('set_tempo', tempo=500000, time=0),\n",
      "  MetaMessage('time_signature', numerator=4, denominator=4, clocks_per_click=24, notated_32nd_notes_per_beat=8, time=0),\n",
      "  MetaMessage('end_of_track', time=1)])\n"
     ]
    }
   ],
   "source": [
    "midi2 = MidiFile('/Users/carlopizzuto/CS/AIML/AIM/piano_transcription/datasets/test/aug/2008/MAPS_MUS-alb_esp2_AkPnCGdD.mid')\n",
    "print(midi2.tracks[0])"
   ]
  },
  {
   "cell_type": "code",
   "execution_count": 28,
   "metadata": {},
   "outputs": [],
   "source": [
    "def fix_midi_file(file, out_file):\n",
    "    midi = MidiFile(file)\n",
    "    meta_messages_og = [m for m in midi.tracks[0] if isinstance(m, MetaMessage)]\n",
    "    meta_messages = []\n",
    "    meta_messages.append(meta_messages_og[0])\n",
    "    meta_messages.append(MetaMessage('time_signature', numerator=4, denominator=4, clocks_per_click=24, notated_32nd_notes_per_beat=8, time=0))\n",
    "    meta_messages.append(MetaMessage('end_of_track', time=1))\n",
    "    \n",
    "    note_messages_og = [m for m in midi.tracks[0]]\n",
    "    note_messages = note_messages_og.copy()\n",
    "    note_messages[-1] = MetaMessage('end_of_track', time=1)\n",
    "    \n",
    "    meta_track = MidiTrack(meta_messages)\n",
    "    note_track = MidiTrack(note_messages)\n",
    "    new_midi = MidiFile()\n",
    "    new_midi.tracks.append(meta_track)\n",
    "    new_midi.tracks.append(note_track)\n",
    "    new_midi.save(out_file)\n",
    "\n",
    "def fix_midi_dir(dir, out_dir):\n",
    "    for file in os.listdir(dir):\n",
    "        base_name = os.path.basename(file)\n",
    "        out_file = os.path.join(out_dir, base_name)\n",
    "        fix_midi_file(os.path.join(dir, file), out_file)"
   ]
  },
  {
   "cell_type": "code",
   "execution_count": 29,
   "metadata": {},
   "outputs": [],
   "source": [
    "base_dir = '/Users/carlopizzuto/CS/AIML/AIM/piano_transcription/datasets/test/maps/2008'\n",
    "out_dir = '/Users/carlopizzuto/CS/AIML/AIM/piano_transcription/datasets/test/aug-fix'\n",
    "\n",
    "fix_midi_dir(base_dir, out_dir)"
   ]
  },
  {
   "cell_type": "code",
   "execution_count": 30,
   "metadata": {},
   "outputs": [],
   "source": [
    "p = '/Users/carlopizzuto/CS/AIML/AIM/piano_transcription/datasets/test/aug/2008'\n",
    "op = '/Users/carlopizzuto/CS/AIML/AIM/piano_transcription/datasets/test/aug-fix/2008'\n",
    "wavs = [f for f in os.listdir(p) if f.endswith('.wav')]\n",
    "for wav in wavs:\n",
    "    os.rename(os.path.join(p, wav), os.path.join(op, wav))"
   ]
  },
  {
   "cell_type": "code",
   "execution_count": 27,
   "metadata": {},
   "outputs": [
    {
     "name": "stdout",
     "output_type": "stream",
     "text": [
      "MidiTrack([\n",
      "  MetaMessage('set_tempo', tempo=439440, time=0),\n",
      "  Message('note_on', channel=0, note=38, velocity=53, time=37283),\n",
      "  Message('note_on', channel=0, note=50, velocity=53, time=0),\n",
      "  Message('control_change', channel=0, control=64, value=127, time=0),\n",
      "  Message('note_on', channel=0, note=57, velocity=49, time=53601),\n",
      "  Message('note_off', channel=0, note=57, velocity=49, time=17389),\n",
      "  Message('note_on', channel=0, note=69, velocity=55, time=0),\n",
      "  Message('note_on', channel=0, note=66, velocity=49, time=0),\n",
      "  Message('note_on', channel=0, note=62, velocity=49, time=0),\n",
      "  Message('note_off', channel=0, note=38, velocity=53, time=34779),\n",
      "  Message('note_off', channel=0, note=50, velocity=53, time=0),\n",
      "  Message('note_on', channel=0, note=33, velocity=51, time=0),\n",
      "  Message('note_on', channel=0, note=45, velocity=51, time=0),\n",
      "  Message('note_off', channel=0, note=69, velocity=55, time=39860),\n",
      "  Message('note_off', channel=0, note=66, velocity=49, time=0),\n",
      "  Message('note_off', channel=0, note=62, velocity=49, time=0),\n",
      "  Message('note_off', channel=0, note=33, velocity=51, time=0),\n",
      "  Message('note_off', channel=0, note=45, velocity=51, time=0),\n",
      "  Message('note_on', channel=0, note=38, velocity=54, time=0),\n",
      "  Message('note_on', channel=0, note=50, velocity=54, time=0),\n",
      "  Message('control_change', channel=0, control=64, value=0, time=0),\n",
      "  Message('control_change', channel=0, control=64, value=127, time=8338),\n",
      "  Message('note_on', channel=0, note=57, velocity=46, time=45263),\n",
      "  Message('note_off', channel=0, note=57, velocity=46, time=17389),\n",
      "  Message('note_on', channel=0, note=62, velocity=48, time=0),\n",
      "  Message('note_on', channel=0, note=66, velocity=48, time=0),\n",
      "  Message('note_on', channel=0, note=69, velocity=54, time=0),\n",
      "  Message('note_off', channel=0, note=38, velocity=54, time=34779),\n",
      "  Message('note_off', channel=0, note=50, velocity=54, time=0),\n",
      "  Message('note_on', channel=0, note=33, velocity=49, time=0),\n",
      "  Message('note_on', channel=0, note=45, velocity=49, time=0),\n",
      "  Message('control_change', channel=0, control=64, value=0, time=22222),\n",
      "  Message('note_off', channel=0, note=62, velocity=48, time=15603),\n",
      "  Message('note_off', channel=0, note=66, velocity=48, time=0),\n",
      "  Message('note_off', channel=0, note=69, velocity=54, time=0),\n",
      "  Message('note_off', channel=0, note=33, velocity=49, time=0),\n",
      "  Message('note_off', channel=0, note=45, velocity=49, time=0),\n",
      "  Message('note_on', channel=0, note=57, velocity=45, time=0),\n",
      "  Message('note_on', channel=0, note=62, velocity=45, time=0),\n",
      "  Message('note_on', channel=0, note=66, velocity=65, time=0),\n",
      "  Message('note_on', channel=0, note=50, velocity=44, time=0),\n",
      "  Message('control_change', channel=0, control=64, value=127, time=0),\n",
      "  Message('note_off', channel=0, note=66, velocity=65, time=20808),\n",
      "  Message('note_on', channel=0, note=66, velocity=60, time=0),\n",
      "  Message('note_off', channel=0, note=66, velocity=60, time=20808),\n",
      "  Message('note_on', channel=0, note=66, velocity=57, time=0),\n",
      "  Message('note_off', channel=0, note=57, velocity=45, time=6214),\n",
      "  Message('note_off', channel=0, note=62, velocity=45, time=0),\n",
      "  Message('note_off', channel=0, note=66, velocity=57, time=9321),\n",
      "  Message('note_on', channel=0, note=66, velocity=55, time=0),\n",
      "  Message('note_on', channel=0, note=56, velocity=41, time=0),\n",
      "  Message('control_change', channel=0, control=64, value=0, time=1252),\n",
      "  Message('note_off', channel=0, note=66, velocity=55, time=2921),\n",
      "  Message('note_on', channel=0, note=69, velocity=49, time=0),\n",
      "  Message('note_off', channel=0, note=50, velocity=44, time=4173),\n",
      "  Message('note_off', channel=0, note=56, velocity=41, time=0),\n",
      "  Message('note_off', channel=0, note=69, velocity=49, time=0),\n",
      "  Message('note_on', channel=0, note=67, velocity=58, time=0),\n",
      "  Message('note_on', channel=0, note=57, velocity=45, time=0),\n",
      "  Message('control_change', channel=0, control=64, value=127, time=7067),\n",
      "  Message('note_off', channel=0, note=67, velocity=58, time=30354),\n",
      "  Message('note_off', channel=0, note=57, velocity=45, time=0),\n",
      "  Message('note_on', channel=0, note=66, velocity=60, time=0),\n",
      "  Message('note_on', channel=0, note=45, velocity=45, time=0),\n",
      "  Message('control_change', channel=0, control=64, value=0, time=32465),\n",
      "  Message('note_off', channel=0, note=66, velocity=60, time=6493),\n",
      "  Message('note_off', channel=0, note=45, velocity=45, time=0),\n",
      "  Message('note_on', channel=0, note=57, velocity=38, time=0),\n",
      "  Message('note_on', channel=0, note=62, velocity=38, time=0),\n",
      "  Message('note_on', channel=0, note=66, velocity=38, time=0),\n",
      "  Message('note_on', channel=0, note=69, velocity=63, time=0),\n",
      "  Message('note_on', channel=0, note=50, velocity=39, time=0),\n",
      "  Message('control_change', channel=0, control=64, value=127, time=0),\n",
      "  Message('note_on', channel=0, note=56, velocity=46, time=59452),\n",
      "  Message('control_change', channel=0, control=64, value=0, time=1234),\n",
      "  Message('note_off', channel=0, note=57, velocity=38, time=6991),\n",
      "  Message('note_off', channel=0, note=50, velocity=39, time=0),\n",
      "  Message('note_off', channel=0, note=56, velocity=46, time=0),\n",
      "  Message('note_on', channel=0, note=57, velocity=50, time=0),\n",
      "  Message('control_change', channel=0, control=64, value=127, time=7197),\n",
      "  Message('note_off', channel=0, note=62, velocity=38, time=30354),\n",
      "  Message('note_off', channel=0, note=66, velocity=38, time=0),\n",
      "  Message('note_off', channel=0, note=69, velocity=63, time=0),\n",
      "  Message('note_off', channel=0, note=57, velocity=50, time=0),\n",
      "  Message('note_on', channel=0, note=66, velocity=56, time=0),\n",
      "  Message('note_on', channel=0, note=74, velocity=63, time=0),\n",
      "  Message('note_on', channel=0, note=45, velocity=46, time=0),\n",
      "  Message('note_off', channel=0, note=74, velocity=63, time=19051),\n",
      "  Message('note_on', channel=0, note=76, velocity=70, time=0),\n",
      "  Message('control_change', channel=0, control=64, value=0, time=14274),\n",
      "  Message('note_off', channel=0, note=66, velocity=56, time=7137),\n",
      "  Message('note_off', channel=0, note=45, velocity=46, time=0),\n",
      "  Message('note_off', channel=0, note=76, velocity=70, time=0),\n",
      "  Message('note_on', channel=0, note=66, velocity=52, time=0),\n",
      "  Message('note_on', channel=0, note=78, velocity=75, time=0),\n",
      "  Message('note_on', channel=0, note=50, velocity=49, time=0),\n",
      "  Message('control_change', channel=0, control=64, value=127, time=0),\n",
      "  Message('note_off', channel=0, note=78, velocity=75, time=51134),\n",
      "  Message('note_on', channel=0, note=73, velocity=67, time=0),\n",
      "  Message('note_on', channel=0, note=76, velocity=55, time=8222),\n",
      "  Message('note_on', channel=0, note=56, velocity=41, time=0),\n",
      "  Message('control_change', channel=0, control=64, value=0, time=1222),\n",
      "  Message('note_off', channel=0, note=50, velocity=49, time=6925),\n",
      "  Message('note_off', channel=0, note=73, velocity=67, time=0),\n",
      "  Message('note_off', channel=0, note=76, velocity=55, time=0),\n",
      "  Message('note_off', channel=0, note=56, velocity=41, time=0),\n",
      "  Message('note_on', channel=0, note=74, velocity=75, time=0),\n",
      "  Message('note_on', channel=0, note=57, velocity=46, time=0),\n",
      "  Message('control_change', channel=0, control=64, value=127, time=6836),\n",
      "  Message('note_off', channel=0, note=66, velocity=52, time=28476),\n",
      "  Message('note_off', channel=0, note=74, velocity=75, time=0),\n",
      "  Message('note_off', channel=0, note=57, velocity=46, time=0),\n",
      "  Message('note_on', channel=0, note=65, velocity=46, time=0),\n",
      "  Message('note_on', channel=0, note=71, velocity=68, time=0),\n",
      "  Message('note_on', channel=0, note=51, velocity=45, time=0),\n",
      "  Message('note_off', channel=0, note=65, velocity=46, time=20564),\n",
      "  Message('note_on', channel=0, note=66, velocity=45, time=0),\n",
      "  Message('control_change', channel=0, control=64, value=0, time=14395),\n",
      "  Message('note_off', channel=0, note=71, velocity=68, time=7197),\n",
      "  Message('note_off', channel=0, note=51, velocity=45, time=0),\n",
      "  Message('note_off', channel=0, note=66, velocity=45, time=0),\n",
      "  Message('note_on', channel=0, note=61, velocity=50, time=0),\n",
      "  Message('note_on', channel=0, note=67, velocity=60, time=0),\n",
      "  Message('note_on', channel=0, note=52, velocity=45, time=0),\n",
      "  Message('control_change', channel=0, control=64, value=127, time=7197),\n",
      "  Message('control_change', channel=0, control=64, value=0, time=53434),\n",
      "  Message('note_on', channel=0, note=56, velocity=43, time=408),\n",
      "  Message('note_off', channel=0, note=52, velocity=45, time=8164),\n",
      "  Message('note_off', channel=0, note=56, velocity=43, time=0),\n",
      "  Message('note_on', channel=0, note=57, velocity=47, time=0),\n",
      "  Message('control_change', channel=0, control=64, value=127, time=6946),\n",
      "  Message('note_off', channel=0, note=61, velocity=50, time=29292),\n",
      "  Message('note_off', channel=0, note=67, velocity=60, time=0),\n",
      "  Message('note_off', channel=0, note=57, velocity=47, time=0),\n",
      "  Message('note_on', channel=0, note=64, velocity=50, time=0),\n",
      "  Message('note_on', channel=0, note=67, velocity=60, time=0),\n",
      "  Message('note_on', channel=0, note=45, velocity=45, time=0),\n",
      "  Message('note_off', channel=0, note=64, velocity=50, time=20564),\n",
      "  Message('note_off', channel=0, note=67, velocity=60, time=0),\n",
      "  Message('note_on', channel=0, note=66, velocity=50, time=0),\n",
      "  Message('note_on', channel=0, note=69, velocity=60, time=0),\n",
      "  Message('control_change', channel=0, control=64, value=0, time=13709),\n",
      "  Message('note_off', channel=0, note=45, velocity=45, time=6855),\n",
      "  Message('note_off', channel=0, note=66, velocity=50, time=0),\n",
      "  Message('note_off', channel=0, note=69, velocity=60, time=0),\n",
      "  Message('note_on', channel=0, note=67, velocity=56, time=0),\n",
      "  Message('note_on', channel=0, note=71, velocity=67, time=0),\n",
      "  Message('note_on', channel=0, note=49, velocity=45, time=0),\n",
      "  Message('control_change', channel=0, control=64, value=127, time=7197),\n",
      "  Message('note_off', channel=0, note=67, velocity=56, time=45678),\n",
      "  Message('note_off', channel=0, note=71, velocity=67, time=0),\n",
      "  Message('note_on', channel=0, note=73, velocity=63, time=0),\n",
      "  Message('note_on', channel=0, note=69, velocity=53, time=0),\n",
      "  Message('control_change', channel=0, control=64, value=0, time=8606),\n",
      "  Message('note_on', channel=0, note=56, velocity=46, time=453),\n",
      "  Message('note_off', channel=0, note=49, velocity=45, time=9059),\n",
      "  Message('note_off', channel=0, note=73, velocity=63, time=0),\n",
      "  Message('note_off', channel=0, note=69, velocity=53, time=0),\n",
      "  Message('note_off', channel=0, note=56, velocity=46, time=0),\n",
      "  Message('note_on', channel=0, note=73, velocity=57, time=0),\n",
      "  Message('note_on', channel=0, note=76, velocity=68, time=0),\n",
      "  Message('note_on', channel=0, note=57, velocity=52, time=0),\n",
      "  Message('control_change', channel=0, control=64, value=127, time=6946),\n",
      "  Message('note_off', channel=0, note=73, velocity=57, time=29292),\n",
      "  Message('note_off', channel=0, note=76, velocity=68, time=0),\n",
      "  Message('note_off', channel=0, note=57, velocity=52, time=0),\n",
      "  Message('note_on', channel=0, note=71, velocity=53, time=0),\n",
      "  Message('note_on', channel=0, note=74, velocity=63, time=0),\n",
      "  Message('note_on', channel=0, note=45, velocity=45, time=0),\n",
      "  Message('control_change', channel=0, control=64, value=0, time=29778),\n",
      "  Message('note_off', channel=0, note=71, velocity=53, time=5956),\n",
      "  Message('note_off', channel=0, note=74, velocity=63, time=0),\n",
      "  Message('note_off', channel=0, note=45, velocity=45, time=0),\n",
      "  Message('note_on', channel=0, note=71, velocity=56, time=0),\n",
      "  Message('note_on', channel=0, note=74, velocity=67, time=0),\n",
      "  Message('note_on', channel=0, note=52, velocity=45, time=0),\n",
      "  Message('control_change', channel=0, control=64, value=127, time=6973),\n",
      "  Message('note_off', channel=0, note=71, velocity=56, time=1565),\n",
      "  Message('note_off', channel=0, note=74, velocity=67, time=0),\n",
      "  Message('note_on', channel=0, note=73, velocity=49, time=0),\n",
      "  Message('note_on', channel=0, note=76, velocity=58, time=0),\n",
      "  Message('note_off', channel=0, note=73, velocity=49, time=8538),\n",
      "  Message('note_off', channel=0, note=76, velocity=58, time=0),\n",
      "  Message('note_on', channel=0, note=71, velocity=51, time=0),\n",
      "  Message('note_on', channel=0, note=74, velocity=61, time=0),\n",
      "  Message('note_off', channel=0, note=71, velocity=51, time=21240),\n",
      "  Message('note_off', channel=0, note=74, velocity=61, time=0),\n",
      "  Message('note_on', channel=0, note=73, velocity=56, time=0),\n",
      "  Message('note_on', channel=0, note=69, velocity=47, time=0),\n",
      "  Message('control_change', channel=0, control=64, value=0, time=29110),\n",
      "  Message('note_on', channel=0, note=56, velocity=46, time=414),\n",
      "  Message('note_off', channel=0, note=52, velocity=45, time=8285),\n",
      "  Message('note_off', channel=0, note=56, velocity=46, time=0),\n",
      "  Message('note_on', channel=0, note=57, velocity=52, time=0),\n",
      "  Message('control_change', channel=0, control=64, value=127, time=7197),\n",
      "  Message('note_off', channel=0, note=73, velocity=56, time=30354),\n",
      "  Message('note_off', channel=0, note=69, velocity=47, time=0),\n",
      "  Message('note_off', channel=0, note=57, velocity=52, time=0),\n",
      "  Message('note_on', channel=0, note=73, velocity=56, time=0),\n",
      "  Message('note_on', channel=0, note=76, velocity=67, time=0),\n",
      "  Message('note_on', channel=0, note=45, velocity=45, time=0),\n",
      "  Message('note_off', channel=0, note=73, velocity=56, time=19973),\n",
      "  Message('note_off', channel=0, note=76, velocity=67, time=0),\n",
      "  Message('note_on', channel=0, note=67, velocity=49, time=0),\n",
      "  Message('note_on', channel=0, note=71, velocity=58, time=0),\n",
      "  Message('control_change', channel=0, control=64, value=0, time=13557),\n",
      "  Message('note_off', channel=0, note=45, velocity=45, time=6779),\n",
      "  Message('note_off', channel=0, note=67, velocity=49, time=0),\n",
      "  Message('note_off', channel=0, note=71, velocity=58, time=0),\n",
      "  Message('note_on', channel=0, note=71, velocity=54, time=0),\n",
      "  Message('note_on', channel=0, note=74, velocity=64, time=0),\n",
      "  Message('note_on', channel=0, note=49, velocity=45, time=0),\n",
      "  Message('control_change', channel=0, control=64, value=127, time=7779),\n",
      "  Message('note_off', channel=0, note=71, velocity=54, time=49374),\n",
      "  Message('note_off', channel=0, note=74, velocity=64, time=0),\n",
      "  Message('note_on', channel=0, note=66, velocity=48, time=0),\n",
      "  Message('note_on', channel=0, note=69, velocity=57, time=0),\n",
      "  Message('control_change', channel=0, control=64, value=0, time=7989),\n",
      "  Message('note_on', channel=0, note=56, velocity=46, time=420),\n",
      "  Message('note_off', channel=0, note=66, velocity=48, time=4205),\n",
      "  Message('note_off', channel=0, note=69, velocity=57, time=0),\n",
      "  Message('note_off', channel=0, note=49, velocity=45, time=4205),\n",
      "  Message('note_off', channel=0, note=56, velocity=46, time=0),\n",
      "  Message('note_on', channel=0, note=69, velocity=51, time=0),\n",
      "  Message('note_on', channel=0, note=73, velocity=61, time=0),\n",
      "  Message('note_on', channel=0, note=57, velocity=52, time=0),\n",
      "  Message('control_change', channel=0, control=64, value=127, time=7146),\n",
      "  Message('note_off', channel=0, note=69, velocity=51, time=11495),\n",
      "  Message('note_off', channel=0, note=73, velocity=61, time=0),\n",
      "  Message('note_off', channel=0, note=57, velocity=52, time=18641),\n",
      "  Message('note_on', channel=0, note=64, velocity=45, time=0),\n",
      "  Message('note_on', channel=0, note=67, velocity=54, time=0),\n",
      "  Message('note_on', channel=0, note=45, velocity=45, time=0),\n",
      "  Message('note_off', channel=0, note=64, velocity=45, time=19622),\n",
      "  Message('note_off', channel=0, note=67, velocity=54, time=0),\n",
      "  Message('control_change', channel=0, control=64, value=0, time=13082),\n",
      "  Message('note_off', channel=0, note=45, velocity=45, time=6541),\n",
      "  Message('note_on', channel=0, note=65, velocity=49, time=0),\n",
      "  Message('note_on', channel=0, note=71, velocity=58, time=0),\n",
      "  Message('note_on', channel=0, note=50, velocity=49, time=0),\n",
      "  Message('control_change', channel=0, control=64, value=127, time=0),\n",
      "  Message('note_off', channel=0, note=65, velocity=49, time=38904),\n",
      "  Message('note_off', channel=0, note=71, velocity=58, time=0),\n",
      "  Message('note_on', channel=0, note=69, velocity=54, time=0),\n",
      "  Message('note_on', channel=0, note=66, velocity=45, time=0),\n",
      "  Message('control_change', channel=0, control=64, value=0, time=10180),\n",
      "  Message('control_change', channel=0, control=64, value=127, time=4781),\n",
      "  Message('note_on', channel=0, note=56, velocity=45, time=12242),\n",
      "  Message('note_off', channel=0, note=50, velocity=49, time=8695),\n",
      "  Message('note_off', channel=0, note=56, velocity=45, time=0),\n",
      "  Message('note_on', channel=0, note=57, velocity=48, time=0),\n",
      "  Message('control_change', channel=0, control=64, value=0, time=36144),\n",
      "  Message('note_off', channel=0, note=69, velocity=54, time=2239),\n",
      "  Message('note_off', channel=0, note=66, velocity=45, time=0),\n",
      "  Message('note_on', channel=0, note=62, velocity=61, time=0),\n",
      "  Message('note_on', channel=0, note=74, velocity=70, time=0),\n",
      "  Message('control_change', channel=0, control=64, value=127, time=3973),\n",
      "  Message('note_off', channel=0, note=57, velocity=48, time=32699),\n",
      "  Message('note_off', channel=0, note=62, velocity=61, time=0),\n",
      "  Message('note_off', channel=0, note=74, velocity=70, time=0),\n",
      "  Message('note_on', channel=0, note=62, velocity=54, time=0),\n",
      "  Message('note_on', channel=0, note=74, velocity=76, time=0),\n",
      "  Message('note_on', channel=0, note=47, velocity=52, time=0),\n",
      "  Message('note_on', channel=0, note=54, velocity=52, time=0),\n",
      "  Message('note_off', channel=0, note=74, velocity=76, time=22596),\n",
      "  Message('note_on', channel=0, note=73, velocity=72, time=0),\n",
      "  Message('note_off', channel=0, note=73, velocity=72, time=23672),\n",
      "  Message('note_on', channel=0, note=71, velocity=66, time=0),\n",
      "  Message('control_change', channel=0, control=64, value=0, time=14799),\n",
      "  Message('note_off', channel=0, note=62, velocity=54, time=7969),\n",
      "  Message('note_off', channel=0, note=47, velocity=52, time=0),\n",
      "  Message('note_off', channel=0, note=54, velocity=52, time=0),\n",
      "  Message('note_off', channel=0, note=71, velocity=66, time=0),\n",
      "  Message('note_on', channel=0, note=67, velocity=36, time=0),\n",
      "  Message('note_on', channel=0, note=62, velocity=36, time=0),\n",
      "  Message('note_on', channel=0, note=73, velocity=77, time=0),\n",
      "  Message('note_on', channel=0, note=47, velocity=31, time=0),\n",
      "  Message('note_on', channel=0, note=53, velocity=31, time=0),\n",
      "  Message('control_change', channel=0, control=64, value=127, time=6314),\n",
      "  Message('note_off', channel=0, note=73, velocity=77, time=29766),\n",
      "  Message('note_on', channel=0, note=71, velocity=66, time=0),\n",
      "  Message('control_change', channel=0, control=64, value=0, time=30694),\n",
      "  Message('note_off', channel=0, note=67, velocity=36, time=7874),\n",
      "  Message('note_off', channel=0, note=62, velocity=36, time=0),\n",
      "  Message('note_off', channel=0, note=47, velocity=31, time=0),\n",
      "  Message('note_off', channel=0, note=53, velocity=31, time=0),\n",
      "  Message('note_off', channel=0, note=71, velocity=66, time=0),\n",
      "  Message('note_on', channel=0, note=74, velocity=75, time=0),\n",
      "  Message('note_on', channel=0, note=62, velocity=54, time=0),\n",
      "  Message('note_on', channel=0, note=47, velocity=48, time=0),\n",
      "  Message('control_change', channel=0, control=64, value=127, time=3378),\n",
      "  Message('note_off', channel=0, note=74, velocity=75, time=31872),\n",
      "  Message('note_on', channel=0, note=66, velocity=66, time=0),\n",
      "  Message('note_off', channel=0, note=47, velocity=48, time=19051),\n",
      "  Message('note_on', channel=0, note=54, velocity=44, time=0),\n",
      "  Message('note_on', channel=0, note=67, velocity=57, time=9525),\n",
      "  Message('note_off', channel=0, note=62, velocity=54, time=9525),\n",
      "  Message('note_off', channel=0, note=66, velocity=66, time=0),\n",
      "  Message('note_off', channel=0, note=54, velocity=44, time=0),\n",
      "  Message('note_off', channel=0, note=67, velocity=57, time=0),\n",
      "  Message('note_on', channel=0, note=66, velocity=65, time=0),\n",
      "  Message('note_on', channel=0, note=62, velocity=49, time=0),\n",
      "  Message('control_change', channel=0, control=64, value=0, time=881),\n",
      "  Message('control_change', channel=0, control=64, value=127, time=4112),\n",
      "  Message('note_off', channel=0, note=66, velocity=65, time=18506),\n",
      "  Message('note_on', channel=0, note=65, velocity=61, time=0),\n",
      "  Message('note_off', channel=0, note=62, velocity=49, time=11750),\n",
      "  Message('note_on', channel=0, note=54, velocity=41, time=0),\n",
      "  Message('note_off', channel=0, note=65, velocity=61, time=11750),\n",
      "  Message('note_on', channel=0, note=66, velocity=67, time=0),\n",
      "  Message('control_change', channel=0, control=64, value=0, time=15066),\n",
      "  Message('note_off', channel=0, note=54, velocity=41, time=9785),\n",
      "  Message('note_off', channel=0, note=66, velocity=67, time=0),\n",
      "  Message('note_on', channel=0, note=62, velocity=50, time=0),\n",
      "  Message('note_on', channel=0, note=67, velocity=71, time=0),\n",
      "  Message('note_on', channel=0, note=47, velocity=51, time=0),\n",
      "  Message('control_change', channel=0, control=64, value=127, time=0),\n",
      "  Message('note_off', channel=0, note=67, velocity=71, time=23186),\n",
      "  Message('note_on', channel=0, note=71, velocity=66, time=0),\n",
      "  Message('note_off', channel=0, note=71, velocity=66, time=22578),\n",
      "  Message('note_on', channel=0, note=74, velocity=68, time=0),\n",
      "  Message('note_off', channel=0, note=47, velocity=51, time=5835),\n",
      "  Message('note_on', channel=0, note=55, velocity=42, time=0),\n",
      "  Message('control_change', channel=0, control=64, value=0, time=16485),\n",
      "  Message('note_off', channel=0, note=62, velocity=50, time=1021),\n",
      "  Message('note_off', channel=0, note=74, velocity=68, time=0),\n",
      "  Message('note_off', channel=0, note=55, velocity=42, time=0),\n",
      "  Message('note_on', channel=0, note=73, velocity=71, time=0),\n",
      "  Message('note_on', channel=0, note=62, velocity=46, time=0),\n",
      "  Message('control_change', channel=0, control=64, value=127, time=7148),\n",
      "  Message('note_off', channel=0, note=73, velocity=71, time=27864),\n",
      "  Message('note_off', channel=0, note=62, velocity=46, time=0),\n",
      "  Message('note_on', channel=0, note=71, velocity=66, time=0),\n",
      "  Message('note_on', channel=0, note=55, velocity=45, time=0),\n",
      "  Message('control_change', channel=0, control=64, value=0, time=24291),\n",
      "  Message('note_off', channel=0, note=71, velocity=66, time=11696),\n",
      "  Message('note_off', channel=0, note=55, velocity=45, time=0),\n",
      "  Message('note_on', channel=0, note=74, velocity=72, time=0),\n",
      "  Message('note_on', channel=0, note=62, velocity=51, time=0),\n",
      "  Message('note_on', channel=0, note=66, velocity=51, time=0),\n",
      "  Message('note_on', channel=0, note=47, velocity=49, time=0),\n",
      "  Message('control_change', channel=0, control=64, value=127, time=869),\n",
      "  Message('note_off', channel=0, note=47, velocity=49, time=22316),\n",
      "  Message('note_on', channel=0, note=53, velocity=45, time=0),\n",
      "  Message('note_off', channel=0, note=53, velocity=45, time=23186),\n",
      "  Message('note_on', channel=0, note=54, velocity=45, time=0),\n",
      "  Message('note_off', channel=0, note=54, velocity=45, time=24159),\n",
      "  Message('note_on', channel=0, note=59, velocity=51, time=0),\n",
      "  Message('control_change', channel=0, control=64, value=0, time=31859),\n",
      "  Message('note_off', channel=0, note=74, velocity=72, time=4379),\n",
      "  Message('note_off', channel=0, note=62, velocity=51, time=0),\n",
      "  Message('note_off', channel=0, note=66, velocity=51, time=0),\n",
      "  Message('note_off', channel=0, note=59, velocity=51, time=0),\n",
      "  Message('note_on', channel=0, note=68, velocity=54, time=0),\n",
      "  Message('note_on', channel=0, note=78, velocity=68, time=0),\n",
      "  Message('note_on', channel=0, note=62, velocity=52, time=0),\n",
      "  Message('control_change', channel=0, control=64, value=127, time=4158),\n",
      "  Message('note_off', channel=0, note=68, velocity=54, time=34225),\n",
      "  Message('note_off', channel=0, note=78, velocity=68, time=0),\n",
      "  Message('note_off', channel=0, note=62, velocity=52, time=0),\n",
      "  Message('note_on', channel=0, note=69, velocity=51, time=0),\n",
      "  Message('note_on', channel=0, note=78, velocity=72, time=0),\n",
      "  Message('note_on', channel=0, note=61, velocity=56, time=0),\n",
      "  Message('note_off', channel=0, note=69, velocity=51, time=22876),\n",
      "  Message('note_off', channel=0, note=78, velocity=72, time=0),\n",
      "  Message('note_on', channel=0, note=76, velocity=67, time=0),\n",
      "  Message('note_off', channel=0, note=61, velocity=56, time=23823),\n",
      "  Message('note_off', channel=0, note=76, velocity=67, time=0),\n",
      "  Message('note_on', channel=0, note=67, velocity=55, time=0),\n",
      "  Message('note_on', channel=0, note=73, velocity=67, time=0),\n",
      "  Message('note_on', channel=0, note=58, velocity=51, time=0),\n",
      "  Message('control_change', channel=0, control=64, value=0, time=14913),\n",
      "  Message('note_off', channel=0, note=67, velocity=55, time=8030),\n",
      "  Message('note_off', channel=0, note=73, velocity=67, time=0),\n",
      "  Message('note_off', channel=0, note=58, velocity=51, time=0),\n",
      "  Message('note_on', channel=0, note=68, velocity=50, time=0),\n",
      "  Message('note_on', channel=0, note=74, velocity=73, time=0),\n",
      "  Message('note_on', channel=0, note=59, velocity=52, time=0),\n",
      "  Message('control_change', channel=0, control=64, value=127, time=6523),\n",
      "  Message('note_off', channel=0, note=74, velocity=73, time=30753),\n",
      "  Message('note_off', channel=0, note=59, velocity=52, time=0),\n",
      "  Message('note_on', channel=0, note=71, velocity=65, time=0),\n",
      "  Message('note_on', channel=0, note=62, velocity=47, time=0),\n",
      "  Message('control_change', channel=0, control=64, value=0, time=31722),\n",
      "  Message('note_off', channel=0, note=68, velocity=50, time=8138),\n",
      "  Message('note_off', channel=0, note=71, velocity=65, time=0),\n",
      "  Message('note_off', channel=0, note=62, velocity=47, time=0),\n",
      "  Message('note_on', channel=0, note=69, velocity=49, time=0),\n",
      "  Message('note_on', channel=0, note=76, velocity=72, time=0),\n",
      "  Message('note_on', channel=0, note=64, velocity=47, time=0),\n",
      "  Message('note_on', channel=0, note=61, velocity=50, time=0),\n",
      "  Message('control_change', channel=0, control=64, value=127, time=3378),\n",
      "  Message('note_off', channel=0, note=76, velocity=72, time=31872),\n",
      "  Message('note_on', channel=0, note=73, velocity=66, time=0),\n",
      "  Message('control_change', channel=0, control=64, value=0, time=30005),\n",
      "  Message('note_off', channel=0, note=69, velocity=49, time=8097),\n",
      "  Message('note_off', channel=0, note=64, velocity=47, time=0),\n",
      "  Message('note_off', channel=0, note=61, velocity=50, time=0),\n",
      "  Message('note_off', channel=0, note=73, velocity=66, time=0),\n",
      "  Message('note_on', channel=0, note=61, velocity=46, time=0),\n",
      "  Message('note_on', channel=0, note=66, velocity=46, time=0),\n",
      "  Message('note_on', channel=0, note=69, velocity=64, time=0),\n",
      "  Message('note_on', channel=0, note=54, velocity=48, time=0),\n",
      "  Message('control_change', channel=0, control=64, value=127, time=4994),\n",
      "  Message('note_off', channel=0, note=69, velocity=64, time=18506),\n",
      "  Message('note_on', channel=0, note=71, velocity=64, time=0),\n",
      "  Message('note_off', channel=0, note=71, velocity=64, time=23500),\n",
      "  Message('note_on', channel=0, note=73, velocity=71, time=0),\n",
      "  Message('control_change', channel=0, control=64, value=0, time=14749),\n",
      "  Message('note_off', channel=0, note=61, velocity=46, time=9579),\n",
      "  Message('note_off', channel=0, note=66, velocity=46, time=0),\n",
      "  Message('note_off', channel=0, note=54, velocity=48, time=0),\n",
      "  Message('note_off', channel=0, note=73, velocity=71, time=0),\n",
      "  Message('note_on', channel=0, note=69, velocity=36, time=0),\n",
      "  Message('note_on', channel=0, note=62, velocity=38, time=0),\n",
      "  Message('note_on', channel=0, note=76, velocity=72, time=0),\n",
      "  Message('note_on', channel=0, note=47, velocity=36, time=0),\n",
      "  Message('note_on', channel=0, note=53, velocity=36, time=0),\n",
      "  Message('control_change', channel=0, control=64, value=127, time=0),\n",
      "  Message('note_off', channel=0, note=76, velocity=72, time=22288),\n",
      "  Message('note_on', channel=0, note=74, velocity=68, time=0),\n",
      "  Message('note_off', channel=0, note=74, velocity=68, time=23485),\n",
      "  Message('note_on', channel=0, note=73, velocity=65, time=0),\n",
      "  Message('control_change', channel=0, control=64, value=0, time=23188),\n",
      "  Message('note_off', channel=0, note=69, velocity=36, time=1061),\n",
      "  Message('note_off', channel=0, note=62, velocity=38, time=0),\n",
      "  Message('note_off', channel=0, note=47, velocity=36, time=0),\n",
      "  Message('note_off', channel=0, note=53, velocity=36, time=0),\n",
      "  Message('note_off', channel=0, note=73, velocity=65, time=0),\n",
      "  Message('note_on', channel=0, note=73, velocity=66, time=0),\n",
      "  Message('note_on', channel=0, note=68, velocity=47, time=0),\n",
      "  Message('note_on', channel=0, note=62, velocity=47, time=0),\n",
      "  Message('note_on', channel=0, note=40, velocity=49, time=0),\n",
      "  Message('control_change', channel=0, control=64, value=127, time=7611),\n",
      "  Message('note_off', channel=0, note=73, velocity=66, time=29666),\n",
      "  Message('note_off', channel=0, note=40, velocity=49, time=0),\n",
      "  Message('note_on', channel=0, note=71, velocity=59, time=0),\n",
      "  Message('note_on', channel=0, note=52, velocity=42, time=0),\n",
      "  Message('control_change', channel=0, control=64, value=0, time=25909),\n",
      "  Message('note_off', channel=0, note=68, velocity=47, time=12474),\n",
      "  Message('note_off', channel=0, note=62, velocity=47, time=0),\n",
      "  Message('note_off', channel=0, note=71, velocity=59, time=0),\n",
      "  Message('note_off', channel=0, note=52, velocity=42, time=0),\n",
      "  Message('note_on', channel=0, note=61, velocity=46, time=0),\n",
      "  Message('note_on', channel=0, note=69, velocity=62, time=0),\n",
      "  Message('note_on', channel=0, note=45, velocity=47, time=0),\n",
      "  Message('control_change', channel=0, control=64, value=127, time=960),\n",
      "  Message('note_off', channel=0, note=45, velocity=47, time=24629),\n",
      "  Message('note_on', channel=0, note=56, velocity=45, time=0),\n",
      "  Message('control_change', channel=0, control=64, value=0, time=4318),\n",
      "  Message('note_off', channel=0, note=56, velocity=45, time=21271),\n",
      "  Message('note_on', channel=0, note=57, velocity=43, time=0),\n",
      "  Message('note_off', channel=0, note=61, velocity=46, time=14513),\n",
      "  Message('note_on', channel=0, note=61, velocity=36, time=0),\n",
      "  Message('note_off', channel=0, note=69, velocity=62, time=8473),\n",
      "  Message('note_off', channel=0, note=57, velocity=43, time=0),\n",
      "  Message('note_off', channel=0, note=61, velocity=36, time=0),\n",
      "  Message('note_on', channel=0, note=59, velocity=39, time=0),\n",
      "  Message('note_off', channel=0, note=59, velocity=39, time=38568),\n",
      "  Message('note_on', channel=0, note=57, velocity=42, time=0),\n",
      "  Message('note_off', channel=0, note=57, velocity=42, time=41812),\n",
      "  Message('note_on', channel=0, note=57, velocity=41, time=0),\n",
      "  Message('note_on', channel=0, note=62, velocity=41, time=0),\n",
      "  Message('note_on', channel=0, note=66, velocity=69, time=0),\n",
      "  Message('note_on', channel=0, note=50, velocity=39, time=0),\n",
      "  Message('control_change', channel=0, control=64, value=127, time=0),\n",
      "  Message('note_off', channel=0, note=66, velocity=69, time=20808),\n",
      "  Message('note_on', channel=0, note=66, velocity=60, time=0),\n",
      "  Message('note_off', channel=0, note=66, velocity=60, time=20808),\n",
      "  Message('note_on', channel=0, note=66, velocity=56, time=0),\n",
      "  Message('note_off', channel=0, note=57, velocity=41, time=6214),\n",
      "  Message('note_off', channel=0, note=62, velocity=41, time=0),\n",
      "  Message('note_off', channel=0, note=66, velocity=56, time=9321),\n",
      "  Message('note_on', channel=0, note=66, velocity=50, time=0),\n",
      "  Message('note_on', channel=0, note=56, velocity=38, time=0),\n",
      "  Message('control_change', channel=0, control=64, value=0, time=1252),\n",
      "  Message('note_off', channel=0, note=66, velocity=50, time=2921),\n",
      "  Message('note_on', channel=0, note=69, velocity=45, time=0),\n",
      "  Message('note_off', channel=0, note=50, velocity=39, time=4173),\n",
      "  Message('note_off', channel=0, note=56, velocity=38, time=0),\n",
      "  Message('note_off', channel=0, note=69, velocity=45, time=0),\n",
      "  Message('note_on', channel=0, note=67, velocity=58, time=0),\n",
      "  Message('note_on', channel=0, note=57, velocity=44, time=0),\n",
      "  Message('control_change', channel=0, control=64, value=127, time=7067),\n",
      "  Message('note_off', channel=0, note=67, velocity=58, time=30354),\n",
      "  Message('note_off', channel=0, note=57, velocity=44, time=0),\n",
      "  Message('note_on', channel=0, note=66, velocity=59, time=0),\n",
      "  Message('note_on', channel=0, note=45, velocity=42, time=0),\n",
      "  Message('control_change', channel=0, control=64, value=0, time=32465),\n",
      "  Message('note_off', channel=0, note=66, velocity=59, time=6493),\n",
      "  Message('note_off', channel=0, note=45, velocity=42, time=0),\n",
      "  Message('note_on', channel=0, note=62, velocity=34, time=0),\n",
      "  Message('note_on', channel=0, note=57, velocity=34, time=0),\n",
      "  Message('note_on', channel=0, note=66, velocity=34, time=0),\n",
      "  Message('note_on', channel=0, note=69, velocity=60, time=0),\n",
      "  Message('note_on', channel=0, note=50, velocity=35, time=0),\n",
      "  Message('control_change', channel=0, control=64, value=127, time=0),\n",
      "  Message('note_on', channel=0, note=56, velocity=41, time=59452),\n",
      "  Message('control_change', channel=0, control=64, value=0, time=1234),\n",
      "  Message('note_off', channel=0, note=57, velocity=34, time=6991),\n",
      "  Message('note_off', channel=0, note=50, velocity=35, time=0),\n",
      "  Message('note_off', channel=0, note=56, velocity=41, time=0),\n",
      "  Message('note_on', channel=0, note=57, velocity=45, time=0),\n",
      "  Message('control_change', channel=0, control=64, value=127, time=7197),\n",
      "  Message('note_off', channel=0, note=62, velocity=34, time=30354),\n",
      "  Message('note_off', channel=0, note=66, velocity=34, time=0),\n",
      "  Message('note_off', channel=0, note=69, velocity=60, time=0),\n",
      "  Message('note_off', channel=0, note=57, velocity=45, time=0),\n",
      "  Message('note_on', channel=0, note=66, velocity=54, time=0),\n",
      "  Message('note_on', channel=0, note=74, velocity=64, time=0),\n",
      "  Message('note_on', channel=0, note=45, velocity=45, time=0),\n",
      "  Message('note_off', channel=0, note=74, velocity=64, time=19051),\n",
      "  Message('note_on', channel=0, note=76, velocity=70, time=0),\n",
      "  Message('control_change', channel=0, control=64, value=0, time=14274),\n",
      "  Message('note_off', channel=0, note=66, velocity=54, time=7137),\n",
      "  Message('note_off', channel=0, note=45, velocity=45, time=0),\n",
      "  Message('note_off', channel=0, note=76, velocity=70, time=0),\n",
      "  Message('note_on', channel=0, note=78, velocity=75, time=0),\n",
      "  Message('note_on', channel=0, note=50, velocity=47, time=0),\n",
      "  Message('control_change', channel=0, control=64, value=127, time=0),\n",
      "  Message('note_off', channel=0, note=78, velocity=75, time=51134),\n",
      "  Message('note_on', channel=0, note=73, velocity=64, time=0),\n",
      "  Message('note_on', channel=0, note=76, velocity=54, time=8222),\n",
      "  Message('note_on', channel=0, note=56, velocity=45, time=0),\n",
      "  Message('control_change', channel=0, control=64, value=0, time=1222),\n",
      "  Message('note_off', channel=0, note=50, velocity=47, time=6925),\n",
      "  Message('note_off', channel=0, note=73, velocity=64, time=0),\n",
      "  Message('note_off', channel=0, note=76, velocity=54, time=0),\n",
      "  Message('note_off', channel=0, note=56, velocity=45, time=0),\n",
      "  Message('note_on', channel=0, note=74, velocity=72, time=0),\n",
      "  Message('note_on', channel=0, note=57, velocity=50, time=0),\n",
      "  Message('control_change', channel=0, control=64, value=127, time=6806),\n",
      "  Message('note_off', channel=0, note=74, velocity=72, time=28702),\n",
      "  Message('note_off', channel=0, note=57, velocity=50, time=0),\n",
      "  Message('note_on', channel=0, note=65, velocity=45, time=0),\n",
      "  Message('note_on', channel=0, note=71, velocity=66, time=0),\n",
      "  Message('note_on', channel=0, note=51, velocity=44, time=0),\n",
      "  Message('note_off', channel=0, note=65, velocity=45, time=20564),\n",
      "  Message('note_on', channel=0, note=66, velocity=47, time=0),\n",
      "  Message('control_change', channel=0, control=64, value=0, time=14395),\n",
      "  Message('note_off', channel=0, note=71, velocity=66, time=7197),\n",
      "  Message('note_off', channel=0, note=51, velocity=44, time=0),\n",
      "  Message('note_off', channel=0, note=66, velocity=47, time=0),\n",
      "  Message('note_on', channel=0, note=61, velocity=48, time=0),\n",
      "  Message('note_on', channel=0, note=67, velocity=57, time=0),\n",
      "  Message('note_on', channel=0, note=52, velocity=44, time=0),\n",
      "  Message('control_change', channel=0, control=64, value=127, time=7197),\n",
      "  Message('control_change', channel=0, control=64, value=0, time=53434),\n",
      "  Message('note_on', channel=0, note=58, velocity=40, time=408),\n",
      "  Message('note_off', channel=0, note=52, velocity=44, time=8164),\n",
      "  Message('note_off', channel=0, note=58, velocity=40, time=0),\n",
      "  Message('note_on', channel=0, note=59, velocity=45, time=0),\n",
      "  Message('control_change', channel=0, control=64, value=127, time=6946),\n",
      "  Message('note_off', channel=0, note=61, velocity=48, time=29292),\n",
      "  Message('note_off', channel=0, note=67, velocity=57, time=0),\n",
      "  Message('note_off', channel=0, note=59, velocity=45, time=0),\n",
      "  Message('note_on', channel=0, note=64, velocity=50, time=0),\n",
      "  Message('note_on', channel=0, note=67, velocity=60, time=0),\n",
      "  Message('note_on', channel=0, note=55, velocity=44, time=0),\n",
      "  Message('note_off', channel=0, note=64, velocity=50, time=19796),\n",
      "  Message('note_off', channel=0, note=67, velocity=60, time=0),\n",
      "  Message('note_off', channel=0, note=55, velocity=44, time=0),\n",
      "  Message('note_on', channel=0, note=66, velocity=53, time=0),\n",
      "  Message('note_on', channel=0, note=70, velocity=63, time=0),\n",
      "  Message('note_on', channel=0, note=52, velocity=39, time=0),\n",
      "  Message('control_change', channel=0, control=64, value=0, time=13682),\n",
      "  Message('note_off', channel=0, note=66, velocity=53, time=6841),\n",
      "  Message('note_off', channel=0, note=70, velocity=63, time=0),\n",
      "  Message('note_off', channel=0, note=52, velocity=39, time=0),\n",
      "  Message('note_on', channel=0, note=67, velocity=57, time=0),\n",
      "  Message('note_on', channel=0, note=71, velocity=68, time=0),\n",
      "  Message('note_on', channel=0, note=49, velocity=44, time=0),\n",
      "  Message('control_change', channel=0, control=64, value=127, time=7197),\n",
      "  Message('note_off', channel=0, note=67, velocity=57, time=45678),\n",
      "  Message('note_off', channel=0, note=71, velocity=68, time=0),\n",
      "  Message('note_off', channel=0, note=49, velocity=44, time=0),\n",
      "  Message('note_on', channel=0, note=70, velocity=56, time=0),\n",
      "  Message('note_on', channel=0, note=73, velocity=67, time=0),\n",
      "  Message('note_on', channel=0, note=59, velocity=45, time=0),\n",
      "  Message('control_change', channel=0, control=64, value=0, time=8606),\n",
      "  Message('note_off', channel=0, note=70, velocity=56, time=9512),\n",
      "  Message('note_off', channel=0, note=73, velocity=67, time=0),\n",
      "  Message('note_off', channel=0, note=59, velocity=45, time=0),\n",
      "  Message('note_on', channel=0, note=76, velocity=70, time=0),\n",
      "  Message('note_on', channel=0, note=73, velocity=54, time=0),\n",
      "  Message('note_on', channel=0, note=67, velocity=50, time=0),\n",
      "  Message('control_change', channel=0, control=64, value=127, time=6946),\n",
      "  Message('note_off', channel=0, note=76, velocity=70, time=29292),\n",
      "  Message('note_off', channel=0, note=73, velocity=54, time=0),\n",
      "  Message('note_off', channel=0, note=67, velocity=50, time=0),\n",
      "  Message('note_on', channel=0, note=74, velocity=67, time=0),\n",
      "  Message('note_on', channel=0, note=67, velocity=45, time=0),\n",
      "  Message('note_on', channel=0, note=64, velocity=45, time=0),\n",
      "  Message('note_on', channel=0, note=59, velocity=44, time=0),\n",
      "  Message('control_change', channel=0, control=64, value=0, time=32704),\n",
      "  Message('note_off', channel=0, note=74, velocity=67, time=6541),\n",
      "  Message('note_off', channel=0, note=67, velocity=45, time=0),\n",
      "  Message('note_off', channel=0, note=64, velocity=45, time=0),\n",
      "  Message('note_off', channel=0, note=59, velocity=44, time=0),\n",
      "  Message('note_on', channel=0, note=64, velocity=47, time=0),\n",
      "  Message('note_on', channel=0, note=66, velocity=47, time=0),\n",
      "  Message('note_on', channel=0, note=70, velocity=47, time=0),\n",
      "  Message('note_on', channel=0, note=74, velocity=70, time=0),\n",
      "  Message('note_on', channel=0, note=42, velocity=44, time=0),\n",
      "  Message('control_change', channel=0, control=64, value=127, time=7741),\n",
      "  Message('note_off', channel=0, note=74, velocity=70, time=30174),\n",
      "  Message('note_on', channel=0, note=73, velocity=64, time=0),\n",
      "  Message('control_change', channel=0, control=64, value=0, time=29110),\n",
      "  Message('note_on', channel=0, note=53, velocity=42, time=414),\n",
      "  Message('note_off', channel=0, note=64, velocity=47, time=8285),\n",
      "  Message('note_off', channel=0, note=66, velocity=47, time=0),\n",
      "  Message('note_off', channel=0, note=70, velocity=47, time=0),\n",
      "  Message('note_off', channel=0, note=42, velocity=44, time=0),\n",
      "  Message('note_off', channel=0, note=73, velocity=64, time=0),\n",
      "  Message('note_off', channel=0, note=53, velocity=42, time=0),\n",
      "  Message('note_on', channel=0, note=54, velocity=47, time=0),\n",
      "  Message('note_off', channel=0, note=54, velocity=47, time=35228),\n",
      "  Message('note_on', channel=0, note=66, velocity=56, time=0),\n",
      "  Message('note_on', channel=0, note=70, velocity=63, time=0),\n",
      "  Message('note_on', channel=0, note=64, velocity=49, time=0),\n",
      "  Message('note_off', channel=0, note=70, velocity=63, time=20564),\n",
      "  Message('note_off', channel=0, note=64, velocity=49, time=0),\n",
      "  Message('note_on', channel=0, note=72, velocity=68, time=0),\n",
      "  Message('note_on', channel=0, note=57, velocity=44, time=0),\n",
      "  Message('control_change', channel=0, control=64, value=0, time=13709),\n",
      "  Message('note_off', channel=0, note=66, velocity=56, time=6855),\n",
      "  Message('note_off', channel=0, note=72, velocity=68, time=0),\n",
      "  Message('note_off', channel=0, note=57, velocity=44, time=0),\n",
      "  Message('note_on', channel=0, note=73, velocity=75, time=0),\n",
      "  Message('note_on', channel=0, note=58, velocity=51, time=0),\n",
      "  Message('note_on', channel=0, note=66, velocity=51, time=0),\n",
      "  Message('control_change', channel=0, control=64, value=127, time=7197),\n",
      "  Message('note_off', channel=0, note=73, velocity=75, time=45678),\n",
      "  Message('note_on', channel=0, note=74, velocity=71, time=0),\n",
      "  Message('control_change', channel=0, control=64, value=0, time=8606),\n",
      "  Message('note_off', channel=0, note=58, velocity=51, time=9512),\n",
      "  Message('note_off', channel=0, note=66, velocity=51, time=0),\n",
      "  Message('note_off', channel=0, note=74, velocity=71, time=0),\n",
      "  Message('note_on', channel=0, note=78, velocity=76, time=0),\n",
      "  Message('note_on', channel=0, note=70, velocity=57, time=0),\n",
      "  Message('note_on', channel=0, note=54, velocity=48, time=0),\n",
      "  Message('control_change', channel=0, control=64, value=127, time=7146),\n",
      "  Message('note_off', channel=0, note=78, velocity=76, time=30137),\n",
      "  Message('note_on', channel=0, note=76, velocity=71, time=0),\n",
      "  Message('control_change', channel=0, control=64, value=0, time=31330),\n",
      "  Message('note_off', channel=0, note=70, velocity=57, time=6266),\n",
      "  Message('note_off', channel=0, note=54, velocity=48, time=0),\n",
      "  Message('note_off', channel=0, note=76, velocity=71, time=0),\n",
      "  Message('note_on', channel=0, note=65, velocity=55, time=0),\n",
      "  Message('note_on', channel=0, note=71, velocity=57, time=0),\n",
      "  Message('note_on', channel=0, note=73, velocity=65, time=0),\n",
      "  Message('note_on', channel=0, note=47, velocity=50, time=0),\n",
      "  Message('control_change', channel=0, control=64, value=127, time=7487),\n",
      "  Message('note_off', channel=0, note=65, velocity=55, time=29184),\n",
      "  Message('note_off', channel=0, note=73, velocity=65, time=0),\n",
      "  Message('note_on', channel=0, note=66, velocity=52, time=0),\n",
      "  Message('note_on', channel=0, note=74, velocity=70, time=0),\n",
      "  Message('note_on', channel=0, note=54, velocity=46, time=21240),\n",
      "  Message('control_change', channel=0, control=64, value=0, time=7871),\n",
      "  Message('note_off', channel=0, note=71, velocity=57, time=8699),\n",
      "  Message('note_off', channel=0, note=66, velocity=52, time=0),\n",
      "  Message('note_off', channel=0, note=74, velocity=70, time=0),\n",
      "  Message('note_off', channel=0, note=54, velocity=46, time=0),\n",
      "  Message('note_on', channel=0, note=62, velocity=50, time=0),\n",
      "  Message('note_off', channel=0, note=62, velocity=50, time=34682),\n",
      "  Message('note_on', channel=0, note=74, velocity=74, time=0),\n",
      "  Message('note_on', channel=0, note=54, velocity=46, time=0),\n",
      "  Message('note_off', channel=0, note=47, velocity=50, time=36373),\n",
      "  Message('note_off', channel=0, note=74, velocity=74, time=0),\n",
      "  Message('note_off', channel=0, note=54, velocity=46, time=0),\n",
      "  Message('note_on', channel=0, note=67, velocity=41, time=0),\n",
      "  Message('note_on', channel=0, note=71, velocity=41, time=0),\n",
      "  Message('note_on', channel=0, note=73, velocity=76, time=0),\n",
      "  Message('note_on', channel=0, note=47, velocity=51, time=0),\n",
      "  Message('control_change', channel=0, control=64, value=127, time=0),\n",
      "  Message('note_off', channel=0, note=73, velocity=76, time=22288),\n",
      "  Message('note_on', channel=0, note=76, velocity=68, time=0),\n",
      "  Message('note_off', channel=0, note=76, velocity=68, time=23485),\n",
      "  Message('note_on', channel=0, note=78, velocity=65, time=0),\n",
      "  Message('note_on', channel=0, note=55, velocity=45, time=6062),\n",
      "  Message('control_change', channel=0, control=64, value=0, time=17126),\n",
      "  Message('note_off', channel=0, note=78, velocity=65, time=1061),\n",
      "  Message('note_off', channel=0, note=55, velocity=45, time=0),\n",
      "  Message('note_on', channel=0, note=76, velocity=71, time=0),\n",
      "  Message('note_on', channel=0, note=61, velocity=50, time=0),\n",
      "  Message('control_change', channel=0, control=64, value=127, time=7611),\n",
      "  Message('note_off', channel=0, note=71, velocity=41, time=29666),\n",
      "  Message('note_off', channel=0, note=76, velocity=71, time=0),\n",
      "  Message('note_off', channel=0, note=61, velocity=50, time=0),\n",
      "  Message('note_on', channel=0, note=71, velocity=66, time=0),\n",
      "  Message('note_on', channel=0, note=55, velocity=47, time=0),\n",
      "  Message('control_change', channel=0, control=64, value=0, time=25909),\n",
      "  Message('note_off', channel=0, note=67, velocity=41, time=12474),\n",
      "  Message('note_off', channel=0, note=47, velocity=51, time=0),\n",
      "  Message('note_off', channel=0, note=71, velocity=66, time=0),\n",
      "  Message('note_off', channel=0, note=55, velocity=47, time=0),\n",
      "  Message('note_on', channel=0, note=66, velocity=50, time=0),\n",
      "  Message('note_on', channel=0, note=71, velocity=50, time=0),\n",
      "  Message('note_on', channel=0, note=74, velocity=71, time=0),\n",
      "  Message('note_on', channel=0, note=47, velocity=49, time=0),\n",
      "  Message('control_change', channel=0, control=64, value=127, time=917),\n",
      "  Message('note_on', channel=0, note=53, velocity=46, time=23531),\n",
      "  Message('control_change', channel=0, control=64, value=0, time=4126),\n",
      "  Message('note_off', channel=0, note=53, velocity=46, time=20322),\n",
      "  Message('note_on', channel=0, note=54, velocity=49, time=0),\n",
      "  Message('note_on', channel=0, note=57, velocity=47, time=14513),\n",
      "  Message('note_off', channel=0, note=54, velocity=49, time=8473),\n",
      "  Message('note_off', channel=0, note=57, velocity=47, time=0),\n",
      "  Message('note_on', channel=0, note=55, velocity=50, time=0),\n",
      "  Message('note_off', channel=0, note=74, velocity=71, time=37552),\n",
      "  Message('note_off', channel=0, note=55, velocity=50, time=0),\n",
      "  Message('note_on', channel=0, note=74, velocity=74, time=0),\n",
      "  Message('note_on', channel=0, note=54, velocity=46, time=0),\n",
      "  Message('note_off', channel=0, note=66, velocity=50, time=36373),\n",
      "  Message('note_off', channel=0, note=71, velocity=50, time=0),\n",
      "  Message('note_off', channel=0, note=47, velocity=49, time=0),\n",
      "  Message('note_off', channel=0, note=74, velocity=74, time=0),\n",
      "  Message('note_off', channel=0, note=54, velocity=46, time=0),\n",
      "  Message('note_on', channel=0, note=67, velocity=41, time=0),\n",
      "  Message('note_on', channel=0, note=71, velocity=41, time=0),\n",
      "  Message('note_on', channel=0, note=73, velocity=76, time=0),\n",
      "  Message('note_on', channel=0, note=47, velocity=51, time=0),\n",
      "  Message('control_change', channel=0, control=64, value=127, time=0),\n",
      "  Message('note_off', channel=0, note=73, velocity=76, time=22288),\n",
      "  Message('note_on', channel=0, note=76, velocity=71, time=0),\n",
      "  Message('note_off', channel=0, note=76, velocity=71, time=23485),\n",
      "  Message('note_on', channel=0, note=78, velocity=69, time=0),\n",
      "  Message('note_on', channel=0, note=55, velocity=50, time=6062),\n",
      "  Message('control_change', channel=0, control=64, value=0, time=17126),\n",
      "  Message('note_off', channel=0, note=78, velocity=69, time=1061),\n",
      "  Message('note_off', channel=0, note=55, velocity=50, time=0),\n",
      "  Message('note_on', channel=0, note=76, velocity=71, time=0),\n",
      "  Message('note_on', channel=0, note=61, velocity=54, time=0),\n",
      "  Message('control_change', channel=0, control=64, value=127, time=7611),\n",
      "  Message('note_off', channel=0, note=71, velocity=41, time=29666),\n",
      "  Message('note_off', channel=0, note=76, velocity=71, time=0),\n",
      "  Message('note_off', channel=0, note=61, velocity=54, time=0),\n",
      "  Message('note_on', channel=0, note=71, velocity=69, time=0),\n",
      "  Message('note_on', channel=0, note=55, velocity=47, time=0),\n",
      "  Message('control_change', channel=0, control=64, value=0, time=25909),\n",
      "  Message('note_off', channel=0, note=67, velocity=41, time=12474),\n",
      "  Message('note_off', channel=0, note=47, velocity=51, time=0),\n",
      "  Message('note_off', channel=0, note=71, velocity=69, time=0),\n",
      "  Message('note_off', channel=0, note=55, velocity=47, time=0),\n",
      "  Message('note_on', channel=0, note=66, velocity=50, time=0),\n",
      "  Message('note_on', channel=0, note=71, velocity=50, time=0),\n",
      "  Message('note_on', channel=0, note=74, velocity=71, time=0),\n",
      "  Message('note_on', channel=0, note=47, velocity=49, time=0),\n",
      "  Message('control_change', channel=0, control=64, value=127, time=917),\n",
      "  Message('note_on', channel=0, note=53, velocity=46, time=23531),\n",
      "  Message('control_change', channel=0, control=64, value=0, time=4126),\n",
      "  Message('note_off', channel=0, note=53, velocity=46, time=20322),\n",
      "  Message('note_on', channel=0, note=54, velocity=49, time=0),\n",
      "  Message('note_on', channel=0, note=57, velocity=45, time=14513),\n",
      "  Message('note_off', channel=0, note=54, velocity=49, time=8473),\n",
      "  Message('note_off', channel=0, note=57, velocity=45, time=0),\n",
      "  Message('note_on', channel=0, note=55, velocity=49, time=0),\n",
      "  Message('note_off', channel=0, note=74, velocity=71, time=37552),\n",
      "  Message('note_off', channel=0, note=55, velocity=49, time=0),\n",
      "  Message('note_on', channel=0, note=74, velocity=68, time=0),\n",
      "  Message('note_on', channel=0, note=54, velocity=43, time=0),\n",
      "  Message('note_off', channel=0, note=66, velocity=50, time=36373),\n",
      "  Message('note_off', channel=0, note=71, velocity=50, time=0),\n",
      "  Message('note_off', channel=0, note=47, velocity=49, time=0),\n",
      "  Message('note_off', channel=0, note=74, velocity=68, time=0),\n",
      "  Message('note_off', channel=0, note=54, velocity=43, time=0),\n",
      "  Message('note_on', channel=0, note=62, velocity=38, time=0),\n",
      "  Message('note_on', channel=0, note=66, velocity=38, time=0),\n",
      "  Message('note_on', channel=0, note=71, velocity=71, time=0),\n",
      "  Message('note_on', channel=0, note=44, velocity=48, time=0),\n",
      "  Message('control_change', channel=0, control=64, value=127, time=0),\n",
      "  Message('note_off', channel=0, note=71, velocity=71, time=22288),\n",
      "  Message('note_on', channel=0, note=73, velocity=68, time=0),\n",
      "  Message('note_off', channel=0, note=73, velocity=68, time=23485),\n",
      "  Message('note_on', channel=0, note=74, velocity=64, time=0),\n",
      "  Message('note_on', channel=0, note=49, velocity=36, time=6062),\n",
      "  Message('control_change', channel=0, control=64, value=0, time=17126),\n",
      "  Message('note_off', channel=0, note=74, velocity=64, time=1061),\n",
      "  Message('note_off', channel=0, note=49, velocity=36, time=0),\n",
      "  Message('note_on', channel=0, note=71, velocity=70, time=0),\n",
      "  Message('note_on', channel=0, note=50, velocity=42, time=0),\n",
      "  Message('control_change', channel=0, control=64, value=127, time=7611),\n",
      "  Message('note_off', channel=0, note=66, velocity=38, time=29666),\n",
      "  Message('note_off', channel=0, note=71, velocity=70, time=0),\n",
      "  Message('note_off', channel=0, note=50, velocity=42, time=0),\n",
      "  Message('note_on', channel=0, note=66, velocity=64, time=0),\n",
      "  Message('note_on', channel=0, note=56, velocity=40, time=0),\n",
      "  Message('control_change', channel=0, control=64, value=0, time=25909),\n",
      "  Message('note_off', channel=0, note=62, velocity=38, time=12474),\n",
      "  Message('note_off', channel=0, note=44, velocity=48, time=0),\n",
      "  Message('note_off', channel=0, note=66, velocity=64, time=0),\n",
      "  Message('note_off', channel=0, note=56, velocity=40, time=0),\n",
      "  Message('note_on', channel=0, note=66, velocity=47, time=0),\n",
      "  Message('note_on', channel=0, note=61, velocity=47, time=0),\n",
      "  Message('note_on', channel=0, note=70, velocity=68, time=0),\n",
      "  Message('note_on', channel=0, note=37, velocity=46, time=0),\n",
      "  Message('control_change', channel=0, control=64, value=127, time=917),\n",
      "  Message('note_off', channel=0, note=37, velocity=46, time=23531),\n",
      "  Message('note_on', channel=0, note=48, velocity=42, time=0),\n",
      "  Message('control_change', channel=0, control=64, value=0, time=4126),\n",
      "  Message('note_off', channel=0, note=48, velocity=42, time=20322),\n",
      "  Message('note_on', channel=0, note=49, velocity=41, time=0),\n",
      "  Message('note_on', channel=0, note=53, velocity=34, time=14513),\n",
      "  Message('note_off', channel=0, note=49, velocity=41, time=8473),\n",
      "  Message('note_off', channel=0, note=53, velocity=34, time=0),\n",
      "  Message('note_on', channel=0, note=51, velocity=39, time=0),\n",
      "  Message('note_off', channel=0, note=70, velocity=68, time=37552),\n",
      "  Message('note_off', channel=0, note=51, velocity=39, time=0),\n",
      "  Message('note_on', channel=0, note=70, velocity=57, time=0),\n",
      "  Message('note_on', channel=0, note=49, velocity=43, time=0),\n",
      "  Message('note_off', channel=0, note=66, velocity=47, time=36373),\n",
      "  Message('note_off', channel=0, note=61, velocity=47, time=0),\n",
      "  Message('note_off', channel=0, note=70, velocity=57, time=0),\n",
      "  Message('note_off', channel=0, note=49, velocity=43, time=0),\n",
      "  Message('note_on', channel=0, note=68, velocity=57, time=0),\n",
      "  Message('note_on', channel=0, note=65, velocity=36, time=0),\n",
      "  Message('note_on', channel=0, note=59, velocity=45, time=0),\n",
      "  Message('note_on', channel=0, note=49, velocity=45, time=0),\n",
      "  Message('control_change', channel=0, control=64, value=127, time=0),\n",
      "  Message('note_off', channel=0, note=68, velocity=57, time=22288),\n",
      "  Message('note_off', channel=0, note=59, velocity=45, time=0),\n",
      "  Message('note_on', channel=0, note=70, velocity=63, time=0),\n",
      "  Message('note_on', channel=0, note=61, velocity=46, time=0),\n",
      "  Message('note_off', channel=0, note=65, velocity=36, time=19278),\n",
      "  Message('note_on', channel=0, note=73, velocity=45, time=0),\n",
      "  Message('note_on', channel=0, note=65, velocity=28, time=0),\n",
      "  Message('note_off', channel=0, note=70, velocity=63, time=8670),\n",
      "  Message('note_off', channel=0, note=61, velocity=46, time=0),\n",
      "  Message('note_off', channel=0, note=73, velocity=45, time=0),\n",
      "  Message('note_on', channel=0, note=71, velocity=51, time=0),\n",
      "  Message('note_on', channel=0, note=63, velocity=32, time=0),\n",
      "  Message('control_change', channel=0, control=64, value=0, time=23188),\n",
      "  Message('note_off', channel=0, note=65, velocity=28, time=1061),\n",
      "  Message('note_off', channel=0, note=71, velocity=51, time=0),\n",
      "  Message('note_off', channel=0, note=63, velocity=32, time=0),\n",
      "  Message('note_on', channel=0, note=70, velocity=60, time=0),\n",
      "  Message('note_on', channel=0, note=61, velocity=40, time=0),\n",
      "  Message('control_change', channel=0, control=64, value=127, time=7676),\n",
      "  Message('note_off', channel=0, note=70, velocity=60, time=29920),\n",
      "  Message('note_off', channel=0, note=61, velocity=40, time=0),\n",
      "  Message('note_on', channel=0, note=68, velocity=52, time=0),\n",
      "  Message('note_on', channel=0, note=59, velocity=35, time=0),\n",
      "  Message('control_change', channel=0, control=64, value=0, time=25909),\n",
      "  Message('note_off', channel=0, note=49, velocity=45, time=12474),\n",
      "  Message('note_off', channel=0, note=68, velocity=52, time=0),\n",
      "  Message('note_off', channel=0, note=59, velocity=35, time=0),\n",
      "  Message('note_on', channel=0, note=73, velocity=58, time=0),\n",
      "  Message('note_on', channel=0, note=61, velocity=44, time=0),\n",
      "  Message('note_on', channel=0, note=66, velocity=44, time=0),\n",
      "  Message('note_on', channel=0, note=70, velocity=44, time=0),\n",
      "  Message('note_on', channel=0, note=42, velocity=41, time=0),\n",
      "  Message('control_change', channel=0, control=64, value=127, time=8709),\n",
      "  Message('control_change', channel=0, control=64, value=0, time=19864),\n",
      "  Message('note_on', channel=0, note=48, velocity=29, time=34835),\n",
      "  Message('note_off', channel=0, note=48, velocity=29, time=8473),\n",
      "  Message('note_on', channel=0, note=49, velocity=34, time=0),\n",
      "  Message('note_off', channel=0, note=73, velocity=58, time=37552),\n",
      "  Message('note_off', channel=0, note=61, velocity=44, time=0),\n",
      "  Message('note_off', channel=0, note=70, velocity=44, time=0),\n",
      "  Message('note_off', channel=0, note=49, velocity=34, time=0),\n",
      "  Message('note_on', channel=0, note=70, velocity=48, time=0),\n",
      "  Message('note_on', channel=0, note=61, velocity=36, time=0),\n",
      "  Message('note_off', channel=0, note=66, velocity=44, time=36373),\n",
      "  Message('note_off', channel=0, note=42, velocity=41, time=0),\n",
      "  Message('note_off', channel=0, note=70, velocity=48, time=0),\n",
      "  Message('note_off', channel=0, note=61, velocity=36, time=0),\n",
      "  Message('note_on', channel=0, note=71, velocity=48, time=0),\n",
      "  Message('note_on', channel=0, note=65, velocity=34, time=0),\n",
      "  Message('note_on', channel=0, note=42, velocity=45, time=0),\n",
      "  Message('control_change', channel=0, control=64, value=127, time=0),\n",
      "  Message('note_off', channel=0, note=71, velocity=48, time=22288),\n",
      "  Message('note_on', channel=0, note=73, velocity=53, time=0),\n",
      "  Message('note_off', channel=0, note=73, velocity=53, time=25629),\n",
      "  Message('note_on', channel=0, note=77, velocity=51, time=0),\n",
      "  Message('note_on', channel=0, note=49, velocity=36, time=6062),\n",
      "  Message('control_change', channel=0, control=64, value=0, time=17126),\n",
      "  Message('note_off', channel=0, note=77, velocity=51, time=1061),\n",
      "  Message('note_off', channel=0, note=49, velocity=36, time=0),\n",
      "  Message('note_on', channel=0, note=75, velocity=53, time=0),\n",
      "  Message('note_on', channel=0, note=59, velocity=38, time=0),\n",
      "  Message('control_change', channel=0, control=64, value=127, time=7611),\n",
      "  Message('note_off', channel=0, note=75, velocity=53, time=1709),\n",
      "  Message('note_on', channel=0, note=77, velocity=46, time=0),\n",
      "  Message('note_off', channel=0, note=77, velocity=46, time=9319),\n",
      "  Message('note_on', channel=0, note=75, velocity=46, time=0),\n",
      "  Message('note_off', channel=0, note=42, velocity=45, time=18638),\n",
      "  Message('note_off', channel=0, note=59, velocity=38, time=0),\n",
      "  Message('note_off', channel=0, note=75, velocity=46, time=0),\n",
      "  Message('note_on', channel=0, note=73, velocity=51, time=0),\n",
      "  Message('note_on', channel=0, note=54, velocity=33, time=0),\n",
      "  Message('control_change', channel=0, control=64, value=0, time=25909),\n",
      "  Message('note_off', channel=0, note=65, velocity=34, time=12474),\n",
      "  Message('note_off', channel=0, note=73, velocity=51, time=0),\n",
      "  Message('note_off', channel=0, note=54, velocity=33, time=0),\n",
      "  Message('note_on', channel=0, note=70, velocity=34, time=0),\n",
      "  Message('note_on', channel=0, note=61, velocity=48, time=0),\n",
      "  Message('note_on', channel=0, note=42, velocity=45, time=0),\n",
      "  Message('control_change', channel=0, control=64, value=127, time=0),\n",
      "  Message('note_off', channel=0, note=61, velocity=48, time=22288),\n",
      "  Message('note_on', channel=0, note=63, velocity=53, time=0),\n",
      "  Message('note_off', channel=0, note=63, velocity=53, time=25629),\n",
      "  Message('note_on', channel=0, note=65, velocity=51, time=0),\n",
      "  Message('note_on', channel=0, note=49, velocity=36, time=6062),\n",
      "  Message('control_change', channel=0, control=64, value=0, time=17126),\n",
      "  Message('note_off', channel=0, note=65, velocity=51, time=1061),\n",
      "  Message('note_off', channel=0, note=49, velocity=36, time=0),\n",
      "  Message('note_on', channel=0, note=63, velocity=47, time=0),\n",
      "  Message('note_on', channel=0, note=58, velocity=38, time=0),\n",
      "  Message('note_off', channel=0, note=63, velocity=47, time=7034),\n",
      "  Message('note_on', channel=0, note=65, velocity=37, time=0),\n",
      "  Message('control_change', channel=0, control=64, value=127, time=1583),\n",
      "  Message('note_off', channel=0, note=65, velocity=37, time=5452),\n",
      "  Message('note_on', channel=0, note=63, velocity=37, time=0),\n",
      "  Message('note_off', channel=0, note=63, velocity=37, time=14069),\n",
      "  Message('note_on', channel=0, note=61, velocity=40, time=0),\n",
      "  Message('note_off', channel=0, note=42, velocity=45, time=13435),\n",
      "  Message('note_off', channel=0, note=58, velocity=38, time=0),\n",
      "  Message('note_on', channel=0, note=49, velocity=33, time=0),\n",
      "  Message('note_off', channel=0, note=70, velocity=34, time=13435),\n",
      "  Message('note_off', channel=0, note=61, velocity=40, time=0),\n",
      "  Message('note_on', channel=0, note=70, velocity=47, time=0),\n",
      "  Message('note_on', channel=0, note=66, velocity=40, time=0),\n",
      "  Message('control_change', channel=0, control=64, value=0, time=13065),\n",
      "  Message('note_off', channel=0, note=49, velocity=33, time=12428),\n",
      "  Message('note_off', channel=0, note=70, velocity=47, time=0),\n",
      "  Message('note_off', channel=0, note=66, velocity=40, time=0),\n",
      "  Message('note_on', channel=0, note=71, velocity=34, time=0),\n",
      "  Message('note_on', channel=0, note=66, velocity=48, time=0),\n",
      "  Message('note_on', channel=0, note=42, velocity=45, time=0),\n",
      "  Message('control_change', channel=0, control=64, value=127, time=0),\n",
      "  Message('note_off', channel=0, note=66, velocity=48, time=22288),\n",
      "  Message('note_on', channel=0, note=65, velocity=52, time=0),\n",
      "  Message('note_off', channel=0, note=65, velocity=52, time=25629),\n",
      "  Message('note_on', channel=0, note=63, velocity=48, time=0),\n",
      "  Message('note_on', channel=0, note=49, velocity=36, time=6062),\n",
      "  Message('control_change', channel=0, control=64, value=0, time=17126),\n",
      "  Message('note_off', channel=0, note=71, velocity=34, time=1061),\n",
      "  Message('note_off', channel=0, note=63, velocity=48, time=0),\n",
      "  Message('note_off', channel=0, note=49, velocity=36, time=0),\n",
      "  Message('note_on', channel=0, note=65, velocity=46, time=0),\n",
      "  Message('note_on', channel=0, note=71, velocity=46, time=0),\n",
      "  Message('note_on', channel=0, note=56, velocity=38, time=0),\n",
      "  Message('control_change', channel=0, control=64, value=127, time=8617),\n",
      "  Message('note_off', channel=0, note=42, velocity=45, time=31948),\n",
      "  Message('note_off', channel=0, note=65, velocity=46, time=0),\n",
      "  Message('note_off', channel=0, note=56, velocity=38, time=0),\n",
      "  Message('note_on', channel=0, note=61, velocity=46, time=0),\n",
      "  Message('note_on', channel=0, note=49, velocity=33, time=0),\n",
      "  Message('control_change', channel=0, control=64, value=0, time=25909),\n",
      "  Message('note_off', channel=0, note=71, velocity=46, time=12474),\n",
      "  Message('note_off', channel=0, note=61, velocity=46, time=0),\n",
      "  Message('note_off', channel=0, note=49, velocity=33, time=0),\n",
      "  Message('note_on', channel=0, note=66, velocity=34, time=0),\n",
      "  Message('note_on', channel=0, note=70, velocity=48, time=0),\n",
      "  Message('note_on', channel=0, note=42, velocity=45, time=0),\n",
      "  Message('control_change', channel=0, control=64, value=127, time=0),\n",
      "  Message('note_off', channel=0, note=70, velocity=48, time=22288),\n",
      "  Message('note_on', channel=0, note=71, velocity=53, time=0),\n",
      "  Message('note_off', channel=0, note=71, velocity=53, time=22288),\n",
      "  Message('note_on', channel=0, note=72, velocity=54, time=0),\n",
      "  Message('note_on', channel=0, note=49, velocity=37, time=5965),\n",
      "  Message('control_change', channel=0, control=64, value=0, time=16852),\n",
      "  Message('note_off', channel=0, note=72, velocity=54, time=1044),\n",
      "  Message('note_off', channel=0, note=49, velocity=37, time=0),\n",
      "  Message('note_on', channel=0, note=73, velocity=57, time=0),\n",
      "  Message('note_on', channel=0, note=58, velocity=44, time=0),\n",
      "  Message('control_change', channel=0, control=64, value=127, time=8013),\n",
      "  Message('note_on', channel=0, note=77, velocity=46, time=8340),\n",
      "  Message('note_off', channel=0, note=73, velocity=57, time=9811),\n",
      "  Message('note_off', channel=0, note=77, velocity=46, time=0),\n",
      "  Message('note_on', channel=0, note=75, velocity=49, time=0),\n",
      "  Message('note_off', channel=0, note=42, velocity=45, time=14765),\n",
      "  Message('note_off', channel=0, note=58, velocity=44, time=0),\n",
      "  Message('note_on', channel=0, note=54, velocity=33, time=0),\n",
      "  Message('note_off', channel=0, note=75, velocity=49, time=12856),\n",
      "  Message('note_on', channel=0, note=73, velocity=48, time=0),\n",
      "  Message('control_change', channel=0, control=64, value=0, time=13178),\n",
      "  Message('note_off', channel=0, note=66, velocity=34, time=12535),\n",
      "  Message('note_off', channel=0, note=54, velocity=33, time=0),\n",
      "  Message('note_off', channel=0, note=73, velocity=48, time=0),\n",
      "  Message('note_on', channel=0, note=65, velocity=34, time=0),\n",
      "  Message('note_on', channel=0, note=71, velocity=48, time=0),\n",
      "  Message('note_on', channel=0, note=42, velocity=45, time=0),\n",
      "  Message('control_change', channel=0, control=64, value=127, time=0),\n",
      "  Message('note_off', channel=0, note=71, velocity=48, time=22288),\n",
      "  Message('note_on', channel=0, note=73, velocity=53, time=0),\n",
      "  Message('note_off', channel=0, note=73, velocity=53, time=25629),\n",
      "  Message('note_on', channel=0, note=77, velocity=51, time=0),\n",
      "  Message('note_on', channel=0, note=49, velocity=36, time=6062),\n",
      "  Message('control_change', channel=0, control=64, value=0, time=17126),\n",
      "  Message('note_off', channel=0, note=77, velocity=51, time=1061),\n",
      "  Message('note_off', channel=0, note=49, velocity=36, time=0),\n",
      "  Message('note_on', channel=0, note=75, velocity=55, time=0),\n",
      "  Message('note_on', channel=0, note=59, velocity=38, time=0),\n",
      "  Message('control_change', channel=0, control=64, value=127, time=7611),\n",
      "  Message('note_off', channel=0, note=75, velocity=55, time=1709),\n",
      "  Message('note_on', channel=0, note=77, velocity=48, time=0),\n",
      "  Message('note_off', channel=0, note=77, velocity=48, time=9319),\n",
      "  Message('note_on', channel=0, note=75, velocity=47, time=0),\n",
      "  Message('note_off', channel=0, note=42, velocity=45, time=18638),\n",
      "  Message('note_off', channel=0, note=59, velocity=38, time=0),\n",
      "  Message('note_off', channel=0, note=75, velocity=47, time=0),\n",
      "  Message('note_on', channel=0, note=73, velocity=51, time=0),\n",
      "  Message('note_on', channel=0, note=54, velocity=33, time=0),\n",
      "  Message('control_change', channel=0, control=64, value=0, time=25909),\n",
      "  Message('note_off', channel=0, note=65, velocity=34, time=12474),\n",
      "  Message('note_off', channel=0, note=73, velocity=51, time=0),\n",
      "  Message('note_off', channel=0, note=54, velocity=33, time=0),\n",
      "  Message('note_on', channel=0, note=66, velocity=44, time=0),\n",
      "  Message('note_on', channel=0, note=61, velocity=44, time=0),\n",
      "  Message('note_on', channel=0, note=70, velocity=52, time=0),\n",
      "  Message('note_on', channel=0, note=42, velocity=45, time=0),\n",
      "  Message('control_change', channel=0, control=64, value=127, time=8956),\n",
      "  Message('control_change', channel=0, control=64, value=0, time=64451),\n",
      "  Message('note_off', channel=0, note=66, velocity=44, time=3359),\n",
      "  Message('note_off', channel=0, note=61, velocity=44, time=0),\n",
      "  Message('note_off', channel=0, note=70, velocity=52, time=0),\n",
      "  Message('note_off', channel=0, note=42, velocity=45, time=0),\n",
      "  Message('note_on', channel=0, note=62, velocity=44, time=0),\n",
      "  Message('note_on', channel=0, note=66, velocity=44, time=0),\n",
      "  Message('note_on', channel=0, note=69, velocity=57, time=0),\n",
      "  Message('note_on', channel=0, note=50, velocity=35, time=0),\n",
      "  Message('note_on', channel=0, note=60, velocity=35, time=0),\n",
      "  Message('control_change', channel=0, control=64, value=127, time=8030),\n",
      "  Message('note_off', channel=0, note=69, velocity=57, time=14913),\n",
      "  Message('note_on', channel=0, note=74, velocity=50, time=0),\n",
      "  Message('note_off', channel=0, note=74, velocity=50, time=22943),\n",
      "  Message('note_on', channel=0, note=71, velocity=50, time=0),\n",
      "  Message('control_change', channel=0, control=64, value=0, time=10390),\n",
      "  Message('note_off', channel=0, note=62, velocity=44, time=14057),\n",
      "  Message('note_off', channel=0, note=66, velocity=44, time=0),\n",
      "  Message('note_off', channel=0, note=50, velocity=35, time=0),\n",
      "  Message('note_off', channel=0, note=60, velocity=35, time=0),\n",
      "  Message('note_off', channel=0, note=71, velocity=50, time=0),\n",
      "  Message('note_on', channel=0, note=62, velocity=40, time=0),\n",
      "  Message('note_on', channel=0, note=69, velocity=52, time=0),\n",
      "  Message('note_on', channel=0, note=55, velocity=38, time=0),\n",
      "  Message('note_on', channel=0, note=60, velocity=38, time=0),\n",
      "  Message('control_change', channel=0, control=64, value=127, time=7600),\n",
      "  Message('note_off', channel=0, note=69, velocity=52, time=15343),\n",
      "  Message('note_on', channel=0, note=67, velocity=44, time=0),\n",
      "  Message('note_off', channel=0, note=60, velocity=38, time=22943),\n",
      "  Message('note_off', channel=0, note=67, velocity=44, time=0),\n",
      "  Message('note_on', channel=0, note=74, velocity=44, time=0),\n",
      "  Message('note_on', channel=0, note=59, velocity=34, time=0),\n",
      "  Message('note_off', channel=0, note=62, velocity=40, time=24249),\n",
      "  Message('note_off', channel=0, note=55, velocity=38, time=0),\n",
      "  Message('note_off', channel=0, note=74, velocity=44, time=0),\n",
      "  Message('note_off', channel=0, note=59, velocity=34, time=0),\n",
      "  Message('note_on', channel=0, note=65, velocity=47, time=0),\n",
      "  Message('note_on', channel=0, note=61, velocity=35, time=0),\n",
      "  Message('note_on', channel=0, note=49, velocity=35, time=0),\n",
      "  Message('note_on', channel=0, note=59, velocity=35, time=0),\n",
      "  Message('control_change', channel=0, control=64, value=0, time=0),\n",
      "  Message('control_change', channel=0, control=64, value=127, time=21452),\n",
      "  Message('note_off', channel=0, note=65, velocity=47, time=14055),\n",
      "  Message('note_on', channel=0, note=73, velocity=49, time=0),\n",
      "  Message('control_change', channel=0, control=64, value=0, time=32113),\n",
      "  Message('note_off', channel=0, note=61, velocity=35, time=5483),\n",
      "  Message('note_off', channel=0, note=49, velocity=35, time=0),\n",
      "  Message('note_off', channel=0, note=59, velocity=35, time=0),\n",
      "  Message('note_off', channel=0, note=73, velocity=49, time=0),\n",
      "  Message('note_on', channel=0, note=61, velocity=44, time=0),\n",
      "  Message('note_on', channel=0, note=66, velocity=48, time=0),\n",
      "  Message('note_on', channel=0, note=54, velocity=37, time=0),\n",
      "  Message('note_on', channel=0, note=58, velocity=37, time=0),\n",
      "  Message('control_change', channel=0, control=64, value=127, time=9157),\n",
      "  Message('control_change', channel=0, control=64, value=0, time=65899),\n",
      "  Message('note_off', channel=0, note=61, velocity=44, time=3434),\n",
      "  Message('note_off', channel=0, note=66, velocity=48, time=0),\n",
      "  Message('note_off', channel=0, note=54, velocity=37, time=0),\n",
      "  Message('note_off', channel=0, note=58, velocity=37, time=0),\n",
      "  Message('note_on', channel=0, note=60, velocity=51, time=0),\n",
      "  Message('note_on', channel=0, note=63, velocity=51, time=0),\n",
      "  Message('note_on', channel=0, note=66, velocity=60, time=0),\n",
      "  Message('note_on', channel=0, note=47, velocity=35, time=0),\n",
      "  Message('note_on', channel=0, note=57, velocity=35, time=0),\n",
      "  Message('control_change', channel=0, control=64, value=127, time=8030),\n",
      "  Message('note_off', channel=0, note=66, velocity=60, time=14913),\n",
      "  Message('note_on', channel=0, note=69, velocity=53, time=0),\n",
      "  Message('note_off', channel=0, note=69, velocity=53, time=22943),\n",
      "  Message('note_on', channel=0, note=67, velocity=53, time=0),\n",
      "  Message('control_change', channel=0, control=64, value=0, time=10390),\n",
      "  Message('note_off', channel=0, note=60, velocity=51, time=14057),\n",
      "  Message('note_off', channel=0, note=63, velocity=51, time=0),\n",
      "  Message('note_off', channel=0, note=47, velocity=35, time=0),\n",
      "  Message('note_off', channel=0, note=57, velocity=35, time=0),\n",
      "  Message('note_off', channel=0, note=67, velocity=53, time=0),\n",
      "  Message('note_on', channel=0, note=59, velocity=47, time=0),\n",
      "  Message('note_on', channel=0, note=66, velocity=56, time=0),\n",
      "  Message('note_on', channel=0, note=52, velocity=45, time=0),\n",
      "  Message('note_on', channel=0, note=57, velocity=45, time=0),\n",
      "  Message('control_change', channel=0, control=64, value=127, time=7600),\n",
      "  Message('note_off', channel=0, note=66, velocity=56, time=15343),\n",
      "  Message('note_on', channel=0, note=64, velocity=51, time=0),\n",
      "  Message('note_off', channel=0, note=57, velocity=45, time=22943),\n",
      "  Message('note_off', channel=0, note=64, velocity=51, time=0),\n",
      "  Message('note_on', channel=0, note=71, velocity=50, time=0),\n",
      "  Message('note_on', channel=0, note=55, velocity=34, time=0),\n",
      "  Message('control_change', channel=0, control=64, value=0, time=24064),\n",
      "  Message('note_off', channel=0, note=59, velocity=47, time=3050),\n",
      "  Message('note_off', channel=0, note=52, velocity=45, time=0),\n",
      "  Message('note_off', channel=0, note=71, velocity=50, time=0),\n",
      "  Message('note_off', channel=0, note=55, velocity=34, time=0),\n",
      "  Message('note_on', channel=0, note=64, velocity=50, time=0),\n",
      "  Message('note_on', channel=0, note=61, velocity=42, time=0),\n",
      "  Message('note_on', channel=0, note=45, velocity=35, time=0),\n",
      "  Message('note_on', channel=0, note=55, velocity=35, time=0),\n",
      "  Message('control_change', channel=0, control=64, value=127, time=2509),\n",
      "  Message('note_off', channel=0, note=64, velocity=50, time=40509),\n",
      "  Message('note_on', channel=0, note=65, velocity=46, time=0),\n",
      "  Message('control_change', channel=0, control=64, value=0, time=41994),\n",
      "  Message('note_off', channel=0, note=61, velocity=42, time=7170),\n",
      "  Message('note_off', channel=0, note=45, velocity=35, time=0),\n",
      "  Message('note_off', channel=0, note=55, velocity=35, time=0),\n",
      "  Message('note_off', channel=0, note=65, velocity=46, time=0),\n",
      "  Message('note_on', channel=0, note=57, velocity=32, time=0),\n",
      "  Message('note_on', channel=0, note=62, velocity=32, time=0),\n",
      "  Message('note_on', channel=0, note=66, velocity=51, time=0),\n",
      "  Message('note_on', channel=0, note=38, velocity=28, time=0),\n",
      "  Message('control_change', channel=0, control=64, value=127, time=0),\n",
      "  Message('note_off', channel=0, note=66, velocity=51, time=22768),\n",
      "  Message('note_on', channel=0, note=66, velocity=49, time=0),\n",
      "  Message('note_off', channel=0, note=66, velocity=49, time=22768),\n",
      "  Message('note_on', channel=0, note=66, velocity=45, time=0),\n",
      "  Message('note_off', channel=0, note=57, velocity=32, time=6214),\n",
      "  Message('note_off', channel=0, note=62, velocity=32, time=0),\n",
      "  Message('note_off', channel=0, note=66, velocity=45, time=9321),\n",
      "  Message('note_on', channel=0, note=66, velocity=40, time=0),\n",
      "  Message('note_on', channel=0, note=56, velocity=33, time=0),\n",
      "  Message('control_change', channel=0, control=64, value=0, time=1252),\n",
      "  Message('note_off', channel=0, note=66, velocity=40, time=2921),\n",
      "  Message('note_on', channel=0, note=69, velocity=37, time=0),\n",
      "  Message('note_off', channel=0, note=38, velocity=28, time=4173),\n",
      "  Message('note_off', channel=0, note=56, velocity=33, time=0),\n",
      "  Message('note_off', channel=0, note=69, velocity=37, time=0),\n",
      "  Message('note_on', channel=0, note=67, velocity=53, time=0),\n",
      "  Message('note_on', channel=0, note=57, velocity=36, time=0),\n",
      "  Message('control_change', channel=0, control=64, value=127, time=7329),\n",
      "  Message('note_off', channel=0, note=67, velocity=53, time=30910),\n",
      "  Message('note_off', channel=0, note=57, velocity=36, time=0),\n",
      "  Message('note_on', channel=0, note=66, velocity=48, time=0),\n",
      "  Message('note_on', channel=0, note=45, velocity=35, time=0),\n",
      "  Message('control_change', channel=0, control=64, value=0, time=33588),\n",
      "  Message('note_off', channel=0, note=66, velocity=48, time=6718),\n",
      "  Message('note_off', channel=0, note=45, velocity=35, time=0),\n",
      "  Message('note_on', channel=0, note=66, velocity=30, time=0),\n",
      "  Message('note_on', channel=0, note=57, velocity=30, time=0),\n",
      "  Message('note_on', channel=0, note=62, velocity=30, time=0),\n",
      "  Message('note_on', channel=0, note=69, velocity=49, time=0),\n",
      "  Message('note_on', channel=0, note=38, velocity=28, time=0),\n",
      "  Message('control_change', channel=0, control=64, value=127, time=12238),\n",
      "  Message('note_on', channel=0, note=56, velocity=33, time=47214),\n",
      "  Message('control_change', channel=0, control=64, value=0, time=1234),\n",
      "  Message('note_off', channel=0, note=57, velocity=30, time=6991),\n",
      "  Message('note_off', channel=0, note=38, velocity=28, time=0),\n",
      "  Message('note_off', channel=0, note=56, velocity=33, time=0),\n",
      "  Message('note_on', channel=0, note=57, velocity=39, time=0),\n",
      "  Message('control_change', channel=0, control=64, value=127, time=7197),\n",
      "  Message('note_off', channel=0, note=66, velocity=30, time=30354),\n",
      "  Message('note_off', channel=0, note=62, velocity=30, time=0),\n",
      "  Message('note_off', channel=0, note=69, velocity=49, time=0),\n",
      "  Message('note_off', channel=0, note=57, velocity=39, time=0),\n",
      "  Message('note_on', channel=0, note=66, velocity=47, time=0),\n",
      "  Message('note_on', channel=0, note=74, velocity=51, time=0),\n",
      "  Message('note_on', channel=0, note=45, velocity=37, time=0),\n",
      "  Message('note_off', channel=0, note=74, velocity=51, time=19051),\n",
      "  Message('note_on', channel=0, note=76, velocity=57, time=0),\n",
      "  Message('control_change', channel=0, control=64, value=0, time=14274),\n",
      "  Message('note_off', channel=0, note=66, velocity=47, time=7137),\n",
      "  Message('note_off', channel=0, note=45, velocity=37, time=0),\n",
      "  Message('note_off', channel=0, note=76, velocity=57, time=0),\n",
      "  Message('note_on', channel=0, note=66, velocity=49, time=0),\n",
      "  Message('note_on', channel=0, note=78, velocity=60, time=0),\n",
      "  Message('note_on', channel=0, note=50, velocity=38, time=0),\n",
      "  Message('control_change', channel=0, control=64, value=127, time=0),\n",
      "  Message('note_off', channel=0, note=78, velocity=60, time=51134),\n",
      "  Message('note_on', channel=0, note=73, velocity=51, time=0),\n",
      "  Message('note_on', channel=0, note=76, velocity=42, time=8222),\n",
      "  Message('note_on', channel=0, note=56, velocity=33, time=0),\n",
      "  Message('control_change', channel=0, control=64, value=0, time=1222),\n",
      "  Message('note_off', channel=0, note=50, velocity=38, time=6925),\n",
      "  Message('note_off', channel=0, note=73, velocity=51, time=0),\n",
      "  Message('note_off', channel=0, note=76, velocity=42, time=0),\n",
      "  Message('note_off', channel=0, note=56, velocity=33, time=0),\n",
      "  Message('note_on', channel=0, note=74, velocity=58, time=0),\n",
      "  Message('note_on', channel=0, note=57, velocity=37, time=0),\n",
      "  Message('control_change', channel=0, control=64, value=127, time=6836),\n",
      "  Message('note_off', channel=0, note=66, velocity=49, time=28476),\n",
      "  Message('note_off', channel=0, note=74, velocity=58, time=0),\n",
      "  Message('note_off', channel=0, note=57, velocity=37, time=0),\n",
      "  Message('note_on', channel=0, note=71, velocity=52, time=0),\n",
      "  Message('note_on', channel=0, note=65, velocity=39, time=0),\n",
      "  Message('note_on', channel=0, note=51, velocity=36, time=0),\n",
      "  Message('note_off', channel=0, note=65, velocity=39, time=20564),\n",
      "  Message('note_on', channel=0, note=66, velocity=41, time=0),\n",
      "  Message('control_change', channel=0, control=64, value=0, time=14395),\n",
      "  Message('note_off', channel=0, note=71, velocity=52, time=7197),\n",
      "  Message('note_off', channel=0, note=51, velocity=36, time=0),\n",
      "  Message('note_off', channel=0, note=66, velocity=41, time=0),\n",
      "  Message('note_on', channel=0, note=61, velocity=42, time=0),\n",
      "  Message('note_on', channel=0, note=67, velocity=46, time=0),\n",
      "  Message('note_on', channel=0, note=52, velocity=36, time=0),\n",
      "  Message('control_change', channel=0, control=64, value=127, time=7197),\n",
      "  Message('control_change', channel=0, control=64, value=0, time=53434),\n",
      "  Message('note_on', channel=0, note=56, velocity=35, time=408),\n",
      "  Message('note_off', channel=0, note=52, velocity=36, time=8164),\n",
      "  Message('note_off', channel=0, note=56, velocity=35, time=0),\n",
      "  Message('note_on', channel=0, note=57, velocity=39, time=0),\n",
      "  Message('control_change', channel=0, control=64, value=127, time=6946),\n",
      "  Message('note_off', channel=0, note=61, velocity=42, time=29292),\n",
      "  Message('note_off', channel=0, note=67, velocity=46, time=0),\n",
      "  Message('note_off', channel=0, note=57, velocity=39, time=0),\n",
      "  Message('note_on', channel=0, note=64, velocity=42, time=0),\n",
      "  Message('note_on', channel=0, note=67, velocity=46, time=0),\n",
      "  Message('note_on', channel=0, note=45, velocity=36, time=0),\n",
      "  Message('note_off', channel=0, note=64, velocity=42, time=20564),\n",
      "  Message('note_off', channel=0, note=67, velocity=46, time=0),\n",
      "  Message('note_on', channel=0, note=66, velocity=42, time=0),\n",
      "  Message('note_on', channel=0, note=69, velocity=46, time=0),\n",
      "  Message('control_change', channel=0, control=64, value=0, time=13709),\n",
      "  Message('note_off', channel=0, note=45, velocity=36, time=6855),\n",
      "  Message('note_off', channel=0, note=66, velocity=42, time=0),\n",
      "  Message('note_off', channel=0, note=69, velocity=46, time=0),\n",
      "  Message('note_on', channel=0, note=67, velocity=47, time=0),\n",
      "  Message('note_on', channel=0, note=71, velocity=51, time=0),\n",
      "  Message('note_on', channel=0, note=49, velocity=36, time=0),\n",
      "  Message('control_change', channel=0, control=64, value=127, time=7197),\n",
      "  Message('note_off', channel=0, note=67, velocity=47, time=45678),\n",
      "  Message('note_off', channel=0, note=71, velocity=51, time=0),\n",
      "  Message('note_on', channel=0, note=69, velocity=45, time=0),\n",
      "  Message('note_on', channel=0, note=73, velocity=49, time=0),\n",
      "  Message('control_change', channel=0, control=64, value=0, time=8606),\n",
      "  Message('note_on', channel=0, note=56, velocity=37, time=453),\n",
      "  Message('note_off', channel=0, note=49, velocity=36, time=9059),\n",
      "  Message('note_off', channel=0, note=69, velocity=45, time=0),\n",
      "  Message('note_off', channel=0, note=73, velocity=49, time=0),\n",
      "  Message('note_off', channel=0, note=56, velocity=37, time=0),\n",
      "  Message('note_on', channel=0, note=73, velocity=48, time=0),\n",
      "  Message('note_on', channel=0, note=76, velocity=52, time=0),\n",
      "  Message('note_on', channel=0, note=57, velocity=41, time=0),\n",
      "  Message('control_change', channel=0, control=64, value=127, time=6946),\n",
      "  Message('note_off', channel=0, note=73, velocity=48, time=29292),\n",
      "  Message('note_off', channel=0, note=76, velocity=52, time=0),\n",
      "  Message('note_off', channel=0, note=57, velocity=41, time=0),\n",
      "  Message('note_on', channel=0, note=71, velocity=45, time=0),\n",
      "  Message('note_on', channel=0, note=74, velocity=49, time=0),\n",
      "  Message('note_on', channel=0, note=45, velocity=36, time=0),\n",
      "  Message('control_change', channel=0, control=64, value=0, time=29778),\n",
      "  Message('note_off', channel=0, note=71, velocity=45, time=5956),\n",
      "  Message('note_off', channel=0, note=74, velocity=49, time=0),\n",
      "  Message('note_off', channel=0, note=45, velocity=36, time=0),\n",
      "  Message('note_on', channel=0, note=74, velocity=51, time=0),\n",
      "  Message('note_on', channel=0, note=71, velocity=47, time=0),\n",
      "  Message('note_on', channel=0, note=52, velocity=36, time=0),\n",
      "  Message('control_change', channel=0, control=64, value=127, time=6973),\n",
      "  Message('note_off', channel=0, note=74, velocity=51, time=1565),\n",
      "  Message('note_off', channel=0, note=71, velocity=47, time=0),\n",
      "  Message('note_on', channel=0, note=73, velocity=41, time=0),\n",
      "  Message('note_on', channel=0, note=76, velocity=45, time=0),\n",
      "  Message('note_off', channel=0, note=73, velocity=41, time=8538),\n",
      "  Message('note_off', channel=0, note=76, velocity=45, time=0),\n",
      "  Message('note_on', channel=0, note=71, velocity=43, time=0),\n",
      "  Message('note_on', channel=0, note=74, velocity=47, time=0),\n",
      "  Message('note_off', channel=0, note=71, velocity=43, time=21240),\n",
      "  Message('note_off', channel=0, note=74, velocity=47, time=0),\n",
      "  Message('note_on', channel=0, note=69, velocity=40, time=0),\n",
      "  Message('note_on', channel=0, note=73, velocity=40, time=0),\n",
      "  Message('control_change', channel=0, control=64, value=0, time=29110),\n",
      "  Message('note_on', channel=0, note=56, velocity=37, time=414),\n",
      "  Message('note_off', channel=0, note=52, velocity=36, time=8285),\n",
      "  Message('note_off', channel=0, note=56, velocity=37, time=0),\n",
      "  Message('note_on', channel=0, note=57, velocity=41, time=0),\n",
      "  Message('control_change', channel=0, control=64, value=127, time=7197),\n",
      "  Message('note_off', channel=0, note=69, velocity=40, time=30354),\n",
      "  Message('note_off', channel=0, note=73, velocity=40, time=0),\n",
      "  Message('note_off', channel=0, note=57, velocity=41, time=0),\n",
      "  Message('note_on', channel=0, note=73, velocity=47, time=0),\n",
      "  Message('note_on', channel=0, note=76, velocity=51, time=0),\n",
      "  Message('note_on', channel=0, note=45, velocity=36, time=0),\n",
      "  Message('note_off', channel=0, note=73, velocity=47, time=19973),\n",
      "  Message('note_off', channel=0, note=76, velocity=51, time=0),\n",
      "  Message('note_on', channel=0, note=67, velocity=41, time=0),\n",
      "  Message('note_on', channel=0, note=71, velocity=45, time=0),\n",
      "  Message('control_change', channel=0, control=64, value=0, time=13557),\n",
      "  Message('note_off', channel=0, note=45, velocity=36, time=6779),\n",
      "  Message('note_off', channel=0, note=67, velocity=41, time=0),\n",
      "  Message('note_off', channel=0, note=71, velocity=45, time=0),\n",
      "  Message('note_on', channel=0, note=74, velocity=49, time=0),\n",
      "  Message('note_on', channel=0, note=71, velocity=45, time=0),\n",
      "  Message('note_on', channel=0, note=49, velocity=36, time=0),\n",
      "  Message('control_change', channel=0, control=64, value=127, time=7779),\n",
      "  Message('note_off', channel=0, note=74, velocity=49, time=49374),\n",
      "  Message('note_off', channel=0, note=71, velocity=45, time=0),\n",
      "  Message('note_on', channel=0, note=66, velocity=40, time=0),\n",
      "  Message('note_on', channel=0, note=69, velocity=44, time=0),\n",
      "  Message('control_change', channel=0, control=64, value=0, time=7989),\n",
      "  Message('note_on', channel=0, note=56, velocity=33, time=420),\n",
      "  Message('note_off', channel=0, note=66, velocity=40, time=4205),\n",
      "  Message('note_off', channel=0, note=69, velocity=44, time=0),\n",
      "  Message('note_off', channel=0, note=49, velocity=36, time=4205),\n",
      "  Message('note_off', channel=0, note=56, velocity=33, time=0),\n",
      "  Message('note_on', channel=0, note=69, velocity=43, time=0),\n",
      "  Message('note_on', channel=0, note=73, velocity=47, time=0),\n",
      "  Message('note_on', channel=0, note=57, velocity=38, time=0),\n",
      "  Message('control_change', channel=0, control=64, value=127, time=7146),\n",
      "  Message('note_off', channel=0, note=69, velocity=43, time=11495),\n",
      "  Message('note_off', channel=0, note=73, velocity=47, time=0),\n",
      "  Message('note_off', channel=0, note=57, velocity=38, time=18641),\n",
      "  Message('note_on', channel=0, note=64, velocity=37, time=0),\n",
      "  Message('note_on', channel=0, note=67, velocity=40, time=0),\n",
      "  Message('note_on', channel=0, note=45, velocity=36, time=0),\n",
      "  Message('note_off', channel=0, note=64, velocity=37, time=19622),\n",
      "  Message('note_off', channel=0, note=67, velocity=40, time=0),\n",
      "  Message('control_change', channel=0, control=64, value=0, time=13082),\n",
      "  Message('note_off', channel=0, note=45, velocity=36, time=6541),\n",
      "  Message('note_on', channel=0, note=65, velocity=41, time=0),\n",
      "  Message('note_on', channel=0, note=71, velocity=45, time=0),\n",
      "  Message('note_on', channel=0, note=50, velocity=38, time=0),\n",
      "  Message('control_change', channel=0, control=64, value=127, time=0),\n",
      "  Message('note_off', channel=0, note=65, velocity=41, time=38904),\n",
      "  Message('note_off', channel=0, note=71, velocity=45, time=0),\n",
      "  Message('note_on', channel=0, note=66, velocity=37, time=0),\n",
      "  Message('note_on', channel=0, note=69, velocity=40, time=0),\n",
      "  Message('control_change', channel=0, control=64, value=0, time=10180),\n",
      "  Message('control_change', channel=0, control=64, value=127, time=4781),\n",
      "  Message('note_on', channel=0, note=56, velocity=37, time=12242),\n",
      "  Message('note_off', channel=0, note=50, velocity=38, time=8695),\n",
      "  Message('note_off', channel=0, note=56, velocity=37, time=0),\n",
      "  Message('note_on', channel=0, note=57, velocity=39, time=0),\n",
      "  Message('control_change', channel=0, control=64, value=0, time=36144),\n",
      "  Message('note_off', channel=0, note=66, velocity=37, time=2239),\n",
      "  Message('note_off', channel=0, note=69, velocity=40, time=0),\n",
      "  Message('note_off', channel=0, note=57, velocity=39, time=0),\n",
      "  Message('note_on', channel=0, note=62, velocity=58, time=0),\n",
      "  Message('note_on', channel=0, note=74, velocity=58, time=0),\n",
      "  Message('note_on', channel=0, note=54, velocity=52, time=0),\n",
      "  Message('control_change', channel=0, control=64, value=127, time=2619),\n",
      "  Message('note_off', channel=0, note=54, velocity=52, time=15868),\n",
      "  Message('note_on', channel=0, note=50, velocity=48, time=0),\n",
      "  Message('note_off', channel=0, note=62, velocity=58, time=19796),\n",
      "  Message('note_off', channel=0, note=74, velocity=58, time=0),\n",
      "  Message('note_off', channel=0, note=50, velocity=48, time=0),\n",
      "  Message('note_on', channel=0, note=74, velocity=62, time=0),\n",
      "  Message('note_on', channel=0, note=64, velocity=62, time=0),\n",
      "  Message('note_on', channel=0, note=46, velocity=56, time=0),\n",
      "  Message('control_change', channel=0, control=64, value=0, time=0),\n",
      "  Message('control_change', channel=0, control=64, value=127, time=9834),\n",
      "  Message('note_off', channel=0, note=64, velocity=62, time=13605),\n",
      "  Message('note_on', channel=0, note=65, velocity=56, time=0),\n",
      "  Message('note_off', channel=0, note=65, velocity=56, time=23211),\n",
      "  Message('note_on', channel=0, note=69, velocity=56, time=0),\n",
      "  Message('note_off', channel=0, note=46, velocity=56, time=5780),\n",
      "  Message('note_on', channel=0, note=53, velocity=48, time=0),\n",
      "  Message('note_off', channel=0, note=69, velocity=56, time=17207),\n",
      "  Message('note_off', channel=0, note=53, velocity=48, time=0),\n",
      "  Message('note_on', channel=0, note=70, velocity=58, time=0),\n",
      "  Message('note_on', channel=0, note=62, velocity=60, time=0),\n",
      "  Message('control_change', channel=0, control=64, value=0, time=847),\n",
      "  Message('control_change', channel=0, control=64, value=127, time=3954),\n",
      "  Message('note_off', channel=0, note=74, velocity=62, time=17859),\n",
      "  Message('note_on', channel=0, note=74, velocity=62, time=0),\n",
      "  Message('note_off', channel=0, note=70, velocity=58, time=11450),\n",
      "  Message('note_off', channel=0, note=62, velocity=60, time=0),\n",
      "  Message('note_on', channel=0, note=53, velocity=52, time=0),\n",
      "  Message('note_off', channel=0, note=74, velocity=62, time=11538),\n",
      "  Message('note_on', channel=0, note=76, velocity=64, time=0),\n",
      "  Message('control_change', channel=0, control=64, value=0, time=15066),\n",
      "  Message('note_off', channel=0, note=53, velocity=52, time=9785),\n",
      "  Message('note_off', channel=0, note=76, velocity=64, time=0),\n",
      "  Message('note_on', channel=0, note=79, velocity=66, time=0),\n",
      "  Message('note_on', channel=0, note=69, velocity=66, time=0),\n",
      "  Message('note_on', channel=0, note=41, velocity=62, time=0),\n",
      "  Message('control_change', channel=0, control=64, value=0, time=0),\n",
      "  Message('control_change', channel=0, control=64, value=127, time=9841),\n",
      "  Message('note_off', channel=0, note=79, velocity=66, time=13659),\n",
      "  Message('note_on', channel=0, note=77, velocity=64, time=0),\n",
      "  Message('note_off', channel=0, note=77, velocity=64, time=23500),\n",
      "  Message('note_on', channel=0, note=72, velocity=61, time=0),\n",
      "  Message('note_off', channel=0, note=41, velocity=62, time=5875),\n",
      "  Message('note_on', channel=0, note=47, velocity=48, time=0),\n",
      "  Message('note_off', channel=0, note=69, velocity=66, time=17625),\n",
      "  Message('note_off', channel=0, note=72, velocity=61, time=0),\n",
      "  Message('note_off', channel=0, note=47, velocity=48, time=0),\n",
      "  Message('note_on', channel=0, note=69, velocity=47, time=0),\n",
      "  Message('note_on', channel=0, note=48, velocity=60, time=0),\n",
      "  Message('control_change', channel=0, control=64, value=0, time=881),\n",
      "  Message('control_change', channel=0, control=64, value=127, time=4112),\n",
      "  Message('note_off', channel=0, note=69, velocity=47, time=881),\n",
      "  Message('note_on', channel=0, note=70, velocity=39, time=0),\n",
      "  Message('note_off', channel=0, note=70, velocity=39, time=5875),\n",
      "  Message('note_on', channel=0, note=69, velocity=59, time=0),\n",
      "  Message('note_off', channel=0, note=69, velocity=59, time=11750),\n",
      "  Message('note_on', channel=0, note=67, velocity=61, time=0),\n",
      "  Message('note_off', channel=0, note=48, velocity=60, time=11750),\n",
      "  Message('note_on', channel=0, note=57, velocity=50, time=0),\n",
      "  Message('note_off', channel=0, note=67, velocity=61, time=11750),\n",
      "  Message('note_on', channel=0, note=65, velocity=58, time=0),\n",
      "  Message('control_change', channel=0, control=64, value=0, time=15066),\n",
      "  Message('note_off', channel=0, note=57, velocity=50, time=9785),\n",
      "  Message('note_off', channel=0, note=65, velocity=58, time=0),\n",
      "  Message('note_on', channel=0, note=61, velocity=61, time=0),\n",
      "  Message('note_on', channel=0, note=70, velocity=58, time=0),\n",
      "  Message('note_on', channel=0, note=43, velocity=56, time=0),\n",
      "  Message('control_change', channel=0, control=64, value=0, time=0),\n",
      "  Message('control_change', channel=0, control=64, value=127, time=9834),\n",
      "  Message('note_off', channel=0, note=61, velocity=61, time=13605),\n",
      "  Message('note_on', channel=0, note=62, velocity=53, time=0),\n",
      "  Message('note_off', channel=0, note=62, velocity=53, time=23211),\n",
      "  Message('note_on', channel=0, note=66, velocity=52, time=0),\n",
      "  Message('note_off', channel=0, note=43, velocity=56, time=5780),\n",
      "  Message('note_on', channel=0, note=50, velocity=48, time=0),\n",
      "  Message('note_off', channel=0, note=66, velocity=52, time=17207),\n",
      "  Message('note_off', channel=0, note=50, velocity=48, time=0),\n",
      "  Message('note_on', channel=0, note=67, velocity=58, time=0),\n",
      "  Message('note_on', channel=0, note=58, velocity=60, time=0),\n",
      "  Message('control_change', channel=0, control=64, value=0, time=847),\n",
      "  Message('control_change', channel=0, control=64, value=127, time=3954),\n",
      "  Message('note_off', channel=0, note=70, velocity=58, time=17859),\n",
      "  Message('note_on', channel=0, note=70, velocity=62, time=0),\n",
      "  Message('note_off', channel=0, note=67, velocity=58, time=11450),\n",
      "  Message('note_off', channel=0, note=58, velocity=60, time=0),\n",
      "  Message('note_on', channel=0, note=50, velocity=53, time=0),\n",
      "  Message('note_off', channel=0, note=70, velocity=62, time=11538),\n",
      "  Message('note_on', channel=0, note=73, velocity=64, time=0),\n",
      "  Message('control_change', channel=0, control=64, value=0, time=15066),\n",
      "  Message('note_off', channel=0, note=50, velocity=53, time=9785),\n",
      "  Message('note_off', channel=0, note=73, velocity=64, time=0),\n",
      "  Message('note_on', channel=0, note=76, velocity=66, time=0),\n",
      "  Message('note_on', channel=0, note=66, velocity=66, time=0),\n",
      "  Message('note_on', channel=0, note=38, velocity=62, time=0),\n",
      "  Message('control_change', channel=0, control=64, value=0, time=0),\n",
      "  Message('control_change', channel=0, control=64, value=127, time=9841),\n",
      "  Message('note_off', channel=0, note=76, velocity=66, time=13659),\n",
      "  Message('note_on', channel=0, note=74, velocity=64, time=0),\n",
      "  Message('note_off', channel=0, note=74, velocity=64, time=23500),\n",
      "  Message('note_on', channel=0, note=65, velocity=61, time=0),\n",
      "  Message('note_off', channel=0, note=38, velocity=62, time=14687),\n",
      "  Message('note_on', channel=0, note=44, velocity=48, time=0),\n",
      "  Message('note_off', channel=0, note=66, velocity=66, time=8812),\n",
      "  Message('note_off', channel=0, note=65, velocity=61, time=0),\n",
      "  Message('note_off', channel=0, note=44, velocity=48, time=0),\n",
      "  Message('note_on', channel=0, note=66, velocity=56, time=0),\n",
      "  Message('note_on', channel=0, note=45, velocity=56, time=0),\n",
      "  Message('control_change', channel=0, control=64, value=0, time=10253),\n",
      "  Message('note_on', channel=0, note=69, velocity=48, time=5282),\n",
      "  Message('note_off', channel=0, note=66, velocity=56, time=9321),\n",
      "  Message('note_off', channel=0, note=45, velocity=56, time=0),\n",
      "  Message('note_off', channel=0, note=69, velocity=48, time=0),\n",
      "  Message('note_on', channel=0, note=62, velocity=53, time=0),\n",
      "  Message('note_on', channel=0, note=67, velocity=53, time=0),\n",
      "  Message('note_on', channel=0, note=58, velocity=37, time=0),\n",
      "  Message('control_change', channel=0, control=64, value=127, time=2936),\n",
      "  Message('note_off', channel=0, note=67, velocity=53, time=20550),\n",
      "  Message('note_off', channel=0, note=58, velocity=37, time=0),\n",
      "  Message('note_on', channel=0, note=66, velocity=50, time=0),\n",
      "  Message('note_on', channel=0, note=57, velocity=34, time=0),\n",
      "  Message('control_change', channel=0, control=64, value=0, time=15066),\n",
      "  Message('note_off', channel=0, note=62, velocity=53, time=9785),\n",
      "  Message('note_off', channel=0, note=66, velocity=50, time=0),\n",
      "  Message('note_off', channel=0, note=57, velocity=34, time=0),\n",
      "  Message('note_on', channel=0, note=60, velocity=46, time=0),\n",
      "  Message('note_on', channel=0, note=63, velocity=46, time=0),\n",
      "  Message('note_on', channel=0, note=66, velocity=54, time=0),\n",
      "  Message('note_on', channel=0, note=47, velocity=37, time=0),\n",
      "  Message('note_on', channel=0, note=57, velocity=42, time=0),\n",
      "  Message('control_change', channel=0, control=64, value=127, time=4110),\n",
      "  Message('note_off', channel=0, note=66, velocity=54, time=19375),\n",
      "  Message('note_on', channel=0, note=67, velocity=49, time=0),\n",
      "  Message('note_off', channel=0, note=67, velocity=49, time=23861),\n",
      "  Message('note_on', channel=0, note=69, velocity=49, time=0),\n",
      "  Message('note_off', channel=0, note=69, velocity=49, time=24650),\n",
      "  Message('note_on', channel=0, note=67, velocity=52, time=0),\n",
      "  Message('note_off', channel=0, note=67, velocity=52, time=37915),\n",
      "  Message('note_on', channel=0, note=66, velocity=50, time=0),\n",
      "  Message('note_off', channel=0, note=60, velocity=46, time=39245),\n",
      "  Message('note_off', channel=0, note=63, velocity=46, time=0),\n",
      "  Message('note_off', channel=0, note=47, velocity=37, time=0),\n",
      "  Message('note_off', channel=0, note=57, velocity=42, time=0),\n",
      "  Message('note_off', channel=0, note=66, velocity=50, time=0),\n",
      "  Message('note_on', channel=0, note=66, velocity=54, time=0),\n",
      "  Message('note_on', channel=0, note=59, velocity=46, time=0),\n",
      "  Message('note_on', channel=0, note=52, velocity=37, time=0),\n",
      "  Message('note_on', channel=0, note=57, velocity=46, time=0),\n",
      "  Message('control_change', channel=0, control=64, value=0, time=4314),\n",
      "  Message('control_change', channel=0, control=64, value=127, time=10938),\n",
      "  Message('note_off', channel=0, note=66, velocity=54, time=9398),\n",
      "  Message('note_on', channel=0, note=71, velocity=52, time=0),\n",
      "  Message('note_off', channel=0, note=71, velocity=52, time=24650),\n",
      "  Message('note_on', channel=0, note=66, velocity=51, time=0),\n",
      "  Message('note_off', channel=0, note=57, velocity=46, time=26163),\n",
      "  Message('note_off', channel=0, note=66, velocity=51, time=0),\n",
      "  Message('note_on', channel=0, note=64, velocity=50, time=0),\n",
      "  Message('note_on', channel=0, note=55, velocity=42, time=0),\n",
      "  Message('control_change', channel=0, control=64, value=0, time=2486),\n",
      "  Message('note_off', channel=0, note=59, velocity=46, time=40123),\n",
      "  Message('note_off', channel=0, note=52, velocity=37, time=0),\n",
      "  Message('note_off', channel=0, note=64, velocity=50, time=0),\n",
      "  Message('note_off', channel=0, note=55, velocity=42, time=0),\n",
      "  Message('note_on', channel=0, note=45, velocity=43, time=51424),\n",
      "  Message('control_change', channel=0, control=64, value=127, time=2212),\n",
      "  Message('note_on', channel=0, note=61, velocity=50, time=23065),\n",
      "  Message('note_on', channel=0, note=67, velocity=50, time=0),\n",
      "  Message('note_on', channel=0, note=58, velocity=41, time=0),\n",
      "  Message('note_off', channel=0, note=67, velocity=50, time=26395),\n",
      "  Message('note_off', channel=0, note=58, velocity=41, time=0),\n",
      "  Message('note_on', channel=0, note=66, velocity=46, time=0),\n",
      "  Message('note_on', channel=0, note=57, velocity=38, time=0),\n",
      "  Message('note_off', channel=0, note=66, velocity=46, time=30127),\n",
      "  Message('note_off', channel=0, note=57, velocity=38, time=0),\n",
      "  Message('note_on', channel=0, note=66, velocity=50, time=0),\n",
      "  Message('note_on', channel=0, note=57, velocity=42, time=0),\n",
      "  Message('control_change', channel=0, control=64, value=0, time=3532),\n",
      "  Message('control_change', channel=0, control=64, value=127, time=6083),\n",
      "  Message('note_off', channel=0, note=66, velocity=50, time=37479),\n",
      "  Message('note_off', channel=0, note=57, velocity=42, time=0),\n",
      "  Message('note_on', channel=0, note=64, velocity=45, time=0),\n",
      "  Message('note_on', channel=0, note=55, velocity=39, time=0),\n",
      "  Message('control_change', channel=0, control=64, value=0, time=47639),\n",
      "  Message('note_off', channel=0, note=45, velocity=43, time=14499),\n",
      "  Message('note_off', channel=0, note=61, velocity=50, time=0),\n",
      "  Message('note_off', channel=0, note=64, velocity=45, time=0),\n",
      "  Message('note_off', channel=0, note=55, velocity=39, time=0),\n",
      "  Message('note_on', channel=0, note=38, velocity=38, time=0),\n",
      "  Message('control_change', channel=0, control=64, value=127, time=6274),\n",
      "  Message('note_on', channel=0, note=57, velocity=33, time=58254),\n",
      "  Message('note_off', channel=0, note=57, velocity=33, time=20713),\n",
      "  Message('note_on', channel=0, note=62, velocity=39, time=0),\n",
      "  Message('note_on', channel=0, note=66, velocity=39, time=0),\n",
      "  Message('note_on', channel=0, note=69, velocity=39, time=0),\n",
      "  Message('note_off', channel=0, note=38, velocity=38, time=41425),\n",
      "  Message('note_on', channel=0, note=33, velocity=35, time=0),\n",
      "  Message('note_off', channel=0, note=62, velocity=39, time=49164),\n",
      "  Message('note_off', channel=0, note=66, velocity=39, time=0),\n",
      "  Message('note_off', channel=0, note=69, velocity=39, time=0),\n",
      "  Message('note_off', channel=0, note=33, velocity=35, time=0),\n",
      "  Message('note_on', channel=0, note=38, velocity=38, time=0),\n",
      "  Message('note_on', channel=0, note=57, velocity=33, time=69184),\n",
      "  Message('note_off', channel=0, note=57, velocity=33, time=21304),\n",
      "  Message('note_on', channel=0, note=62, velocity=39, time=0),\n",
      "  Message('note_on', channel=0, note=66, velocity=39, time=0),\n",
      "  Message('note_on', channel=0, note=69, velocity=39, time=0),\n",
      "  Message('note_off', channel=0, note=38, velocity=38, time=49710),\n",
      "  Message('note_on', channel=0, note=33, velocity=35, time=0),\n",
      "  Message('note_off', channel=0, note=62, velocity=39, time=57358),\n",
      "  Message('note_off', channel=0, note=66, velocity=39, time=0),\n",
      "  Message('note_off', channel=0, note=69, velocity=39, time=0),\n",
      "  Message('note_off', channel=0, note=33, velocity=35, time=0),\n",
      "  Message('note_on', channel=0, note=54, velocity=27, time=0),\n",
      "  Message('note_on', channel=0, note=57, velocity=27, time=0),\n",
      "  Message('note_on', channel=0, note=66, velocity=33, time=0),\n",
      "  Message('note_on', channel=0, note=62, velocity=33, time=0),\n",
      "  Message('note_on', channel=0, note=38, velocity=25, time=0),\n",
      "  Message('note_on', channel=0, note=45, velocity=25, time=0),\n",
      "  Message('note_on', channel=0, note=50, velocity=30, time=0),\n",
      "  Message('note_off', channel=0, note=54, velocity=27, time=180764),\n",
      "  Message('note_off', channel=0, note=57, velocity=27, time=0),\n",
      "  Message('note_off', channel=0, note=66, velocity=33, time=0),\n",
      "  Message('note_off', channel=0, note=62, velocity=33, time=0),\n",
      "  Message('note_off', channel=0, note=38, velocity=25, time=0),\n",
      "  Message('note_off', channel=0, note=45, velocity=25, time=0),\n",
      "  Message('note_off', channel=0, note=50, velocity=30, time=0),\n",
      "  Message('note_on', channel=0, note=86, velocity=37, time=0),\n",
      "  Message('note_on', channel=0, note=81, velocity=37, time=0),\n",
      "  Message('note_on', channel=0, note=74, velocity=33, time=0),\n",
      "  Message('note_on', channel=0, note=62, velocity=31, time=0),\n",
      "  Message('note_on', channel=0, note=69, velocity=31, time=0),\n",
      "  Message('note_on', channel=0, note=78, velocity=35, time=0),\n",
      "  Message('control_change', channel=0, control=64, value=0, time=135573),\n",
      "  Message('note_off', channel=0, note=86, velocity=37, time=45191),\n",
      "  Message('note_off', channel=0, note=81, velocity=37, time=0),\n",
      "  Message('note_off', channel=0, note=74, velocity=33, time=0),\n",
      "  Message('note_off', channel=0, note=62, velocity=31, time=0),\n",
      "  Message('note_off', channel=0, note=69, velocity=31, time=0),\n",
      "  Message('note_off', channel=0, note=78, velocity=35, time=0),\n",
      "  MetaMessage('end_of_track', time=1)])\n"
     ]
    }
   ],
   "source": [
    "midi3 = MidiFile('/Users/carlopizzuto/CS/AIML/AIM/piano_transcription/datasets/test/aug-fix/MAPS_MUS-alb_esp2_AkPnCGdD.mid')\n",
    "print(midi3.tracks[1])\n"
   ]
  },
  {
   "cell_type": "code",
   "execution_count": 81,
   "metadata": {},
   "outputs": [
    {
     "name": "stdout",
     "output_type": "stream",
     "text": [
      "Directories in working directory: ['MAPS_AkPnStgb_2', 'MAPS_AkPnBcht_2']\n"
     ]
    }
   ],
   "source": [
    "directories = [d for d in os.listdir('.') if os.path.isdir(d)]\n",
    "print(\"Directories in working directory:\", directories)\n"
   ]
  },
  {
   "cell_type": "code",
   "execution_count": 82,
   "metadata": {},
   "outputs": [
    {
     "data": {
      "text/html": [
       "<div>\n",
       "<style scoped>\n",
       "    .dataframe tbody tr th:only-of-type {\n",
       "        vertical-align: middle;\n",
       "    }\n",
       "\n",
       "    .dataframe tbody tr th {\n",
       "        vertical-align: top;\n",
       "    }\n",
       "\n",
       "    .dataframe thead th {\n",
       "        text-align: right;\n",
       "    }\n",
       "</style>\n",
       "<table border=\"1\" class=\"dataframe\">\n",
       "  <thead>\n",
       "    <tr style=\"text-align: right;\">\n",
       "      <th></th>\n",
       "      <th>canonical_composer</th>\n",
       "      <th>canonical_title</th>\n",
       "      <th>split</th>\n",
       "      <th>year</th>\n",
       "      <th>midi_filename</th>\n",
       "      <th>audio_filename</th>\n",
       "      <th>duration</th>\n",
       "    </tr>\n",
       "  </thead>\n",
       "  <tbody>\n",
       "    <tr>\n",
       "      <th>0</th>\n",
       "      <td>chpn</td>\n",
       "      <td>chpn_p10_AkPnStgb</td>\n",
       "      <td>train</td>\n",
       "      <td>2008</td>\n",
       "      <td>MAPS_MUS-chpn-p10_AkPnStgb.mid</td>\n",
       "      <td>MAPS_MUS-chpn-p10_AkPnStgb.wav</td>\n",
       "      <td>23.8060</td>\n",
       "    </tr>\n",
       "    <tr>\n",
       "      <th>1</th>\n",
       "      <td>appass</td>\n",
       "      <td>appass_3_AkPnStgb</td>\n",
       "      <td>train</td>\n",
       "      <td>2008</td>\n",
       "      <td>MAPS_MUS-appass_3_AkPnStgb.mid</td>\n",
       "      <td>MAPS_MUS-appass_3_AkPnStgb.wav</td>\n",
       "      <td>465.1290</td>\n",
       "    </tr>\n",
       "    <tr>\n",
       "      <th>2</th>\n",
       "      <td>waldstein</td>\n",
       "      <td>waldstein_1_AkPnStgb</td>\n",
       "      <td>train</td>\n",
       "      <td>2008</td>\n",
       "      <td>MAPS_MUS-waldstein_1_AkPnStgb.mid</td>\n",
       "      <td>MAPS_MUS-waldstein_1_AkPnStgb.wav</td>\n",
       "      <td>618.9340</td>\n",
       "    </tr>\n",
       "    <tr>\n",
       "      <th>3</th>\n",
       "      <td>bk</td>\n",
       "      <td>bk_xmas2_AkPnStgb</td>\n",
       "      <td>train</td>\n",
       "      <td>2008</td>\n",
       "      <td>MAPS_MUS-bk_xmas2_AkPnStgb.mid</td>\n",
       "      <td>MAPS_MUS-bk_xmas2_AkPnStgb.wav</td>\n",
       "      <td>399.2800</td>\n",
       "    </tr>\n",
       "    <tr>\n",
       "      <th>4</th>\n",
       "      <td>bor</td>\n",
       "      <td>bor_ps5_AkPnStgb</td>\n",
       "      <td>train</td>\n",
       "      <td>2008</td>\n",
       "      <td>MAPS_MUS-bor_ps5_AkPnStgb.mid</td>\n",
       "      <td>MAPS_MUS-bor_ps5_AkPnStgb.wav</td>\n",
       "      <td>95.3238</td>\n",
       "    </tr>\n",
       "  </tbody>\n",
       "</table>\n",
       "</div>"
      ],
      "text/plain": [
       "  canonical_composer       canonical_title  split  year  \\\n",
       "0               chpn     chpn_p10_AkPnStgb  train  2008   \n",
       "1             appass     appass_3_AkPnStgb  train  2008   \n",
       "2          waldstein  waldstein_1_AkPnStgb  train  2008   \n",
       "3                 bk     bk_xmas2_AkPnStgb  train  2008   \n",
       "4                bor      bor_ps5_AkPnStgb  train  2008   \n",
       "\n",
       "                       midi_filename                     audio_filename  \\\n",
       "0     MAPS_MUS-chpn-p10_AkPnStgb.mid     MAPS_MUS-chpn-p10_AkPnStgb.wav   \n",
       "1     MAPS_MUS-appass_3_AkPnStgb.mid     MAPS_MUS-appass_3_AkPnStgb.wav   \n",
       "2  MAPS_MUS-waldstein_1_AkPnStgb.mid  MAPS_MUS-waldstein_1_AkPnStgb.wav   \n",
       "3     MAPS_MUS-bk_xmas2_AkPnStgb.mid     MAPS_MUS-bk_xmas2_AkPnStgb.wav   \n",
       "4      MAPS_MUS-bor_ps5_AkPnStgb.mid      MAPS_MUS-bor_ps5_AkPnStgb.wav   \n",
       "\n",
       "   duration  \n",
       "0   23.8060  \n",
       "1  465.1290  \n",
       "2  618.9340  \n",
       "3  399.2800  \n",
       "4   95.3238  "
      ]
     },
     "execution_count": 82,
     "metadata": {},
     "output_type": "execute_result"
    }
   ],
   "source": [
    "directory = directories[0]\n",
    "df = pd.DataFrame(columns=[\"canonical_composer\", \"canonical_title\", \"split\", \"year\", \"midi_filename\", \"audio_filename\", \"duration\"])\n",
    "df = split_dir(directory, df)\n",
    "\n",
    "df.head()"
   ]
  },
  {
   "cell_type": "code",
   "execution_count": 83,
   "metadata": {},
   "outputs": [
    {
     "data": {
      "text/plain": [
       "train    25\n",
       "test      5\n",
       "Name: split, dtype: int64"
      ]
     },
     "execution_count": 83,
     "metadata": {},
     "output_type": "execute_result"
    }
   ],
   "source": [
    "df['split'].value_counts()"
   ]
  },
  {
   "cell_type": "code",
   "execution_count": 85,
   "metadata": {},
   "outputs": [
    {
     "data": {
      "text/html": [
       "<div>\n",
       "<style scoped>\n",
       "    .dataframe tbody tr th:only-of-type {\n",
       "        vertical-align: middle;\n",
       "    }\n",
       "\n",
       "    .dataframe tbody tr th {\n",
       "        vertical-align: top;\n",
       "    }\n",
       "\n",
       "    .dataframe thead th {\n",
       "        text-align: right;\n",
       "    }\n",
       "</style>\n",
       "<table border=\"1\" class=\"dataframe\">\n",
       "  <thead>\n",
       "    <tr style=\"text-align: right;\">\n",
       "      <th></th>\n",
       "      <th>canonical_composer</th>\n",
       "      <th>canonical_title</th>\n",
       "      <th>split</th>\n",
       "      <th>year</th>\n",
       "      <th>midi_filename</th>\n",
       "      <th>audio_filename</th>\n",
       "      <th>duration</th>\n",
       "    </tr>\n",
       "  </thead>\n",
       "  <tbody>\n",
       "    <tr>\n",
       "      <th>0</th>\n",
       "      <td>chpn</td>\n",
       "      <td>chpn_p12_AkPnBcht</td>\n",
       "      <td>train</td>\n",
       "      <td>2008</td>\n",
       "      <td>MAPS_MUS-chpn-p12_AkPnBcht.mid</td>\n",
       "      <td>MAPS_MUS-chpn-p12_AkPnBcht.wav</td>\n",
       "      <td>57.1319</td>\n",
       "    </tr>\n",
       "    <tr>\n",
       "      <th>1</th>\n",
       "      <td>chpn</td>\n",
       "      <td>chpn_op66_AkPnBcht</td>\n",
       "      <td>train</td>\n",
       "      <td>2008</td>\n",
       "      <td>MAPS_MUS-chpn_op66_AkPnBcht.mid</td>\n",
       "      <td>MAPS_MUS-chpn_op66_AkPnBcht.wav</td>\n",
       "      <td>274.9310</td>\n",
       "    </tr>\n",
       "    <tr>\n",
       "      <th>2</th>\n",
       "      <td>chpn</td>\n",
       "      <td>chpn_p24_AkPnBcht</td>\n",
       "      <td>train</td>\n",
       "      <td>2008</td>\n",
       "      <td>MAPS_MUS-chpn-p24_AkPnBcht.mid</td>\n",
       "      <td>MAPS_MUS-chpn-p24_AkPnBcht.wav</td>\n",
       "      <td>123.2190</td>\n",
       "    </tr>\n",
       "    <tr>\n",
       "      <th>3</th>\n",
       "      <td>hay</td>\n",
       "      <td>hay_40_1_AkPnBcht</td>\n",
       "      <td>train</td>\n",
       "      <td>2008</td>\n",
       "      <td>MAPS_MUS-hay_40_1_AkPnBcht.mid</td>\n",
       "      <td>MAPS_MUS-hay_40_1_AkPnBcht.wav</td>\n",
       "      <td>394.8680</td>\n",
       "    </tr>\n",
       "    <tr>\n",
       "      <th>4</th>\n",
       "      <td>muss</td>\n",
       "      <td>muss_5_AkPnBcht</td>\n",
       "      <td>train</td>\n",
       "      <td>2008</td>\n",
       "      <td>MAPS_MUS-muss_5_AkPnBcht.mid</td>\n",
       "      <td>MAPS_MUS-muss_5_AkPnBcht.wav</td>\n",
       "      <td>100.4470</td>\n",
       "    </tr>\n",
       "  </tbody>\n",
       "</table>\n",
       "</div>"
      ],
      "text/plain": [
       "  canonical_composer     canonical_title  split  year  \\\n",
       "0               chpn   chpn_p12_AkPnBcht  train  2008   \n",
       "1               chpn  chpn_op66_AkPnBcht  train  2008   \n",
       "2               chpn   chpn_p24_AkPnBcht  train  2008   \n",
       "3                hay   hay_40_1_AkPnBcht  train  2008   \n",
       "4               muss     muss_5_AkPnBcht  train  2008   \n",
       "\n",
       "                     midi_filename                   audio_filename  duration  \n",
       "0   MAPS_MUS-chpn-p12_AkPnBcht.mid   MAPS_MUS-chpn-p12_AkPnBcht.wav   57.1319  \n",
       "1  MAPS_MUS-chpn_op66_AkPnBcht.mid  MAPS_MUS-chpn_op66_AkPnBcht.wav  274.9310  \n",
       "2   MAPS_MUS-chpn-p24_AkPnBcht.mid   MAPS_MUS-chpn-p24_AkPnBcht.wav  123.2190  \n",
       "3   MAPS_MUS-hay_40_1_AkPnBcht.mid   MAPS_MUS-hay_40_1_AkPnBcht.wav  394.8680  \n",
       "4     MAPS_MUS-muss_5_AkPnBcht.mid     MAPS_MUS-muss_5_AkPnBcht.wav  100.4470  "
      ]
     },
     "execution_count": 85,
     "metadata": {},
     "output_type": "execute_result"
    }
   ],
   "source": [
    "directory = directories[1]\n",
    "df2 = pd.DataFrame(columns=[\"canonical_composer\", \"canonical_title\", \"split\", \"year\", \"midi_filename\", \"audio_filename\", \"duration\"])\n",
    "df2 = split_dir(directory, df2)\n",
    "\n",
    "df2.head()"
   ]
  },
  {
   "cell_type": "code",
   "execution_count": null,
   "metadata": {},
   "outputs": [],
   "source": [
    "df.to_csv('maps_to_maestro.csv', index=False)\n",
    "df2.to_csv('maestro_to_maps.csv', index=False)\n"
   ]
  }
 ],
 "metadata": {
  "kernelspec": {
   "display_name": "aim-kong",
   "language": "python",
   "name": "python3"
  },
  "language_info": {
   "codemirror_mode": {
    "name": "ipython",
    "version": 3
   },
   "file_extension": ".py",
   "mimetype": "text/x-python",
   "name": "python",
   "nbconvert_exporter": "python",
   "pygments_lexer": "ipython3",
   "version": "3.10.12"
  }
 },
 "nbformat": 4,
 "nbformat_minor": 2
}
